<svg width="179" height="179" viewBox="0 0 179 179" fill="none" xmlns="http://www.w3.org/2000/svg">
<path d="M0 0H4V4H0V0Z" fill="#DADADA"/>
<path d="M109 0H105V4H109V0Z" fill="#DADADA"/>
<path d="M109 35H105V39H109V35Z" fill="#DADADA"/>
<path d="M140 0H144V4H140V0Z" fill="#DADADA"/>
<path d="M144 35H140V39H144V35Z" fill="#DADADA"/>
<path d="M175 0H179V4H175V0Z" fill="#DADADA"/>
<path d="M179 35H175V39H179V35Z" fill="#DADADA"/>
<path d="M105 70H109V74H105V70Z" fill="#DADADA"/>
<path d="M109 105H105V109H109V105Z" fill="#DADADA"/>
<path d="M140 70H144V74H140V70Z" fill="#DADADA"/>
<path d="M144 105H140V109H144V105Z" fill="#DADADA"/>
<path d="M175 70H179V74H175V70Z" fill="#DADADA"/>
<path d="M179 105H175V109H179V105Z" fill="#DADADA"/>
<path d="M105 140H109V144H105V140Z" fill="#DADADA"/>
<path d="M109 175H105V179H109V175Z" fill="#DADADA"/>
<path d="M140 140H144V144H140V140Z" fill="#DADADA"/>
<path d="M144 175H140V179H144V175Z" fill="#DADADA"/>
<path d="M175 140H179V144H175V140Z" fill="#DADADA"/>
<path d="M179 175H175V179H179V175Z" fill="#DADADA"/>
<path d="M4 35H0V39H4V35Z" fill="#DADADA"/>
<path d="M35 0H39V4H35V0Z" fill="#DADADA"/>
<path d="M39 35H35V39H39V35Z" fill="#DADADA"/>
<path d="M70 0H74V4H70V0Z" fill="#DADADA"/>
<path d="M74 35H70V39H74V35Z" fill="#DADADA"/>
<path d="M0 70H4V74H0V70Z" fill="#DADADA"/>
<path d="M4 105H0V109H4V105Z" fill="#DADADA"/>
<path d="M35 70H39V74H35V70Z" fill="#DADADA"/>
<path d="M39 105H35V109H39V105Z" fill="#DADADA"/>
<path d="M70 70H74V74H70V70Z" fill="#DADADA"/>
<path d="M74 105H70V109H74V105Z" fill="#DADADA"/>
<path d="M0 140H4V144H0V140Z" fill="#DADADA"/>
<path d="M4 175H0V179H4V175Z" fill="#DADADA"/>
<path d="M35 140H39V144H35V140Z" fill="#DADADA"/>
<path d="M39 175H35V179H39V175Z" fill="#DADADA"/>
<path d="M70 140H74V144H70V140Z" fill="#DADADA"/>
<path d="M74 175H70V179H74V175Z" fill="#DADADA"/>
</svg>
