<svg width="14" height="14" viewBox="0 0 14 14" fill="none" xmlns="http://www.w3.org/2000/svg">
<path d="M7 3.40625C6.35417 3.40625 5.75 3.57292 5.1875 3.90625C4.64583 4.21875 4.20833 4.65625 3.875 5.21875C3.5625 5.76042 3.40625 6.35417 3.40625 7C3.40625 7.64583 3.5625 8.25 3.875 8.8125C4.20833 9.35417 4.64583 9.79167 5.1875 10.125C5.75 10.4375 6.35417 10.5938 7 10.5938C7.64583 10.5938 8.23958 10.4375 8.78125 10.125C9.34375 9.79167 9.78125 9.35417 10.0938 8.8125C10.4271 8.25 10.5938 7.64583 10.5938 7C10.5938 6.35417 10.4271 5.76042 10.0938 5.21875C9.78125 4.65625 9.34375 4.21875 8.78125 3.90625C8.23958 3.57292 7.64583 3.40625 7 3.40625ZM7 9.34375C6.35417 9.34375 5.80208 9.11458 5.34375 8.65625C4.88542 8.19792 4.65625 7.64583 4.65625 7C4.65625 6.35417 4.88542 5.80208 5.34375 5.34375C5.80208 4.88542 6.35417 4.65625 7 4.65625C7.64583 4.65625 8.19792 4.88542 8.65625 5.34375C9.11458 5.80208 9.34375 6.35417 9.34375 7C9.34375 7.64583 9.11458 8.19792 8.65625 8.65625C8.19792 9.11458 7.64583 9.34375 7 9.34375ZM11.5938 3.25C11.5729 3.47917 11.4792 3.67708 11.3125 3.84375C11.1667 4.01042 10.9792 4.09375 10.75 4.09375C10.5208 4.09375 10.3229 4.01042 10.1562 3.84375C9.98958 3.67708 9.90625 3.47917 9.90625 3.25C9.90625 3.02083 9.98958 2.82292 10.1562 2.65625C10.3229 2.48958 10.5208 2.40625 10.75 2.40625C10.9792 2.40625 11.1771 2.48958 11.3438 2.65625C11.5104 2.82292 11.5938 3.02083 11.5938 3.25ZM13.9688 4.09375C13.9271 3.48958 13.8333 2.96875 13.6875 2.53125C13.5 2.01042 13.2083 1.5625 12.8125 1.1875C12.4375 0.791667 11.9896 0.5 11.4688 0.3125C11.0312 0.166667 10.5104 0.0833333 9.90625 0.0625C9.32292 0.0208333 8.35417 0 7 0C5.64583 0 4.66667 0.0208333 4.0625 0.0625C3.47917 0.0833333 2.96875 0.166667 2.53125 0.3125C2.01042 0.5 1.55208 0.791667 1.15625 1.1875C0.78125 1.5625 0.5 2.01042 0.3125 2.53125C0.166667 2.96875 0.0729167 3.48958 0.03125 4.09375C0.0104167 4.67708 0 5.64583 0 7C0 8.35417 0.0104167 9.33333 0.03125 9.9375C0.0729167 10.5208 0.166667 11.0312 0.3125 11.4688C0.5 11.9896 0.78125 12.4479 1.15625 12.8438C1.55208 13.2188 2.01042 13.4896 2.53125 13.6562C2.96875 13.8229 3.47917 13.9167 4.0625 13.9375C4.66667 13.9792 5.64583 14 7 14C8.35417 14 9.32292 13.9792 9.90625 13.9375C10.5104 13.9167 11.0312 13.8333 11.4688 13.6875C11.9896 13.5 12.4375 13.2188 12.8125 12.8438C13.2083 12.4479 13.5 11.9896 13.6875 11.4688C13.8333 11.0312 13.9167 10.5208 13.9375 9.9375C13.9792 9.33333 14 8.35417 14 7C14 5.64583 13.9896 4.67708 13.9688 4.09375ZM12.4688 11.125C12.2188 11.75 11.7708 12.1979 11.125 12.4688C10.7917 12.5938 10.2292 12.6771 9.4375 12.7188C9 12.7396 8.35417 12.75 7.5 12.75H6.5C5.66667 12.75 5.02083 12.7396 4.5625 12.7188C3.79167 12.6771 3.22917 12.5938 2.875 12.4688C2.25 12.2188 1.80208 11.7708 1.53125 11.125C1.40625 10.7708 1.32292 10.2083 1.28125 9.4375C1.26042 8.97917 1.25 8.33333 1.25 7.5V6.5C1.25 5.66667 1.26042 5.02083 1.28125 4.5625C1.32292 3.77083 1.40625 3.20833 1.53125 2.875C1.78125 2.22917 2.22917 1.78125 2.875 1.53125C3.22917 1.40625 3.79167 1.32292 4.5625 1.28125C5.02083 1.26042 5.66667 1.25 6.5 1.25H7.5C8.33333 1.25 8.97917 1.26042 9.4375 1.28125C10.2292 1.32292 10.7917 1.40625 11.125 1.53125C11.7708 1.78125 12.2188 2.22917 12.4688 2.875C12.5938 3.20833 12.6771 3.77083 12.7188 4.5625C12.7396 5 12.75 5.64583 12.75 6.5V7.5C12.75 8.33333 12.7396 8.97917 12.7188 9.4375C12.6771 10.2083 12.5938 10.7708 12.4688 11.125Z" fill="white"/>
</svg>
