<svg width="220" height="38" viewBox="0 0 220 38" fill="none" xmlns="http://www.w3.org/2000/svg">
<path d="M51.4199 8.66937H57.5799L65.9907 30.3656L74.0461 8.66937H79.7322L68.7153 37H62.8515L51.4199 8.66937Z" fill="white"/>
<path d="M105.261 20.5037C105.221 19.3083 105.024 18.2125 104.668 17.2164C104.352 16.2202 103.859 15.3635 103.188 14.6463C102.516 13.8892 101.667 13.3114 100.641 12.913C99.6535 12.4747 98.4886 12.2555 97.1461 12.2555C95.843 12.2555 94.6386 12.5145 93.533 13.0325C92.4668 13.5107 91.5586 14.1482 90.8084 14.9451C90.0581 15.7421 89.4658 16.6386 89.0315 17.6348C88.6366 18.5911 88.4392 19.5474 88.4392 20.5037H105.261ZM88.4392 24.8071C88.4392 26.0423 88.6958 27.1779 89.2092 28.2139C89.762 29.2101 90.4727 30.0668 91.3415 30.784C92.2102 31.5012 93.2171 32.0591 94.3622 32.4575C95.5074 32.856 96.692 33.0552 97.9161 33.0552C99.5745 33.0552 101.016 32.6767 102.24 31.9196C103.464 31.1227 104.589 30.0867 105.616 28.8116L109.644 31.9196C106.682 35.7847 102.536 37.7172 97.2053 37.7172C94.994 37.7172 92.9802 37.3387 91.1638 36.5816C89.3868 35.8245 87.8666 34.7885 86.603 33.4736C85.3789 32.1188 84.4312 30.5449 83.7599 28.7518C83.0886 26.9189 82.753 24.9465 82.753 22.8347C82.753 20.7228 83.1084 18.7704 83.8192 16.9773C84.5694 15.1444 85.5763 13.5704 86.8399 12.2555C88.143 10.9008 89.683 9.84483 91.4599 9.08776C93.2368 8.33068 95.1717 7.95214 97.2645 7.95214C99.7522 7.95214 101.845 8.39045 103.543 9.26706C105.28 10.1437 106.702 11.2992 107.808 12.7337C108.913 14.1283 109.703 15.7221 110.177 17.5152C110.69 19.2684 110.947 21.0615 110.947 22.8944V24.8071H88.4392Z" fill="white"/>
<path d="M117.324 8.66937H122.655V13.0325H122.773C123.128 12.2754 123.602 11.5981 124.195 11.0004C124.787 10.3628 125.438 9.82491 126.149 9.3866C126.9 8.94829 127.709 8.6096 128.578 8.37052C129.446 8.0916 130.315 7.95214 131.184 7.95214C132.053 7.95214 132.842 8.07168 133.553 8.31076L133.316 14.1084C132.882 13.9888 132.447 13.8892 132.013 13.8095C131.579 13.7298 131.144 13.69 130.71 13.69C128.104 13.69 126.11 14.4271 124.728 15.9014C123.346 17.3758 122.655 19.6669 122.655 22.7749V37H117.324V8.66937Z" fill="white"/>
<path d="M154.291 13.3314H146.65V26.1818C146.65 26.9787 146.67 27.7756 146.709 28.5725C146.749 29.3296 146.887 30.0269 147.124 30.6644C147.4 31.2621 147.795 31.7602 148.309 32.1587C148.861 32.5173 149.651 32.6966 150.678 32.6966C151.31 32.6966 151.961 32.6368 152.632 32.5173C153.304 32.3978 153.916 32.1786 154.469 31.8598V36.7609C153.837 37.1195 153.007 37.3586 151.981 37.4781C150.994 37.6375 150.224 37.7172 149.671 37.7172C147.617 37.7172 146.018 37.4383 144.873 36.8804C143.767 36.2828 142.938 35.5257 142.385 34.6092C141.872 33.6928 141.556 32.6767 141.438 31.561C141.359 30.4054 141.319 29.2499 141.319 28.0944V13.3314H135.159V8.66937H141.319V0.720062H146.65V8.66937H154.291V13.3314Z" fill="white"/>
<path d="M159.806 22.8347C159.806 20.7627 160.181 18.8301 160.932 17.0371C161.721 15.244 162.787 13.6701 164.13 12.3153C165.473 10.9605 167.052 9.9046 168.869 9.14753C170.685 8.3506 172.64 7.95214 174.732 7.95214C176.825 7.95214 178.78 8.3506 180.596 9.14753C182.413 9.9046 183.992 10.9605 185.335 12.3153C186.677 13.6701 187.724 15.244 188.474 17.0371C189.264 18.8301 189.659 20.7627 189.659 22.8347C189.659 24.9067 189.264 26.8591 188.474 28.6921C187.724 30.4851 186.677 32.0591 185.335 33.4138C183.992 34.7288 182.413 35.7847 180.596 36.5816C178.78 37.3387 176.825 37.7172 174.732 37.7172C172.64 37.7172 170.685 37.3387 168.869 36.5816C167.052 35.7847 165.473 34.7288 164.13 33.4138C162.787 32.0591 161.721 30.4851 160.932 28.6921C160.181 26.8591 159.806 24.9067 159.806 22.8347ZM165.492 22.8347C165.492 24.2691 165.71 25.604 166.144 26.8392C166.578 28.0346 167.19 29.0706 167.98 29.9472C168.77 30.784 169.737 31.4614 170.882 31.9794C172.027 32.4575 173.311 32.6966 174.732 32.6966C176.154 32.6966 177.437 32.4575 178.582 31.9794C179.727 31.4614 180.695 30.784 181.485 29.9472C182.274 29.0706 182.886 28.0346 183.321 26.8392C183.755 25.604 183.972 24.2691 183.972 22.8347C183.972 21.4002 183.755 20.0853 183.321 18.8899C182.886 17.6547 182.274 16.6187 181.485 15.7819C180.695 14.9053 179.727 14.2279 178.582 13.7498C177.437 13.2318 176.154 12.9728 174.732 12.9728C173.311 12.9728 172.027 13.2318 170.882 13.7498C169.737 14.2279 168.77 14.9053 167.98 15.7819C167.19 16.6187 166.578 17.6547 166.144 18.8899C165.71 20.0853 165.492 21.4002 165.492 22.8347Z" fill="white"/>
<path d="M211.263 15.7819C210.631 14.985 209.841 14.3275 208.894 13.8095C207.986 13.2517 206.86 12.9728 205.518 12.9728C204.254 12.9728 203.148 13.2517 202.201 13.8095C201.292 14.3275 200.838 15.1045 200.838 16.1405C200.838 16.9773 201.095 17.6547 201.608 18.1727C202.161 18.6907 202.793 19.1091 203.504 19.4278C204.254 19.7466 205.044 19.9857 205.873 20.1451C206.702 20.3044 207.413 20.4439 208.005 20.5634C209.15 20.8424 210.217 21.1811 211.204 21.5795C212.23 21.978 213.099 22.496 213.81 23.1335C214.56 23.7711 215.133 24.5481 215.528 25.4645C215.962 26.381 216.179 27.4967 216.179 28.8116C216.179 30.4054 215.843 31.7801 215.172 32.9357C214.501 34.0514 213.632 34.9678 212.566 35.6851C211.5 36.4023 210.276 36.9203 208.894 37.2391C207.551 37.5578 206.189 37.7172 204.807 37.7172C202.477 37.7172 200.424 37.3586 198.647 36.6414C196.909 35.9241 195.35 34.6092 193.968 32.6966L197.995 29.3495C198.864 30.2261 199.831 31.0031 200.898 31.6805C201.964 32.3579 203.267 32.6966 204.807 32.6966C205.478 32.6966 206.149 32.6368 206.821 32.5173C207.531 32.3579 208.143 32.1388 208.657 31.8598C209.21 31.5411 209.644 31.1625 209.96 30.7242C210.315 30.2461 210.493 29.7081 210.493 29.1104C210.493 28.3135 210.236 27.6561 209.723 27.1381C209.249 26.6201 208.657 26.2216 207.946 25.9427C207.275 25.6239 206.544 25.3848 205.754 25.2254C205.004 25.0262 204.333 24.8668 203.741 24.7473C202.596 24.4684 201.51 24.1496 200.483 23.791C199.456 23.4324 198.548 22.9542 197.758 22.3565C196.969 21.7588 196.337 21.0018 195.863 20.0853C195.389 19.1688 195.152 18.0332 195.152 16.6784C195.152 15.2041 195.448 13.9291 196.041 12.8532C196.672 11.7375 197.482 10.8211 198.469 10.1038C199.496 9.3866 200.641 8.84868 201.904 8.49006C203.208 8.13145 204.511 7.95214 205.814 7.95214C207.709 7.95214 209.526 8.31076 211.263 9.02799C213 9.74522 214.382 10.9406 215.409 12.6141L211.263 15.7819Z" fill="white"/>
<path d="M8.46154 12.8077C8.46154 15.1655 6.56788 17.0769 4.23077 17.0769C1.89365 17.0769 0 15.1655 0 12.8077C0 10.4499 1.89365 8.53846 4.23077 8.53846C6.56788 8.53846 8.46154 10.4499 8.46154 12.8077Z" fill="#FF5858"/>
<path d="M23.9744 17.0769C26.3115 17.0769 28.2051 15.1655 28.2051 12.8077C28.2051 10.4499 26.3115 8.53846 23.9744 8.53846C21.6372 8.53846 19.7436 10.4499 19.7436 12.8077C19.7436 15.1655 21.6372 17.0769 23.9744 17.0769Z" fill="#FF5858"/>
<path d="M23.9744 37C26.3115 37 28.2051 35.0886 28.2051 32.7308C28.2051 30.3729 26.3115 28.4615 23.9744 28.4615C21.6372 28.4615 19.7436 30.3729 19.7436 32.7308C19.7436 35.0886 21.6372 37 23.9744 37Z" fill="#FF5858"/>
<path d="M4.23077 37C6.56788 37 8.46154 35.0886 8.46154 32.7308C8.46154 30.3729 6.56788 28.4615 4.23077 28.4615C1.89365 28.4615 0 30.3729 0 32.7308C0 35.0886 1.89365 37 4.23077 37Z" fill="#FF5858"/>
</svg>
