<svg width="62" height="62" viewBox="0 0 62 62" fill="none" xmlns="http://www.w3.org/2000/svg">
<path d="M62 31C62 48.1208 48.1208 62 31 62C13.8792 62 0 48.1208 0 31C0 13.8792 13.8792 0 31 0C48.1208 0 62 13.8792 62 31Z" fill="#F23849"/>
<path d="M22.087 36.704C20.9965 36.704 20.0079 36.4696 19.1212 36.0008C18.2447 35.5218 17.5517 34.8644 17.0421 34.0287C16.5427 33.1828 16.293 32.2298 16.293 31.1699C16.293 30.1099 16.5427 29.1621 17.0421 28.3264C17.5517 27.4805 18.2447 26.8231 19.1212 26.3543C20.0079 25.8752 21.0016 25.6357 22.1023 25.6357C23.0297 25.6357 23.8655 25.7988 24.6095 26.1249C25.3637 26.4511 25.9955 26.9199 26.5051 27.5314L24.9152 28.999C24.1916 28.1633 23.2947 27.7454 22.2246 27.7454C21.5621 27.7454 20.971 27.8932 20.4512 28.1888C19.9314 28.4742 19.5238 28.8767 19.2282 29.3965C18.9428 29.9163 18.8001 30.5074 18.8001 31.1699C18.8001 31.8323 18.9428 32.4235 19.2282 32.9433C19.5238 33.463 19.9314 33.8707 20.4512 34.1663C20.971 34.4516 21.5621 34.5943 22.2246 34.5943C23.2947 34.5943 24.1916 34.1714 24.9152 33.3254L26.5051 34.7931C25.9955 35.4148 25.3637 35.8887 24.6095 36.2148C23.8553 36.5409 23.0144 36.704 22.087 36.704Z" fill="white"/>
<path d="M30.6543 27.8067V30.635H35.6075V32.6223H30.6543V36.5207H28.1777V25.8193H36.2649V27.8067H30.6543Z" fill="white"/>
<path d="M45.7951 25.8193V27.4245L41.8203 36.5207H39.1297L42.9669 27.8373H39.4202V29.5801H37.2188V25.8193H45.7951Z" fill="white"/>
</svg>
