<svg width="240" height="48" viewBox="0 0 240 48" fill="none" xmlns="http://www.w3.org/2000/svg">
<path d="M73.7239 36.4706H83.9159C92.1292 36.4706 97.8039 30.7586 97.8039 23.4039C97.8039 15.9746 92.1292 10.3372 83.9159 10.3372H73.7239V36.4706ZM79.4732 31.2812V15.5266H83.9159C88.6199 15.5266 91.7932 18.7746 91.7932 23.4039C91.7932 28.1079 88.6199 31.2812 83.9159 31.2812H79.4732ZM108.788 36.4706H114.538V10.3372H108.788V36.4706ZM124.429 36.4706H130.29L132.679 30.6092H143.73L146.119 36.4706H152.13L140.93 10.1506H135.629L124.429 36.4706ZM134.733 25.5319L138.205 17.0572L141.677 25.5319H134.733ZM161.763 36.4706H167.401V19.5212L174.681 30.5719H174.83L182.185 19.4092V36.4706H187.897V10.3372H181.699L174.83 21.3879L167.961 10.3372H161.763V36.4706ZM212.468 36.9186C220.532 36.9186 226.394 30.8332 226.394 23.4039C226.394 15.8999 220.607 9.88925 212.543 9.88925C204.479 9.88925 198.618 15.9746 198.618 23.4039C198.618 30.9079 204.404 36.9186 212.468 36.9186ZM212.543 31.6172C207.914 31.6172 204.628 27.8839 204.628 23.4039C204.628 18.8492 207.839 15.1906 212.468 15.1906C217.098 15.1906 220.383 18.9239 220.383 23.4039C220.383 27.9586 217.172 31.6172 212.543 31.6172Z" fill="white"/>
<path fill-rule="evenodd" clip-rule="evenodd" d="M0 0H19.5475C28.6449 0 36.4981 5.32685 40.1583 13.0316H0V0ZM0 16.2896H41.4085C42.023 18.3541 42.3529 20.5413 42.3529 22.8054C42.3529 25.0696 42.023 27.2567 41.4085 29.3213H0V16.2896ZM0 32.5792V45.6109H19.5475C28.6449 45.6109 36.4981 40.284 40.1583 32.5792H0Z" fill="white"/>
</svg>
