<svg width="62" height="62" viewBox="0 0 62 62" fill="none" xmlns="http://www.w3.org/2000/svg">
<circle cx="31" cy="31" r="31" fill="url(#paint0_linear)"/>
<path d="M42.4089 43.3057C42.8806 43.3057 43.2631 42.9169 43.2631 42.4373V19.6032C43.2631 19.1234 42.8806 18.7347 42.4089 18.7347H19.5201C19.0486 18.7347 18.6664 19.1234 18.6664 19.6032V42.4373C18.6664 42.9169 19.0486 43.3057 19.5201 43.3057H42.4089ZM42.4089 45H19.5201C18.1304 45 17 43.8504 17 42.4373V19.6032C17 18.1898 18.1306 17.0405 19.5201 17.0405H42.4089C43.7988 17.0405 44.9294 18.1901 44.9294 19.6032V42.4373C44.9294 43.8504 43.7988 45 42.4089 45Z" fill="white"/>
<path d="M40.8907 21.2893C40.8907 20.7497 40.4602 20.312 39.9298 20.312H22.0004C21.4696 20.312 21.0391 20.7497 21.0391 21.2893V23.624C21.0391 24.1634 21.4696 24.6011 22.0004 24.6011H39.9296C40.4601 24.6011 40.8906 24.1634 40.8906 23.624V21.2893H40.8907Z" fill="white"/>
<path d="M40.8907 38.1298C40.8907 37.59 40.4602 37.1523 39.9298 37.1523H22.0004C21.4696 37.1523 21.0391 37.59 21.0391 38.1298V40.4649C21.0391 41.0045 21.4696 41.4424 22.0004 41.4424H39.9296C40.4601 41.4424 40.8906 41.0048 40.8906 40.4649V38.1298H40.8907Z" fill="white"/>
<defs>
<linearGradient id="paint0_linear" x1="0.000136322" y1="31.0004" x2="61.9999" y2="31.0004" gradientUnits="userSpaceOnUse">
<stop stop-color="#1488CC"/>
<stop offset="1" stop-color="#2B32B2"/>
</linearGradient>
</defs>
</svg>
