<svg width="16" height="18" viewBox="0 0 16 18" fill="none" xmlns="http://www.w3.org/2000/svg">
<path d="M15.7143 1.2H13.7143V0.3C13.7143 0.1341 13.5866 0 13.4286 0H11.4286C11.2706 0 11.1429 0.1341 11.1429 0.3V1.2H4.85714V0.3C4.85714 0.1341 4.72943 0 4.57143 0H2.57143C2.41343 0 2.28571 0.1341 2.28571 0.3V1.2H0.285714C0.127714 1.2 0 1.3341 0 1.5V17.7C0 17.8659 0.127714 18 0.285714 18H15.7143C15.8723 18 16 17.8659 16 17.7V1.5C16 1.3341 15.8723 1.2 15.7143 1.2ZM11.7143 0.6H13.1429V2.4H11.7143V0.6ZM2.85714 0.6H4.28571V2.4H2.85714V0.6ZM0.571429 1.8H2.28571V2.7C2.28571 2.8659 2.41343 3 2.57143 3H4.57143C4.72943 3 4.85714 2.8659 4.85714 2.7V1.8H11.1429V2.7C11.1429 2.8659 11.2706 3 11.4286 3H13.4286C13.5866 3 13.7143 2.8659 13.7143 2.7V1.8H15.4286V4.5H0.571429V1.8ZM0.571429 17.4V5.1H15.4286V17.4H0.571429Z" fill="#CDCCB4"/>
<path d="M2.57143 6.9V15.6H13.4286V6.9H2.57143ZM8.28572 7.5H10.2857V9.6H8.28572V7.5ZM10.2857 12.3H8.28572V10.2H10.2857V12.3ZM5.71429 10.2H7.71429V12.3H5.71429V10.2ZM5.71429 7.5H7.71429V9.6H5.71429V7.5ZM3.14286 7.5H5.14286V9.6H3.14286V7.5ZM3.14286 10.2H5.14286V12.3H3.14286V10.2ZM5.14286 15H3.14286V12.9H5.14286V15ZM7.71429 15H5.71429V12.9H7.71429V15ZM10.2857 15H8.28572V12.9H10.2857V15ZM12.8571 15H10.8571V12.9H12.8571V15ZM12.8571 12.3H10.8571V10.2H12.8571V12.3ZM12.8571 7.5V9.6H10.8571V7.5H12.8571Z" fill="#CDCCB4"/>
</svg>
