<svg width="21" height="57" viewBox="0 0 21 57" fill="none" xmlns="http://www.w3.org/2000/svg">
<path d="M1.12442 2.21833L1.12442 1.41803L6.40747 1.41803L6.40747 2.21833L4.22679 2.21833L4.22679 2.58884C4.22675 2.7543 4.23946 2.9195 4.2648 3.08285C4.2916 3.25647 4.3479 3.42375 4.43108 3.57686L6.40747 4.96996L6.40747 5.93328L3.91798 4.13015L2.4927 5.11817C2.37871 5.19051 2.27345 5.27675 2.17913 5.37505C2.10997 5.4444 2.04933 5.52239 1.9986 5.60724C1.95886 5.67435 1.92998 5.74778 1.91308 5.8246L1.91308 6.0222L1.91308 6.20005L1.12917 6.20005L1.12917 5.91352C1.12169 5.79179 1.12169 5.66969 1.12917 5.54795C1.1429 5.42847 1.17837 5.31279 1.23369 5.20709C1.29802 5.07754 1.38137 4.9592 1.48075 4.85634C1.62533 4.71623 1.78471 4.59359 1.95584 4.49077L3.57591 3.43854C3.52512 3.31193 3.49 3.17913 3.47139 3.04333C3.45245 2.91085 3.44293 2.77711 3.44289 2.64318L3.44289 2.17881L1.12442 2.21833Z" fill="#231F20" stroke="#231F20" stroke-width="0.7" stroke-miterlimit="10"/>
<path d="M3.75647 13.4819C3.38126 13.4838 3.01011 13.4013 2.66851 13.2399C2.33896 13.0861 2.04188 12.8662 1.79434 12.5927C1.54685 12.318 1.35034 11.9981 1.21472 11.6491C1.00159 11.1069 0.945594 10.5117 1.05364 9.93674C1.16169 9.36182 1.42907 8.83231 1.82284 8.41338C2.08315 8.14838 2.38946 7.93716 2.72552 7.79093C3.07887 7.63625 3.45861 7.55728 3.84199 7.55874C4.21414 7.55683 4.58221 7.63944 4.92046 7.80081C5.24711 7.95475 5.54104 8.17474 5.78513 8.44796C6.28474 9.01388 6.5612 9.75459 6.55953 10.5228C6.56268 10.9175 6.48999 11.3088 6.34574 11.6738C6.20853 12.024 6.00679 12.3428 5.75187 12.6125C5.49651 12.8806 5.19518 13.0967 4.86344 13.2497C4.51378 13.4056 4.13691 13.4847 3.75647 13.4819ZM3.80399 12.6767C4.07734 12.6791 4.34796 12.6201 4.59739 12.5038C4.83554 12.3919 5.05023 12.2324 5.22927 12.0345C5.40629 11.8329 5.54494 11.5982 5.63785 11.3429C5.7343 11.0778 5.78263 10.7963 5.78038 10.5129C5.7834 10.2209 5.73344 9.931 5.6331 9.65828C5.54015 9.40218 5.39788 9.16852 5.21502 8.97161C5.02909 8.77789 4.80994 8.62207 4.56889 8.51218C4.30991 8.40093 4.03191 8.34547 3.75172 8.34916C3.48095 8.34705 3.21314 8.40781 2.96782 8.527C2.72793 8.64438 2.51431 8.81265 2.34069 9.02101C2.16273 9.22187 2.02396 9.45676 1.93211 9.71262C1.72601 10.2452 1.72601 10.84 1.93211 11.3725C2.13198 11.8842 2.51528 12.2952 3.00108 12.5186C3.25452 12.6312 3.52849 12.6852 3.80399 12.6767Z" fill="#231F20" stroke="#231F20" stroke-width="0.7" stroke-miterlimit="10"/>
<path d="M2.59721 18.0268L4.75414 16.1743L1.12443 16.1743L1.12443 15.3839L5.66158 15.3839L6.40747 14.7466L6.40747 15.784L3.81346 18.0268L6.40747 20.3042L6.40747 21.3416L5.66158 20.6994L1.12443 20.6994L1.12443 19.9139L4.75414 19.9139L2.59721 18.0268Z" fill="#231F20" stroke="#231F20" stroke-width="0.7" stroke-miterlimit="10"/>
<path d="M2.18392 27.912C2.18597 27.7004 2.17167 27.4889 2.14116 27.2796C2.10838 27.0969 2.04911 26.9203 1.96538 26.756L1.12446 26.756L1.12446 25.9705L1.96538 25.9705C2.06761 25.7977 2.13246 25.6039 2.15541 25.4024C2.17474 25.2071 2.18426 25.0109 2.18392 24.8145C2.18302 24.5177 2.23958 24.2237 2.3502 23.95C2.45533 23.6861 2.60678 23.4449 2.79679 23.2387C2.98376 23.0307 3.20812 22.8629 3.45717 22.7446C3.71169 22.6221 3.98912 22.5597 4.26958 22.5619C4.55164 22.559 4.83078 22.6214 5.08674 22.7446C5.33794 22.8615 5.56409 23.0295 5.75188 23.2387C5.94189 23.4449 6.09333 23.6862 6.19846 23.95C6.30909 24.2237 6.36564 24.5177 6.36475 24.8145L6.36475 25.9705L6.61655 25.9705L6.61655 26.756L6.36475 26.756L6.36475 27.912C6.36612 28.2025 6.3095 28.4902 6.19846 28.7567C6.0943 29.0168 5.94265 29.2533 5.75188 29.4533C5.35585 29.8568 4.82402 30.0837 4.26958 30.0856C3.99024 30.0865 3.71372 30.0276 3.45717 29.9127C3.20864 29.8052 2.98294 29.6477 2.79299 29.4493C2.60305 29.251 2.45258 29.0156 2.3502 28.7567C2.23916 28.4902 2.18254 28.2025 2.18392 27.912ZM2.96307 24.8145C2.96573 25.0275 2.95462 25.2404 2.92982 25.4518C2.90324 25.6354 2.84188 25.8117 2.74928 25.9705L5.59985 25.9705L5.59985 24.8145C5.60012 24.6312 5.56456 24.4497 5.49532 24.281C5.43075 24.1181 5.33544 23.9703 5.21502 23.8463C5.09133 23.7153 4.94331 23.6118 4.77996 23.5422C4.61662 23.4726 4.44135 23.4382 4.26483 23.4412C4.09018 23.4425 3.91746 23.4794 3.75648 23.5499C3.5986 23.617 3.45614 23.718 3.3384 23.8463C3.221 23.9718 3.1275 24.1193 3.06284 24.281C2.99308 24.4493 2.95905 24.6313 2.96307 24.8145ZM2.96307 27.912C2.96054 28.0956 2.9962 28.2776 3.06759 28.4455C3.13342 28.6065 3.22678 28.7538 3.34315 28.8802C3.46343 29.0054 3.60525 29.1059 3.76123 29.1767C3.92251 29.2455 4.09523 29.2808 4.26958 29.2804C4.4456 29.2822 4.62015 29.247 4.78268 29.1767C4.93735 29.1035 5.07877 29.0032 5.20077 28.8802C5.32014 28.7554 5.4153 28.6078 5.48107 28.4455C5.55031 28.2769 5.58587 28.0954 5.58559 27.912L5.58559 26.756L2.73503 26.756C2.83423 26.9241 2.89592 27.1131 2.91557 27.3093C2.94351 27.509 2.95938 27.7102 2.96307 27.912Z" fill="#231F20" stroke="#231F20" stroke-width="0.7" stroke-miterlimit="10"/>
<path d="M3.7565 37.6094C3.38162 37.613 3.01045 37.5321 2.66853 37.3722C2.34068 37.2179 2.04526 36.998 1.79911 36.7251C1.55162 36.4504 1.35511 36.1305 1.21949 35.7815C1.00636 35.2393 0.950371 34.644 1.05842 34.0691C1.16647 33.4942 1.43384 32.9647 1.82761 32.5458C2.08774 32.2793 2.39402 32.0664 2.7303 31.9184C3.08454 31.7673 3.46388 31.6901 3.84676 31.6911C4.21916 31.6868 4.58773 31.7695 4.92523 31.9332C5.25189 32.0871 5.54581 32.3071 5.7899 32.5803C6.03511 32.8568 6.22847 33.1785 6.36002 33.5288C6.63862 34.2603 6.63862 35.0747 6.36002 35.8062C6.0832 36.5118 5.55085 37.076 4.87772 37.3772C4.52439 37.5375 4.14195 37.6167 3.7565 37.6094ZM3.80401 36.8091C4.07736 36.8114 4.34798 36.7525 4.59741 36.6362C5.07816 36.4074 5.45224 35.99 5.63787 35.4752C5.831 34.9317 5.831 34.3342 5.63787 33.7907C5.54492 33.5346 5.40265 33.3009 5.21979 33.104C5.03514 32.9087 4.81567 32.7526 4.57366 32.6446C4.31468 32.5333 4.03668 32.4778 3.7565 32.4815C3.48607 32.4777 3.21824 32.5368 2.97259 32.6544C2.73348 32.7732 2.52011 32.9412 2.34546 33.1484C1.99554 33.5644 1.80157 34.0976 1.79911 34.6502C1.79807 35.2168 2.00741 35.7618 2.38347 36.1718C2.56787 36.3664 2.78533 36.5239 3.02485 36.6362C3.26991 36.7504 3.53546 36.8093 3.80401 36.8091Z" fill="#231F20" stroke="#231F20" stroke-width="0.7" stroke-miterlimit="10"/>
<path d="M1.12441 39.4619L6.40745 39.4619L6.40745 42.2876C6.40833 42.5128 6.373 42.7365 6.30293 42.9496C6.23659 43.1337 6.13474 43.3019 6.00363 43.4436C5.87058 43.5865 5.70816 43.6963 5.52853 43.7647C5.11962 43.9146 4.6737 43.9146 4.26478 43.7647C4.08572 43.6928 3.92367 43.5816 3.78969 43.4386C3.65371 43.3 3.54974 43.1311 3.48563 42.9446C3.41129 42.7343 3.37427 42.5117 3.37636 42.2876L3.37636 41.2996C3.37628 41.1208 3.36197 40.9424 3.33359 40.7661C3.30224 40.5937 3.2462 40.4271 3.16732 40.272L1.13391 40.272L1.12441 39.4619ZM4.14601 42.2827C4.12991 42.3903 4.13796 42.5003 4.16954 42.6042C4.20112 42.7081 4.25537 42.8029 4.32805 42.8814C4.40074 42.9598 4.48988 43.0197 4.58852 43.0564C4.68715 43.0931 4.79262 43.1056 4.89666 43.0928C4.99984 43.1048 5.10428 43.0923 5.20218 43.0564C5.30008 43.0205 5.38891 42.962 5.46202 42.8854C5.58333 42.7108 5.64214 42.4976 5.6283 42.2827L5.6283 40.2671L3.93222 40.2671C4.02226 40.4182 4.08355 40.5859 4.11275 40.7611C4.13566 40.9379 4.14677 41.1162 4.14601 41.2946L4.14601 42.2827Z" fill="#231F20" stroke="#231F20" stroke-width="0.7" stroke-miterlimit="10"/>
<path d="M5.62832 48.0379L1.12443 48.0379L1.12443 47.2623L5.62832 47.2623L5.62832 45.2862L6.40747 45.2862L6.40747 49.9596L5.62832 49.9596L5.62832 48.0379Z" fill="#231F20" stroke="#231F20" stroke-width="0.7" stroke-miterlimit="10"/>
<path d="M6.4978 52.4346L6.4978 53.3189L1.12449 55.9618L1.12449 55.0627L1.89414 54.707L1.89414 53.0373C1.89704 52.814 1.88115 52.5908 1.84663 52.3704C1.81914 52.2018 1.77618 52.0364 1.71836 51.8764C1.67508 51.7589 1.61761 51.6477 1.54732 51.5454C1.50159 51.4764 1.44152 51.419 1.37154 51.3774L1.12449 51.2391L1.12449 50.3597L5.84693 52.7359L6.4978 52.4346ZM2.69705 54.3415L4.92999 53.141L2.40249 51.9258C2.50164 52.0752 2.57258 52.2428 2.61154 52.4198C2.67633 52.7195 2.70505 53.0265 2.69705 53.3337L2.69705 54.3415Z" fill="#231F20" stroke="#231F20" stroke-width="0.7" stroke-miterlimit="10"/>
<path d="M19.2493 1.7097C19.5059 1.97647 19.7244 2.24323 19.9524 2.50999C20.169 2.78036 20.3555 3.07535 20.5083 3.38933C20.6746 3.72983 20.7961 4.09207 20.8694 4.46628C20.9606 4.92776 21.0037 5.39816 20.9977 5.86926C21.0188 6.54707 20.8972 7.22149 20.6413 7.8453C20.4378 8.32695 20.1401 8.75931 19.7672 9.11491C19.4461 9.41878 19.0674 9.64934 18.6554 9.7917C18.3112 9.91587 17.9507 9.98418 17.5865 9.99424C17.1615 10.01 16.7383 9.92905 16.3465 9.75712C16.0012 9.57365 15.708 9.29946 15.4961 8.96176C15.2402 9.43565 14.8805 9.84015 14.4461 10.1424C13.9633 10.442 13.4067 10.5879 12.845 10.5624C12.4025 10.5632 11.9638 10.476 11.5528 10.3055C11.124 10.1292 10.7414 9.84986 10.4363 9.49035C10.0834 9.06778 9.81965 8.57302 9.66191 8.03796C9.33346 6.88277 9.28289 5.66137 9.51463 4.4811C9.60995 4.01076 9.74345 3.54968 9.91371 3.10281C10.0816 2.66366 10.2917 2.24327 10.5408 1.84802C10.7754 1.47359 11.0548 1.13164 11.3722 0.830364L12.7263 1.84802C12.4517 2.06296 12.2112 2.32134 12.0136 2.61374C11.7973 2.9213 11.6141 3.25262 11.4673 3.60176C11.3143 3.95977 11.1996 4.33416 11.1252 4.71822C11.047 5.09318 11.0072 5.4757 11.0064 5.85938C10.9967 6.33881 11.0495 6.8174 11.1632 7.28213C11.241 7.61516 11.378 7.93014 11.567 8.21087C11.717 8.42773 11.9206 8.59842 12.1562 8.70488C12.3835 8.80968 12.6296 8.86354 12.8783 8.86296C13.1573 8.87446 13.4339 8.80428 13.6764 8.66042C13.8738 8.52912 14.037 8.34927 14.1515 8.13677C14.2748 7.90968 14.3599 7.66244 14.4033 7.40563C14.4524 7.13356 14.4778 6.85745 14.4794 6.58064L14.4794 4.69846L16.1042 4.69846L16.1042 6.60534C16.0823 7.0559 16.2173 7.49959 16.4843 7.85518C16.6312 8.01697 16.8112 8.14227 17.0111 8.22181C17.211 8.30134 17.4255 8.33306 17.6387 8.31461C17.919 8.323 18.1947 8.24009 18.4274 8.07749C18.646 7.91854 18.8277 7.71097 18.9595 7.46985C19.1011 7.22105 19.2053 6.95116 19.2683 6.66956C19.3275 6.40711 19.3593 6.1388 19.3633 5.86926C19.3695 5.53742 19.3392 5.20594 19.2731 4.88124C19.2192 4.60936 19.133 4.34551 19.0165 4.09577C18.9036 3.85474 18.765 3.6277 18.6032 3.41897C18.4224 3.18992 18.2306 2.97062 18.0283 2.76194L19.2493 1.7097Z" fill="#231F20"/>
<path d="M15.135 26.3163C14.3492 26.3273 13.5707 26.1586 12.8545 25.8223C12.1667 25.5025 11.5466 25.0441 11.0301 24.4736C10.5108 23.8997 10.0999 23.2294 9.81866 22.4976C9.21398 20.9553 9.21398 19.2282 9.81866 17.6859C10.411 16.207 11.5415 15.0315 12.9638 14.4156C13.7017 14.0903 14.495 13.9223 15.2965 13.9216C16.0743 13.914 16.8444 14.0826 17.5532 14.4156C18.2373 14.7391 18.8526 15.2009 19.3633 15.7741C20.4276 16.9588 21.0132 18.5235 20.9991 20.1446C20.9849 21.7657 20.3721 23.3191 19.2873 24.4835C18.7559 25.0451 18.1251 25.4947 17.4297 25.8074C16.7073 26.1416 15.9256 26.3149 15.135 26.3163ZM15.23 24.6366C15.8026 24.6408 16.3695 24.5179 16.8928 24.276C17.3902 24.0408 17.8376 23.7049 18.2088 23.288C18.5807 22.8709 18.8711 22.3827 19.064 21.8504C19.2707 21.301 19.3771 20.7163 19.3776 20.1263C19.3818 19.5155 19.2771 18.9091 19.0687 18.338C18.8728 17.8025 18.5743 17.314 18.1912 16.9022C17.8082 16.4903 17.3487 16.1636 16.8406 15.9421C16.3004 15.7078 15.7202 15.5902 15.135 15.5963C14.5659 15.5915 14.0028 15.718 13.4864 15.9668C12.9907 16.2002 12.5461 16.5364 12.1799 16.9548C11.8123 17.3799 11.521 17.8701 11.32 18.4022C10.9023 19.514 10.9023 20.7485 11.32 21.8603C11.5278 22.392 11.8328 22.8768 12.2179 23.288C12.5989 23.702 13.0519 24.0372 13.5529 24.276C14.081 24.5186 14.6527 24.6416 15.23 24.6366Z" fill="#231F20"/>
<path d="M9.62392 32.1358L9.62392 30.4561L20.6699 30.4561L20.6699 32.1358L16.1422 32.1358C16.2476 32.365 16.3243 32.6074 16.3703 32.857C16.4136 33.1015 16.4358 33.3495 16.4368 33.598C16.4368 33.7611 16.4368 33.9982 16.3845 34.3144L16.2752 35.3271L16.1612 36.4139C16.128 36.7745 16.109 37.0808 16.109 37.3377C16.1122 37.5958 16.1328 37.8533 16.1707 38.1084C16.2081 38.38 16.2834 38.6446 16.394 38.8938L20.6699 38.8938L20.6699 40.5735L9.62392 40.5735L9.62392 38.8988L14.7644 38.8988C14.6538 38.6496 14.5786 38.385 14.5411 38.1133C14.5047 37.8598 14.4856 37.6039 14.4841 37.3476C14.4841 37.0907 14.4841 36.7844 14.5316 36.4238L14.6457 35.3419L14.7549 34.3539C14.7882 34.0427 14.8072 33.8006 14.8072 33.6376C14.8063 33.3906 14.784 33.1443 14.7407 32.9015C14.6964 32.6514 14.6197 32.4088 14.5126 32.1802L9.62392 32.1358Z" fill="#231F20"/>
<path d="M20.8647 48.443L20.8647 50.2906L9.62392 55.8186L9.62392 53.9364L11.2392 53.1806L11.2392 49.6879C11.2444 49.2212 11.2095 48.755 11.1347 48.2948C11.0777 47.9394 10.9886 47.5904 10.8687 47.2524C10.7799 47.0065 10.6601 46.7739 10.5123 46.5608C10.4159 46.4163 10.2892 46.2964 10.1418 46.2101L9.62392 45.9137L9.62392 44.1007L19.5011 49.0704L20.8647 48.443ZM12.8688 52.4297L17.5342 49.9201L12.2512 47.3759C12.4615 47.681 12.6102 48.0272 12.6883 48.3936C12.8277 49.0201 12.89 49.6626 12.8736 50.3054L12.8688 52.4297Z" fill="#231F20"/>
</svg>
