<svg width="140" height="28" viewBox="0 0 140 28" fill="none" xmlns="http://www.w3.org/2000/svg">
<path fill-rule="evenodd" clip-rule="evenodd" d="M6.31169 23.1162C6.09136 23.5061 5.75281 23.8183 5.34353 24.0088C4.93425 24.1993 4.47478 24.2586 4.0296 24.1784C2.67525 23.7776 2.21476 21.6999 1.55113 19.8894C0.833323 17.9387 0.196778 16.2217 0.007168 15.4735C-0.0740933 14.8856 0.548909 14.1374 1.199 14.8522C2.32311 17.0635 3.72487 21.0118 4.48331 21.2924C4.88284 21.4527 5.57356 19.4084 6.12885 18.3596C7.68635 15.6873 9.7382 9.00664 12.9006 10.2092C15.2233 11.0843 17.2684 16.3086 18.7243 19.5621C19.4896 20.5842 19.8417 22.6886 21.3586 22.6285C22.1509 22.6285 22.6046 21.6865 23.4578 20.0765C24.9205 17.2973 27.4058 12.3804 30.2296 7.06925C31.909 4.1164 33.6967 -0.65358 36.27 0.0746109C38.3015 0.649147 38.7146 2.2191 38.2 3.84918L32.9315 12.9015L27.2906 22.5283C24.7106 27.4653 20.2683 30.7388 17.133 24.8264C15.3731 21.8859 13.8885 18.7934 12.6975 15.5871C11.8916 13.7766 10.93 14.0772 9.77206 16.5758C8.60054 18.7604 7.60509 21.0184 6.31169 23.1162Z" fill="white"/>
<path fill-rule="evenodd" clip-rule="evenodd" d="M56.2941 20.571V10.677C56.2941 10.5671 56.2499 10.4618 56.1712 10.3841C56.0924 10.3064 55.9856 10.2628 55.8743 10.2628H54.933C54.6757 10.2628 54.5606 10.3229 54.4725 10.51L52.0889 15.4002C52.0279 15.5271 51.9873 15.5539 51.9128 15.5539C51.8383 15.5539 51.7977 15.5539 51.7435 15.4002L49.3395 10.51C49.2583 10.3229 49.1431 10.2628 48.879 10.2628H47.9852C47.9303 10.2628 47.8761 10.2735 47.8255 10.2944C47.7749 10.3153 47.7291 10.3459 47.6907 10.3845C47.6522 10.423 47.6219 10.4688 47.6016 10.519C47.5812 10.5692 47.5712 10.6229 47.5721 10.677V20.571C47.5712 20.6084 47.5779 20.6456 47.5918 20.6804C47.6056 20.7153 47.6265 20.747 47.653 20.7738C47.6795 20.8005 47.7111 20.8218 47.7461 20.8363C47.781 20.8508 47.8186 20.8583 47.8565 20.8583H48.5337C48.5716 20.8583 48.6091 20.8508 48.6441 20.8363C48.6791 20.8218 48.7107 20.8005 48.7372 20.7738C48.7637 20.747 48.7845 20.7153 48.7984 20.6804C48.8123 20.6456 48.819 20.6084 48.8181 20.571V12.0732L50.8496 16.2887C50.8945 16.4257 50.9872 16.5425 51.1112 16.6183C51.2352 16.6942 51.3825 16.7241 51.5268 16.7029H52.204C52.3483 16.7241 52.4955 16.6942 52.6195 16.6183C52.7436 16.5425 52.8363 16.4257 52.8812 16.2887L54.9465 12.0732C54.9465 12.0732 54.9465 12.0732 54.9465 12.12V20.571C54.9465 20.6088 54.9541 20.6461 54.9687 20.681C54.9833 20.7158 55.0048 20.7475 55.0318 20.7742C55.0589 20.8008 55.091 20.822 55.1263 20.8364C55.1616 20.8509 55.1995 20.8583 55.2377 20.8583H55.9149C55.9921 20.8583 56.0662 20.828 56.1208 20.7742C56.1754 20.7203 56.2061 20.6472 56.2061 20.571H56.2941ZM63.9259 20.571V15.6006C63.9259 13.9171 63.1133 12.9284 61.1089 12.9284C60.3575 12.9231 59.6072 12.9858 58.8674 13.1154C58.6643 13.1154 58.5627 13.229 58.5627 13.3893V13.8837C58.5627 14.0708 58.6913 14.1108 58.82 14.1108H58.8945C59.6302 14.0365 60.3693 13.9986 61.1089 13.9973C62.233 13.9973 62.6528 14.4115 62.6528 15.614V16.1818H61.5829C59.0096 16.1818 58.1022 16.9501 58.1022 18.4933V18.6604C58.1022 20.4441 59.2263 20.9719 60.452 20.9719C61.2454 20.9418 62.0156 20.6993 62.6799 20.2704V20.5844C62.6799 20.6221 62.6874 20.6595 62.7021 20.6943C62.7167 20.7292 62.7382 20.7608 62.7652 20.7875C62.7922 20.8142 62.8243 20.8354 62.8597 20.8498C62.895 20.8642 62.9329 20.8717 62.9711 20.8717H63.6483C63.7255 20.8717 63.7996 20.8414 63.8542 20.7875C63.9088 20.7336 63.9395 20.6606 63.9395 20.5844L63.9259 20.571ZM62.6528 19.3618C62.0628 19.7128 61.3912 19.9083 60.7025 19.9297C59.8629 19.9297 59.3482 19.6625 59.3482 18.6336V18.4599C59.3482 17.4512 59.8155 17.0637 61.5626 17.0637H62.6325V19.3618H62.6528ZM69.4585 13.7568V13.1755C69.4585 13.0018 69.3569 12.915 69.1537 12.915C68.4219 12.9197 67.7105 13.1537 67.1222 13.5831V13.2824C67.124 13.2459 67.1184 13.2094 67.1057 13.1751C67.093 13.1407 67.0734 13.1092 67.0482 13.0824C67.0229 13.0557 66.9925 13.0342 66.9587 13.0192C66.9249 13.0042 66.8884 12.996 66.8513 12.9952H66.1741C66.1365 12.9951 66.0993 13.0026 66.0647 13.0172C66.0301 13.0318 65.9988 13.0532 65.9729 13.0801C65.9469 13.1069 65.9268 13.1387 65.9136 13.1735C65.9005 13.2083 65.8947 13.2454 65.8965 13.2824V20.551C65.8956 20.5878 65.9021 20.6245 65.9155 20.6589C65.929 20.6933 65.9492 20.7247 65.975 20.7514C66.0008 20.778 66.0316 20.7994 66.0658 20.8144C66.1 20.8293 66.1368 20.8374 66.1741 20.8383H66.8513C66.928 20.8365 67.0011 20.8057 67.0553 20.7522C67.1096 20.6987 67.1408 20.6266 67.1425 20.551V14.5785C67.7337 14.1934 68.425 13.9846 69.1334 13.9772C69.3366 13.9772 69.4381 13.8971 69.4381 13.7367L69.4585 13.7568ZM76.5146 20.6712C76.5132 20.625 76.4965 20.5804 76.4672 20.5443L73.2574 16.723L76.4401 13.3292C76.4831 13.2887 76.5096 13.234 76.5146 13.1755C76.5146 13.0887 76.4401 13.0152 76.2979 13.0152H75.2822C75.2275 13.0084 75.172 13.0166 75.1218 13.039C75.0716 13.0614 75.0286 13.0971 74.9978 13.1421L72.1062 16.3555V10.4231C72.1062 10.3469 72.0755 10.2739 72.0209 10.22C71.9663 10.1661 71.8923 10.1359 71.815 10.1359H71.1379C71.0606 10.1359 70.9866 10.1661 70.9319 10.22C70.8773 10.2739 70.8467 10.3469 70.8467 10.4231V20.571C70.8467 20.6472 70.8773 20.7203 70.9319 20.7742C70.9866 20.828 71.0606 20.8583 71.1379 20.8583H71.815C71.8923 20.8583 71.9663 20.828 72.0209 20.7742C72.0755 20.7203 72.1062 20.6472 72.1062 20.571V17.1639L74.9774 20.6712C75.0926 20.8182 75.1535 20.8583 75.3093 20.8583H76.3521C76.3756 20.8575 76.3987 20.852 76.4198 20.8419C76.441 20.8319 76.4598 20.8176 76.4751 20.8001C76.4904 20.7825 76.5018 20.7619 76.5086 20.7397C76.5154 20.7176 76.5175 20.6942 76.5146 20.6712ZM83.625 17.0236V16.2553C83.625 14.2511 82.5551 12.915 80.4423 12.915C78.3295 12.915 77.2324 14.211 77.2324 16.2553V17.538C77.2324 20.2103 78.8509 20.9585 80.5167 20.9585C81.3849 20.9614 82.2513 20.8808 83.1036 20.718C83.3338 20.6712 83.388 20.571 83.388 20.3906V19.903C83.3882 19.8742 83.3822 19.8458 83.3704 19.8195C83.3585 19.7933 83.3411 19.7699 83.3193 19.7509C83.2974 19.7319 83.2717 19.7177 83.2438 19.7094C83.216 19.701 83.1866 19.6987 83.1577 19.7025H83.09C82.2367 19.8112 81.3771 19.8648 80.5167 19.8629C79.1624 19.8629 78.4852 19.2349 78.4852 17.538V17.3376H83.327C83.5031 17.3376 83.6047 17.2107 83.6047 17.0236H83.625ZM82.3384 16.3555H78.5055V16.2286C78.5055 14.6854 79.1827 13.9906 80.4423 13.9906C81.7018 13.9906 82.3384 14.6186 82.3384 16.2286V16.3555ZM89.144 20.6178V20.1167C89.144 19.9764 89.0424 19.9163 88.8393 19.9163H88.0334C87.451 19.9163 87.2479 19.8027 87.2479 19.0211V14.044H88.8122C88.8501 14.044 88.8876 14.0366 88.9226 14.0221C88.9576 14.0075 88.9892 13.9863 89.0157 13.9595C89.0422 13.9327 89.063 13.901 89.0769 13.8662C89.0908 13.8314 89.0975 13.7942 89.0966 13.7568V13.2758C89.0975 13.2384 89.0908 13.2011 89.0769 13.1663C89.063 13.1315 89.0422 13.0998 89.0157 13.073C88.9892 13.0463 88.9576 13.025 88.9226 13.0105C88.8876 12.9959 88.8501 12.9885 88.8122 12.9885H87.2614V11.4386C87.2642 11.4082 87.2608 11.3776 87.2513 11.3486C87.2418 11.3195 87.2265 11.2927 87.2063 11.2696C87.1861 11.2465 87.1613 11.2277 87.1336 11.2143C87.1058 11.2009 87.0756 11.1931 87.0447 11.1914H87.0041L86.2524 11.305C86.1818 11.3146 86.117 11.3488 86.0698 11.4015C86.0226 11.4542 85.9961 11.5219 85.9951 11.5922V12.9885H84.5527C84.5172 12.9866 84.4817 12.992 84.4485 13.0044C84.4152 13.0167 84.3849 13.0357 84.3594 13.0602C84.334 13.0847 84.314 13.1141 84.3006 13.1466C84.2873 13.1791 84.2809 13.214 84.2819 13.249V13.6365C84.2819 13.6713 84.2889 13.7057 84.3026 13.7378C84.3163 13.7698 84.3363 13.7989 84.3616 13.8231C84.3868 13.8474 84.4168 13.8665 84.4496 13.8792C84.4824 13.8919 84.5175 13.8979 84.5527 13.8971L85.9613 14.0507V19.0278C85.9613 20.5978 86.591 20.9385 87.9251 20.9385C88.238 20.9367 88.5503 20.9121 88.8596 20.865C89.0492 20.865 89.1237 20.7514 89.1237 20.6245L89.144 20.6178ZM91.9475 11.4519V10.3095C91.9475 10.2334 91.9168 10.1603 91.8622 10.1064C91.8076 10.0525 91.7336 10.0223 91.6563 10.0223H90.9182C90.8803 10.0223 90.8427 10.0297 90.8078 10.0443C90.7728 10.0588 90.7412 10.08 90.7147 10.1068C90.6881 10.1336 90.6673 10.1653 90.6535 10.2001C90.6396 10.2349 90.6329 10.2721 90.6338 10.3095V11.4519C90.6338 11.5264 90.6637 11.5977 90.7171 11.6503C90.7704 11.703 90.8428 11.7325 90.9182 11.7325H91.6563C91.6942 11.7334 91.7319 11.7268 91.7672 11.7131C91.8025 11.6994 91.8347 11.6789 91.8618 11.6527C91.889 11.6266 91.9105 11.5954 91.9252 11.5609C91.9399 11.5264 91.9475 11.4894 91.9475 11.4519ZM91.9475 13.3025C91.9475 13.2263 91.9168 13.1532 91.8622 13.0994C91.8076 13.0455 91.7336 13.0152 91.6563 13.0152H90.9791C90.9019 13.0152 90.8279 13.0455 90.7732 13.0994C90.7186 13.1532 90.688 13.2263 90.688 13.3025V20.571C90.688 20.6472 90.7186 20.7203 90.7732 20.7742C90.8279 20.828 90.9019 20.8583 90.9791 20.8583H91.6563C91.7336 20.8583 91.8076 20.828 91.8622 20.7742C91.9168 20.7203 91.9475 20.6472 91.9475 20.571V13.3025ZM100.168 20.5443V15.8678C100.168 13.9705 99.3897 12.9016 97.6561 12.9016C96.8406 12.9089 96.0433 13.1403 95.3537 13.5697V13.3025C95.3555 13.266 95.3499 13.2294 95.3372 13.1951C95.3245 13.1607 95.3049 13.1293 95.2797 13.1025C95.2544 13.0757 95.224 13.0542 95.1902 13.0392C95.1564 13.0242 95.1199 13.0161 95.0828 13.0152H94.3583C94.3212 13.0161 94.2847 13.0242 94.2509 13.0392C94.2171 13.0542 94.1867 13.0757 94.1614 13.1025C94.1362 13.1293 94.1166 13.1607 94.1039 13.1951C94.0912 13.2294 94.0856 13.266 94.0874 13.3025V20.571C94.0855 20.6443 94.1128 20.7154 94.1635 20.7691C94.2141 20.8228 94.284 20.8548 94.3583 20.8583H95.0693C95.1448 20.8549 95.2162 20.8234 95.269 20.77C95.3218 20.7167 95.3521 20.6456 95.3537 20.571V14.5584C95.9537 14.2313 96.6198 14.0396 97.304 13.9973C98.4078 13.9973 98.8953 14.4449 98.8953 15.8812V20.5577C98.8953 20.6339 98.926 20.7069 98.9806 20.7608C99.0352 20.8147 99.1093 20.8449 99.1865 20.8449H99.8637C99.9409 20.8449 100.015 20.8147 100.07 20.7608C100.124 20.7069 100.155 20.6339 100.155 20.5577L100.168 20.5443ZM108.708 13.6766V13.3025C108.704 13.218 108.668 13.1381 108.606 13.0796C108.544 13.0211 108.462 12.9884 108.376 12.9885H105.213C102.728 12.9885 102.004 14.2444 102.004 15.5138V15.6407C101.986 15.949 102.038 16.2572 102.155 16.5435C102.272 16.8298 102.452 17.0873 102.681 17.2975C102.499 17.4008 102.349 17.55 102.246 17.7297C102.142 17.9093 102.089 18.113 102.092 18.3196C102.081 18.5507 102.139 18.7798 102.26 18.9782C102.38 19.1767 102.557 19.3357 102.769 19.4353L102.87 19.4754C102.589 19.6891 102.36 19.9631 102.202 20.2767C102.044 20.5904 101.959 20.9355 101.956 21.2859V21.4195C101.956 22.8157 102.999 23.6842 105.281 23.6842C107.563 23.6842 108.579 22.8424 108.579 21.4729V21.3593C108.579 20.0232 107.225 19.6224 105.803 19.2616L103.649 18.7205C103.317 18.6336 103.202 18.5067 103.202 18.2662C103.203 18.1582 103.239 18.0533 103.303 17.966C103.367 17.8786 103.457 17.8131 103.561 17.7785C104.095 17.9884 104.667 18.0862 105.24 18.0658C107.468 18.0658 108.45 17.1973 108.45 15.6273V15.5138C108.471 15.2487 108.438 14.9822 108.353 14.7299C108.268 14.4776 108.133 14.2444 107.956 14.044L108.477 13.9438C108.633 13.9438 108.735 13.857 108.735 13.6766H108.708ZM107.137 15.6407C107.137 16.4958 106.744 17.0971 105.186 17.0971C103.52 17.0971 103.236 16.2687 103.236 15.6407V15.5271C103.236 14.7255 103.568 14.0039 105.186 14.0039C106.805 14.0039 107.137 14.672 107.137 15.5271V15.6407ZM107.252 21.4863C107.252 22.2679 106.879 22.7289 105.22 22.7289C103.561 22.7289 103.141 22.2278 103.141 21.4328V21.2992C103.124 21.0212 103.177 20.7435 103.295 20.4905C103.414 20.2376 103.593 20.0174 103.818 19.8495L105.45 20.2637C106.751 20.5911 107.211 20.8182 107.211 21.3727V21.4863H107.252ZM117.227 10.51C117.228 10.4743 117.221 10.4388 117.207 10.4059C117.194 10.3729 117.173 10.3431 117.147 10.3185C117.12 10.294 117.089 10.2751 117.055 10.2632C117.021 10.2513 116.985 10.2466 116.949 10.2494H110.001C109.965 10.2476 109.928 10.2529 109.894 10.2651C109.859 10.2772 109.828 10.2959 109.801 10.3201C109.774 10.3443 109.752 10.3735 109.736 10.4061C109.721 10.4387 109.712 10.474 109.71 10.51V11.138C109.71 11.2916 109.839 11.3651 110.001 11.3651H112.818V20.5577C112.814 20.6292 112.839 20.6994 112.887 20.7531C112.935 20.8068 113.003 20.8398 113.075 20.8449H113.875C113.911 20.8432 113.946 20.8344 113.979 20.819C114.012 20.8035 114.041 20.7817 114.065 20.755C114.089 20.7282 114.107 20.6969 114.119 20.663C114.13 20.6291 114.135 20.5933 114.132 20.5577V11.3785H116.949C117.111 11.3785 117.227 11.2916 117.227 11.1513V10.51ZM120.172 11.4653V10.3229C120.172 10.2852 120.165 10.2478 120.15 10.213C120.135 10.1781 120.114 10.1465 120.087 10.1198C120.06 10.0931 120.028 10.0719 119.992 10.0575C119.957 10.0431 119.919 10.0356 119.881 10.0356H119.15C119.072 10.0356 118.998 10.0659 118.944 10.1198C118.889 10.1737 118.859 10.2467 118.859 10.3229V11.4653C118.859 11.5027 118.866 11.5398 118.881 11.5742C118.896 11.6087 118.917 11.64 118.944 11.6661C118.971 11.6922 119.003 11.7128 119.039 11.7265C119.074 11.7402 119.112 11.7468 119.15 11.7459H119.881C119.919 11.7468 119.957 11.7402 119.992 11.7265C120.027 11.7128 120.059 11.6922 120.087 11.6661C120.114 11.64 120.135 11.6087 120.15 11.5742C120.165 11.5398 120.172 11.5027 120.172 11.4653ZM120.172 13.3025C120.172 13.2648 120.165 13.2274 120.15 13.1925C120.135 13.1577 120.114 13.126 120.087 13.0994C120.06 13.0727 120.028 13.0515 119.992 13.0371C119.957 13.0226 119.919 13.0152 119.881 13.0152H119.204C119.127 13.0152 119.053 13.0455 118.998 13.0994C118.943 13.1532 118.913 13.2263 118.913 13.3025V20.571C118.913 20.6472 118.943 20.7203 118.998 20.7742C119.053 20.828 119.127 20.8583 119.204 20.8583H119.881C119.919 20.8583 119.957 20.8509 119.992 20.8364C120.028 20.822 120.06 20.8008 120.087 20.7742C120.114 20.7475 120.135 20.7158 120.15 20.681C120.165 20.6461 120.172 20.6088 120.172 20.571V13.3025ZM131.874 20.5577V15.5138C131.874 13.5096 130.838 12.8883 129.538 12.8883C128.703 12.9109 127.883 13.1114 127.134 13.4762C126.956 13.2746 126.733 13.1165 126.483 13.0145C126.232 12.9125 125.961 12.8693 125.691 12.8883C124.938 12.916 124.207 13.1471 123.578 13.5563V13.2891C123.58 13.2526 123.575 13.2161 123.562 13.1817C123.549 13.1474 123.53 13.1159 123.504 13.0891C123.479 13.0623 123.449 13.0408 123.415 13.0258C123.381 13.0109 123.345 13.0027 123.308 13.0019H122.583C122.546 13.0027 122.509 13.0109 122.476 13.0258C122.442 13.0408 122.411 13.0623 122.386 13.0891C122.361 13.1159 122.341 13.1474 122.329 13.1817C122.316 13.2161 122.31 13.2526 122.312 13.2891V20.5577C122.308 20.5924 122.312 20.6276 122.322 20.661C122.332 20.6945 122.35 20.7255 122.372 20.7523C122.395 20.7791 122.423 20.8011 122.455 20.817C122.486 20.833 122.521 20.8424 122.556 20.8449H123.321C123.357 20.8432 123.393 20.8344 123.425 20.819C123.458 20.8035 123.487 20.7817 123.511 20.755C123.535 20.7282 123.554 20.6969 123.565 20.663C123.577 20.6291 123.581 20.5933 123.578 20.5577V14.5451C124.12 14.236 124.723 14.0447 125.346 13.9839C126.098 13.9839 126.456 14.2444 126.456 15.487V20.5577C126.453 20.5924 126.456 20.6276 126.466 20.661C126.477 20.6945 126.494 20.7255 126.517 20.7523C126.539 20.7791 126.567 20.8011 126.599 20.817C126.63 20.833 126.665 20.8424 126.7 20.8449H127.472C127.508 20.8432 127.544 20.8344 127.577 20.819C127.609 20.8035 127.638 20.7817 127.662 20.755C127.686 20.7282 127.705 20.6969 127.716 20.663C127.728 20.6291 127.732 20.5933 127.73 20.5577V15.487C127.737 15.1112 127.694 14.736 127.601 14.3714C128.136 14.1468 128.706 14.0157 129.287 13.9839C130.039 13.9839 130.608 14.3179 130.608 15.5138V20.5577C130.607 20.5951 130.613 20.6323 130.627 20.6671C130.641 20.7019 130.662 20.7336 130.688 20.7604C130.715 20.7872 130.747 20.8084 130.782 20.823C130.816 20.8375 130.854 20.8449 130.892 20.8449H131.569C131.607 20.8449 131.645 20.8375 131.68 20.823C131.715 20.8084 131.746 20.7872 131.773 20.7604C131.799 20.7336 131.82 20.7019 131.834 20.6671C131.848 20.6323 131.854 20.5951 131.854 20.5577H131.874ZM140 17.0102V16.242C140 14.2378 138.93 12.9016 136.817 12.9016C134.704 12.9016 133.607 14.1977 133.607 16.242V17.5247C133.607 20.1969 135.226 20.9451 136.892 20.9451C137.76 20.948 138.626 20.8674 139.479 20.7046C139.709 20.6579 139.77 20.5577 139.77 20.3773V19.8896C139.769 19.8606 139.762 19.832 139.75 19.8058C139.737 19.7795 139.719 19.7562 139.697 19.7373C139.674 19.7184 139.648 19.7043 139.62 19.6961C139.592 19.6878 139.562 19.6854 139.533 19.6892H139.404C138.551 19.7981 137.691 19.8516 136.831 19.8495C135.476 19.8495 134.799 19.2215 134.799 17.5247V17.3242H139.641C139.817 17.3242 139.919 17.1973 139.919 17.0102H140ZM138.713 16.3422H134.881V16.2152C134.881 14.672 135.558 13.9772 136.817 13.9772C138.077 13.9772 138.713 14.6052 138.713 16.2152V16.3422Z" fill="white"/>
</svg>
