<svg width="641" height="482" viewBox="0 0 641 482" fill="none" xmlns="http://www.w3.org/2000/svg">
<g filter="url(#filter0_d)">
<rect width="539.145" height="300.237" transform="matrix(1 -1.99913e-06 -1.86676e-05 1 51.0809 91.0101)" fill="#1C1D21"/>
</g>
<mask id="mask0" mask-type="alpha" maskUnits="userSpaceOnUse" x="51" y="91" width="540" height="301">
<rect width="539.145" height="300.237" transform="matrix(1 -1.99913e-06 -1.86676e-05 1 51.0809 91.0101)" fill="#1C1D21"/>
</mask>
<g mask="url(#mask0)">
<path opacity="0.7" d="M363.398 223.002L367.172 228.306L365.736 228.306L361.703 223.125L361.703 222.865L365.736 217.683L367.172 217.683L363.398 223.002ZM367.623 223.002L371.396 228.306L369.961 228.306L365.928 223.125L365.928 222.865L369.961 217.683L371.397 217.683L367.623 223.002ZM392.15 234.937L390.633 234.937L390.633 230.111L375.525 230.111L375.525 234.937L374.076 234.937L373.898 228.73L375.238 228.73C375.986 227.946 376.728 226.652 377.467 224.847C378.205 223.043 378.652 220.55 378.807 217.369L379.094 211.599L376.934 211.422L376.934 210.205L392.369 210.205L392.369 211.421L390.141 211.599L390.141 228.73L392.273 228.73L392.15 234.937ZM380.447 217.369C380.311 219.967 379.932 222.245 379.313 224.205C378.702 226.155 377.973 227.664 377.125 228.73L388.5 228.73L388.5 211.599L380.735 211.599L380.447 217.369ZM395.145 216.535L395.145 215.318L398.74 215.318L398.945 217.615C399.447 216.794 400.085 216.161 400.859 215.714C401.643 215.268 402.559 215.044 403.608 215.044C405.385 215.044 406.775 215.755 407.777 217.177C408.78 218.59 409.281 220.477 409.281 222.837L409.281 223.124C409.281 225.339 408.78 227.107 407.777 228.429C406.775 229.742 405.394 230.398 403.635 230.398C402.596 230.398 401.684 230.202 400.9 229.81C400.126 229.409 399.492 228.844 399 228.115L399 234.404L401.228 234.582L401.228 235.798L395.144 235.798L395.144 234.582L397.373 234.404L397.373 216.712L395.145 216.535ZM407.641 222.837C407.641 220.96 407.267 219.428 406.52 218.244C405.772 217.059 404.678 216.466 403.238 216.466C402.136 216.466 401.238 216.731 400.545 217.259C399.861 217.779 399.346 218.458 399 219.296L399 226.406C399.374 227.217 399.911 227.855 400.613 228.32C401.324 228.785 402.208 229.017 403.266 229.017C404.697 229.017 405.781 228.479 406.52 227.404C407.267 226.328 407.641 224.902 407.641 223.124L407.641 222.837ZM425.988 216.534L424.484 216.657L418.51 232.476C418.127 233.478 417.63 234.331 417.019 235.033C416.409 235.734 415.516 236.085 414.34 236.085C414.148 236.085 413.916 236.063 413.642 236.017C413.369 235.98 413.169 235.939 413.041 235.894L413.232 234.527C413.342 234.545 413.515 234.563 413.752 234.581C413.998 234.609 414.171 234.622 414.271 234.622C414.991 234.622 415.561 234.372 415.98 233.87C416.4 233.369 416.769 232.717 417.088 231.915L417.853 229.933L412.604 216.658L411.1 216.535L411.1 215.318L416.186 215.318L416.186 216.534L414.422 216.671L418.031 226.105L418.551 227.882L418.633 227.882L422.68 216.671L420.875 216.534L420.875 215.318L425.988 215.318L425.988 216.534ZM435.572 228.907L437.801 228.73L437.801 223.329L435.805 223.329L430.377 230.111L427.314 230.111L427.314 228.907L429.393 228.757L434.492 222.427L431.279 218.107C430.842 217.542 430.464 217.154 430.145 216.945C429.826 216.726 429.461 216.616 429.051 216.616C428.859 216.616 428.691 216.635 428.545 216.671C428.408 216.708 428.262 216.753 428.108 216.808L427.752 215.605C427.998 215.45 428.24 215.331 428.477 215.249C428.723 215.158 428.996 215.112 429.297 215.112C429.889 215.112 430.436 215.277 430.938 215.605C431.448 215.933 431.986 216.489 432.551 217.273L435.928 221.88L437.801 221.88L437.801 216.712L435.572 216.534L435.572 215.317L441.67 215.317L441.67 216.534L439.441 216.712L439.441 221.88L441.438 221.88L444.801 217.272C445.366 216.489 445.899 215.933 446.4 215.604C446.902 215.276 447.453 215.112 448.055 215.112C448.346 215.112 448.615 215.158 448.861 215.249C449.108 215.331 449.354 215.45 449.6 215.604L449.244 216.808C449.098 216.753 448.948 216.707 448.793 216.671C448.647 216.634 448.488 216.616 448.315 216.616C447.886 216.616 447.512 216.726 447.193 216.944C446.874 217.154 446.501 217.541 446.072 218.106L442.818 222.481L447.863 228.757L449.941 228.907L449.941 230.11L446.879 230.11L441.451 223.329L439.441 223.329L439.441 228.73L441.67 228.907L441.67 230.11L435.572 230.11L435.572 228.907ZM466.211 216.534L464.707 216.657L458.732 232.475C458.35 233.478 457.853 234.33 457.242 235.032C456.631 235.734 455.738 236.085 454.562 236.085C454.371 236.085 454.139 236.062 453.865 236.017C453.592 235.98 453.391 235.939 453.264 235.893L453.455 234.526C453.564 234.545 453.738 234.563 453.975 234.581C454.221 234.608 454.394 234.622 454.494 234.622C455.214 234.622 455.784 234.371 456.203 233.87C456.622 233.369 456.991 232.717 457.31 231.915L458.076 229.932L452.826 216.657L451.322 216.534L451.322 215.317L456.408 215.317L456.408 216.534L454.645 216.671L458.254 226.104L458.773 227.882L458.855 227.882L462.902 216.671L461.098 216.534L461.098 215.317L466.211 215.317L466.211 216.534ZM481.195 229.016C482.28 229.016 483.237 228.706 484.066 228.087C484.896 227.467 485.311 226.605 485.311 225.503L486.76 225.503L486.787 225.585C486.833 226.952 486.286 228.096 485.146 229.016C484.016 229.937 482.699 230.397 481.195 230.397C479.19 230.397 477.636 229.709 476.533 228.333C475.43 226.947 474.879 225.17 474.879 223.001L474.879 222.426C474.879 220.275 475.43 218.507 476.533 217.122C477.636 215.736 479.186 215.044 481.182 215.044C482.321 215.044 483.365 215.258 484.313 215.686C485.261 216.115 486.031 216.698 486.623 217.436L486.691 220.663L485.297 220.663L485.037 218.038C484.6 217.546 484.053 217.158 483.397 216.876C482.749 216.584 482.011 216.438 481.182 216.438C479.596 216.438 478.42 217.008 477.654 218.147C476.898 219.277 476.52 220.704 476.52 222.426L476.52 223.001C476.52 224.751 476.898 226.191 477.654 227.321C478.411 228.451 479.591 229.016 481.195 229.016ZM374.664 252.318L374.664 256.515L373.215 256.515L373.091 253.713L368.908 253.713L368.908 265.73L371.136 265.908L371.136 267.111L365.052 267.111L365.052 265.908L367.281 265.73L367.281 253.713L363.289 253.713L363.179 256.516L361.716 256.516L361.717 252.318L374.664 252.318ZM382.771 267.398C380.912 267.398 379.371 266.719 378.15 265.361C376.929 263.994 376.318 262.258 376.318 260.152L376.318 259.4C376.318 257.286 376.924 255.531 378.136 254.136C379.358 252.742 380.83 252.045 382.552 252.045C384.366 252.045 385.793 252.619 386.832 253.767C387.871 254.916 388.39 256.447 388.39 258.361L388.39 259.755L377.945 259.756L377.945 260.152C377.945 261.811 378.387 263.205 379.271 264.336C380.164 265.457 381.331 266.017 382.771 266.017C383.783 266.017 384.649 265.876 385.369 265.593C386.089 265.311 386.704 264.905 387.214 264.377L387.912 265.498C387.356 266.081 386.654 266.546 385.806 266.892C384.959 267.229 383.947 267.398 382.771 267.398ZM382.552 253.439C381.349 253.439 380.333 253.904 379.504 254.834C378.683 255.754 378.205 256.912 378.068 258.306L378.095 258.375L386.763 258.375L386.763 257.964C386.763 256.679 386.385 255.604 385.629 254.738C384.872 253.872 383.847 253.439 382.552 253.439ZM395.965 253.726L395.964 258.853C395.964 261.752 395.623 263.852 394.939 265.156C394.265 266.459 393.125 267.111 391.521 267.111L390.933 267.111L390.947 265.648L391.466 265.634C392.469 265.634 393.194 265.133 393.64 264.13C394.096 263.119 394.324 261.36 394.324 258.853L394.324 253.712L392.095 253.535L392.095 252.318L406.095 252.318L406.095 253.535L403.867 253.712L403.867 265.73L406.095 265.908L406.095 267.111L399.998 267.111L399.998 265.908L402.226 265.73L402.226 253.726L395.965 253.726ZM409.007 259.496C409.007 257.317 409.604 255.531 410.799 254.136C411.993 252.742 413.574 252.044 415.543 252.044C417.521 252.044 419.106 252.741 420.3 254.136C421.494 255.531 422.091 257.317 422.091 259.495L422.091 259.947C422.091 262.134 421.494 263.925 420.3 265.32C419.115 266.705 417.539 267.398 415.57 267.398C413.583 267.398 411.992 266.705 410.798 265.32C409.604 263.925 409.007 262.134 409.007 259.947L409.007 259.496ZM410.648 259.947C410.648 261.66 411.081 263.1 411.947 264.267C412.813 265.434 414.02 266.017 415.57 266.017C417.092 266.017 418.286 265.434 419.152 264.267C420.018 263.1 420.451 261.66 420.451 259.947L420.451 259.495C420.451 257.809 420.013 256.378 419.138 255.202C418.272 254.027 417.074 253.439 415.543 253.439C414.011 253.439 412.813 254.027 411.947 255.203C411.081 256.378 410.648 257.809 410.648 259.495L410.648 259.947ZM434.943 264.814L435.025 264.814L440.863 252.317L442.886 252.317L445.115 252.317L445.115 253.534L442.886 253.712L442.886 265.73L445.115 265.907L445.115 267.11L439.017 267.11L439.017 265.907L441.246 265.73L441.246 255.202L441.164 255.175L435.572 267.11L434.41 267.11L428.695 254.874L428.613 254.888L428.613 265.73L430.841 265.907L430.841 267.111L424.757 267.111L424.757 265.907L426.986 265.73L426.986 253.712L424.758 253.534L424.758 252.318L426.986 252.318L429.119 252.318L434.943 264.814ZM449.572 254.204L453.605 259.454L453.605 259.714L449.572 264.895L448.136 264.895L451.91 259.591L448.136 254.204L449.572 254.204ZM453.879 254.204L457.912 259.454L457.912 259.714L453.878 264.895L452.443 264.895L456.216 259.591L452.443 254.204L453.879 254.204Z" fill="white"/>
<rect width="68.677" height="68.677" transform="matrix(1 -1.03334e-05 -1.03334e-05 1 267.414 205.757)" fill="#1C1D21"/>
<path opacity="0.7" d="M277.146 258.359L283.958 257.512L283.958 224.483L277.025 224.605L277.025 220.881L289.922 218.096L289.921 257.512L296.703 258.359L296.703 262.174L277.146 262.174L277.146 258.359ZM301.97 262.174L301.97 258.087L316.411 242.042C318.994 239.156 320.74 236.865 321.648 235.17C322.577 233.474 323.041 231.739 323.041 229.963C323.041 227.763 322.395 225.916 321.103 224.422C319.812 222.909 318.106 222.152 315.987 222.152C312.94 222.152 310.7 222.929 309.267 224.483C307.834 226.037 307.117 228.237 307.117 231.083L301.395 231.083L301.335 230.901C301.234 227.107 302.485 223.918 305.089 221.335C307.713 218.751 311.345 217.46 315.987 217.46C319.963 217.46 323.122 218.62 325.463 220.941C327.824 223.242 329.005 226.178 329.005 229.751C329.005 232.152 328.288 234.554 326.855 236.956C325.443 239.357 323.444 241.951 320.861 244.736L309.266 257.36L309.327 257.511L324.978 257.511L325.463 252.456L330.518 252.456L330.518 262.173L301.97 262.174Z" fill="#F3F3F3"/>
<path d="M221.378 223.851C220.528 222.397 219.939 220.807 219.638 219.151C219.475 218.661 219.244 218.197 218.951 217.772L219.03 217.104C219.113 217.031 219.168 216.931 219.185 216.822C219.202 216.713 219.181 216.601 219.125 216.505L219.021 216.072C219.279 214.422 219.337 212.748 219.195 211.085C219.128 210.507 219.151 209.922 219.264 209.35C219.559 208.296 219.634 207.193 219.484 206.108C219.335 205.024 218.964 203.981 218.395 203.045C218.47 202.884 218.494 202.703 218.463 202.528C218.432 202.353 218.347 202.191 218.221 202.065C218.021 201.956 217.858 201.791 217.75 201.591C217.642 201.391 217.594 201.164 217.612 200.938C217.636 200.445 217.499 199.958 217.221 199.55C216.838 199.117 216.308 198.744 216.473 198.033C216.577 197.009 215.882 196.298 215.421 195.517C214.96 194.737 214.029 193.939 213.89 192.838C213.932 192.658 213.936 192.473 213.901 192.292C213.867 192.111 213.795 191.94 213.69 191.788C213.105 190.766 212.61 189.696 212.212 188.588C211.83 187.545 211.238 186.592 210.472 185.787C210.147 185.483 209.856 185.146 209.603 184.781C208.559 183.046 206.455 182.118 205.611 180.158C205.611 180.097 205.507 180.063 205.446 180.019C202.889 178.441 200.671 176.351 197.784 175.284C196.816 174.908 195.88 174.456 194.984 173.931C194.473 173.635 193.923 173.413 193.349 173.272C192.201 173.004 191.081 172.633 190.001 172.162C189.223 171.733 188.358 171.484 187.47 171.433C187.247 171.437 187.026 171.393 186.821 171.303C186.617 171.213 186.435 171.08 186.288 170.913C185.966 170.605 185.571 170.384 185.14 170.271C182.446 169.263 179.612 168.678 176.739 168.537C175.495 168.537 174.243 168.181 173.008 168.537C172.675 168.414 172.327 168.336 171.973 168.303C170.399 168.372 168.825 168.493 167.251 168.623C166.972 168.68 166.7 168.77 166.442 168.892C166.291 168.81 166.118 168.774 165.946 168.789C165.774 168.805 165.611 168.871 165.477 168.979C165.339 169.021 165.205 169.076 165.077 169.144C162.155 169.257 159.485 170.332 156.868 171.485C154.749 172.33 152.762 173.469 150.963 174.868C149.667 175.943 148.302 176.949 147.067 178.094C144.701 180.422 142.543 182.949 140.614 185.648C139.769 186.472 139.183 187.524 138.927 188.675C138.822 188.761 138.727 188.866 138.631 188.961C138.572 189.159 138.499 189.353 138.414 189.542C138.304 189.622 138.202 189.712 138.109 189.811C138.029 189.993 137.965 190.181 137.918 190.375C137.756 190.451 137.621 190.575 137.532 190.73C137.444 190.885 137.405 191.064 137.422 191.242C137.344 191.433 137.283 191.632 137.214 191.823C137.144 192.014 136.883 192.395 136.727 192.69C136.57 192.985 136.596 193.08 136.535 193.271L136.04 194.139L135.831 194.711C135.716 194.795 135.611 194.891 135.518 194.997C135.435 195.058 135.374 195.144 135.344 195.243C135.314 195.341 135.317 195.447 135.353 195.543C135.292 195.743 135.231 195.934 135.187 196.133C135.142 196.343 135.066 196.544 134.961 196.732C134.855 196.81 134.759 196.9 134.674 197.001C134.599 197.183 134.541 197.371 134.5 197.564C134.449 197.77 134.379 197.97 134.292 198.163C134.182 198.246 134.08 198.339 133.987 198.44C133.906 198.505 133.846 198.592 133.815 198.691C133.784 198.79 133.784 198.896 133.813 198.995C133.744 199.195 133.7 199.403 133.631 199.594C133.263 199.995 133.043 200.508 133.005 201.051C132.778 201.849 132.204 202.551 132.274 203.436C132.025 203.8 131.906 204.236 131.935 204.676C131.649 205.502 131.425 206.349 131.265 207.208C131.048 209.082 130.656 210.964 131.17 212.854C131.095 212.931 131.048 213.03 131.034 213.136C131.02 213.242 131.04 213.35 131.091 213.444C131.103 213.576 131.144 213.703 131.213 213.817C131.23 214.016 131.23 214.216 131.213 214.415C131.326 214.675 131.43 214.927 131.535 215.196C131.476 215.362 131.461 215.54 131.492 215.713C131.522 215.886 131.597 216.049 131.709 216.185C131.732 216.323 131.782 216.456 131.857 216.575C131.794 216.735 131.776 216.909 131.805 217.079C131.834 217.249 131.909 217.407 132.022 217.537C131.296 220.33 131.296 223.261 132.022 226.054C132.447 228.292 133.067 230.489 133.874 232.619C134.884 235.285 136.045 237.891 137.353 240.425C138.57 242.697 139.962 244.874 141.266 247.103C143.336 250.507 145.934 253.563 148.962 256.157C151.22 258.175 153.696 259.935 156.346 261.404C159.753 263.347 163.472 264.685 167.338 265.359C171.21 265.931 175.113 266.27 179.026 266.373C184.487 266.642 189.27 264.639 193.923 262.124C194.056 262.058 194.179 261.974 194.288 261.872C195.412 260.916 196.627 260.07 197.915 259.349C200.564 257.736 202.918 255.683 204.872 253.278C205.907 251.925 207.063 250.676 208.203 249.453C208.985 248.586 209.846 247.788 210.594 246.851C212.116 244.961 213.742 243.157 215.29 241.283C217 239.342 218.312 237.085 219.151 234.64C219.83 232.472 220.725 230.364 221.595 228.257C221.899 227.555 222.038 226.793 222 226.029C221.963 225.265 221.75 224.52 221.378 223.851Z" fill="white"/>
<path d="M130.97 313.059L129.561 313.059L129.561 303.415L130.97 303.415L130.97 307.395L131.622 307.395C131.928 307.398 132.233 307.375 132.535 307.326C132.841 307.278 133.136 307.175 133.405 307.022L135.857 303.415L137.596 303.415L134.422 307.959L136.162 310.561C136.289 310.769 136.441 310.961 136.614 311.133C136.739 311.26 136.879 311.371 137.031 311.463C137.146 311.537 137.272 311.589 137.405 311.619L137.753 311.619L138.057 311.619L138.057 313.05L137.553 313.05C137.339 313.064 137.124 313.064 136.909 313.05C136.699 313.023 136.496 312.959 136.309 312.859C136.083 312.743 135.877 312.591 135.701 312.408C135.448 312.147 135.229 311.856 135.048 311.541L133.196 308.583C132.974 308.677 132.74 308.741 132.5 308.774C132.267 308.809 132.032 308.826 131.796 308.826L130.978 308.826L130.97 313.059Z" fill="white" stroke="white" stroke-width="0.7" stroke-miterlimit="10"/>
<path d="M150.798 308.254C150.805 308.939 150.66 309.618 150.371 310.24C150.101 310.839 149.717 311.381 149.241 311.836C148.767 312.279 148.22 312.638 147.623 312.894C146.323 313.414 144.871 313.414 143.571 312.894C142.943 312.653 142.37 312.29 141.884 311.827C141.401 311.343 141.019 310.767 140.761 310.135C140.503 309.502 140.373 308.824 140.379 308.141C140.373 307.462 140.515 306.791 140.797 306.172C141.068 305.576 141.455 305.04 141.936 304.594C142.424 304.148 142.99 303.796 143.606 303.553C144.237 303.304 144.91 303.178 145.588 303.18C146.283 303.175 146.972 303.307 147.615 303.571C148.231 303.821 148.792 304.189 149.267 304.655C149.741 305.119 150.122 305.67 150.389 306.277C150.657 306.901 150.796 307.574 150.798 308.254ZM149.38 308.167C149.388 307.668 149.284 307.173 149.076 306.719C148.866 306.28 148.57 305.888 148.206 305.565C147.852 305.241 147.439 304.987 146.989 304.82C146.522 304.643 146.026 304.555 145.528 304.559C145.014 304.555 144.503 304.646 144.023 304.828C143.573 305 143.162 305.259 142.814 305.591C142.473 305.929 142.201 306.33 142.014 306.771C141.811 307.242 141.71 307.75 141.719 308.263C141.715 308.757 141.822 309.246 142.032 309.694C142.241 310.13 142.536 310.52 142.901 310.838C143.255 311.163 143.668 311.417 144.119 311.584C144.58 311.769 145.073 311.864 145.571 311.862C146.075 311.864 146.575 311.767 147.041 311.576C147.487 311.394 147.894 311.129 148.241 310.795C148.589 310.463 148.867 310.065 149.058 309.624C149.267 309.167 149.371 308.669 149.363 308.167L149.38 308.167Z" fill="white" stroke="white" stroke-width="0.7" stroke-miterlimit="10"/>
<path d="M158.798 310.37L155.52 306.433L155.52 313.059L154.137 313.059L154.137 304.776L153.007 303.415L154.833 303.415L158.79 308.15L162.79 303.415L164.616 303.415L163.486 304.776L163.486 313.059L162.103 313.059L162.103 306.433L158.798 310.37Z" fill="white" stroke="white" stroke-width="0.7" stroke-miterlimit="10"/>
<path d="M176.2 311.125C175.827 311.121 175.455 311.147 175.087 311.203C174.765 311.262 174.454 311.371 174.165 311.524L174.165 313.059L172.782 313.059L172.782 311.524C172.478 311.337 172.137 311.219 171.782 311.177C171.438 311.141 171.093 311.124 170.747 311.125C170.225 311.126 169.707 311.023 169.225 310.821C168.762 310.627 168.338 310.351 167.973 310.006C167.607 309.664 167.312 309.255 167.103 308.8C166.888 308.336 166.778 307.829 166.782 307.317C166.777 306.802 166.886 306.293 167.103 305.826C167.309 305.367 167.605 304.954 167.973 304.611C168.338 304.266 168.762 303.99 169.225 303.796C169.707 303.594 170.225 303.491 170.747 303.493L172.782 303.493L172.782 303.033L174.165 303.033L174.165 303.493L176.2 303.493C176.711 303.49 177.218 303.593 177.687 303.796C178.145 303.986 178.561 304.263 178.913 304.611C179.623 305.334 180.023 306.305 180.026 307.317C180.028 307.827 179.924 308.332 179.722 308.8C179.533 309.254 179.255 309.666 178.906 310.013C178.557 310.359 178.143 310.634 177.687 310.821C177.218 311.024 176.711 311.127 176.2 311.125ZM170.747 309.702C171.122 309.697 171.497 309.717 171.869 309.763C172.192 309.811 172.503 309.924 172.782 310.093L172.782 304.889L170.747 304.889C170.424 304.888 170.105 304.953 169.808 305.08C169.521 305.198 169.261 305.372 169.043 305.591C168.824 305.812 168.647 306.071 168.521 306.355C168.397 306.651 168.335 306.97 168.338 307.291C168.338 307.61 168.4 307.925 168.521 308.219C168.642 308.506 168.82 308.765 169.043 308.982C169.264 309.197 169.523 309.367 169.808 309.485C170.102 309.625 170.422 309.699 170.747 309.702ZM176.2 309.702C176.523 309.707 176.843 309.642 177.139 309.511C177.423 309.391 177.682 309.221 177.904 309.008C178.125 308.789 178.302 308.53 178.426 308.245C178.547 307.951 178.61 307.636 178.609 307.317C178.612 306.996 178.55 306.677 178.426 306.381C178.297 306.098 178.121 305.84 177.904 305.617C177.685 305.4 177.425 305.226 177.139 305.106C176.842 304.979 176.523 304.914 176.2 304.915L174.165 304.915L174.165 310.119C174.461 309.937 174.794 309.825 175.139 309.789C175.49 309.738 175.845 309.709 176.2 309.702Z" fill="white" stroke="white" stroke-width="0.7" stroke-miterlimit="10"/>
<path d="M193.271 308.254C193.277 308.938 193.135 309.616 192.853 310.24C192.582 310.838 192.195 311.378 191.714 311.827C191.231 312.279 190.668 312.638 190.053 312.885C189.426 313.154 188.752 313.296 188.07 313.302C187.387 313.309 186.711 313.18 186.079 312.923C185.447 312.667 184.872 312.287 184.388 311.807C183.905 311.327 183.522 310.756 183.261 310.127C182.989 309.482 182.85 308.789 182.853 308.089C182.845 307.409 182.991 306.737 183.279 306.12C183.55 305.524 183.937 304.988 184.418 304.542C185.414 303.63 186.718 303.125 188.07 303.128C188.765 303.123 189.454 303.255 190.097 303.519C191.339 304.024 192.332 304.996 192.862 306.225C193.142 306.864 193.281 307.556 193.271 308.254ZM191.862 308.167C191.866 307.668 191.762 307.174 191.558 306.719C191.348 306.28 191.052 305.888 190.688 305.565C190.333 305.242 189.92 304.989 189.471 304.82C188.514 304.467 187.462 304.467 186.505 304.82C186.054 304.989 185.643 305.249 185.296 305.583C184.952 305.92 184.678 306.32 184.488 306.762C184.292 307.235 184.194 307.742 184.201 308.254C184.197 308.748 184.304 309.237 184.514 309.685C184.722 310.122 185.018 310.511 185.383 310.83C186.125 311.476 187.077 311.831 188.062 311.827C188.566 311.83 189.066 311.733 189.531 311.541C190.437 311.18 191.165 310.48 191.558 309.59C191.759 309.142 191.863 308.657 191.862 308.167Z" fill="white" stroke="white" stroke-width="0.7" stroke-miterlimit="10"/>
<path d="M196.532 313.059L196.532 303.415L201.541 303.415C201.938 303.413 202.331 303.477 202.706 303.605C203.031 303.726 203.327 303.912 203.576 304.152C203.828 304.395 204.021 304.691 204.141 305.019C204.405 305.765 204.405 306.58 204.141 307.326C204.015 307.651 203.822 307.946 203.576 308.193C203.329 308.438 203.033 308.627 202.706 308.748C202.333 308.883 201.938 308.951 201.541 308.948L199.802 308.948C199.487 308.948 199.173 308.974 198.863 309.026C198.559 309.084 198.267 309.187 197.993 309.329L197.993 313.041L196.532 313.059ZM201.498 307.543C201.687 307.572 201.881 307.557 202.064 307.5C202.247 307.442 202.413 307.343 202.552 307.21C202.69 307.078 202.795 306.915 202.86 306.735C202.924 306.555 202.946 306.362 202.924 306.172C202.945 305.984 202.923 305.793 202.86 305.615C202.796 305.436 202.694 305.274 202.559 305.14C202.251 304.919 201.876 304.812 201.498 304.837L197.949 304.837L197.949 307.933C198.215 307.768 198.511 307.656 198.819 307.603C199.13 307.561 199.444 307.541 199.758 307.543L201.498 307.543Z" fill="white" stroke="white" stroke-width="0.7" stroke-miterlimit="10"/>
<path d="M211.638 304.837L211.638 313.059L210.238 313.059L210.238 304.837L206.759 304.837L206.759 303.415L214.995 303.415L214.995 304.837L211.638 304.837Z" fill="white" stroke="white" stroke-width="0.7" stroke-miterlimit="10"/>
<path d="M219.369 303.25L220.925 303.25L225.578 313.059L223.995 313.059L223.36 311.654L220.421 311.654C220.028 311.648 219.635 311.677 219.247 311.74C218.95 311.789 218.659 311.867 218.377 311.975C218.169 312.049 217.972 312.155 217.795 312.287C217.671 312.37 217.567 312.48 217.49 312.608L217.247 313.059L215.716 313.059L219.899 304.438L219.369 303.25ZM222.726 310.188L220.612 306.112L218.482 310.726C218.743 310.542 219.039 310.412 219.351 310.344C219.879 310.226 220.42 310.174 220.96 310.188L222.726 310.188Z" fill="white" stroke="white" stroke-width="0.7" stroke-miterlimit="10"/>
<path d="M130.074 279.972C130.544 279.504 131.013 279.105 131.483 278.689C131.959 278.293 132.478 277.953 133.031 277.674C133.63 277.37 134.268 277.149 134.927 277.015C135.739 276.848 136.567 276.77 137.396 276.781C138.59 276.742 139.777 276.964 140.875 277.431C141.723 277.803 142.484 278.346 143.11 279.027C143.644 279.615 144.053 280.305 144.31 281.056C144.522 281.686 144.639 282.344 144.658 283.008C144.686 283.784 144.543 284.556 144.24 285.271C143.917 285.902 143.435 286.437 142.84 286.824C143.674 287.291 144.387 287.947 144.919 288.74C145.446 289.622 145.703 290.638 145.658 291.663C145.659 292.471 145.506 293.272 145.206 294.022C144.895 294.805 144.404 295.503 143.771 296.06C143.027 296.704 142.156 297.186 141.214 297.474C139.18 298.073 137.03 298.166 134.953 297.743C134.125 297.569 133.313 297.325 132.526 297.014C131.753 296.708 131.013 296.324 130.317 295.869C129.675 295.44 129.09 294.93 128.578 294.352L130.343 291.88C130.722 292.381 131.177 292.82 131.691 293.181C132.233 293.576 132.816 293.91 133.431 294.178C134.061 294.457 134.72 294.667 135.396 294.803C136.056 294.945 136.73 295.018 137.405 295.019C138.249 295.037 139.091 294.941 139.91 294.733C140.498 294.589 141.055 294.34 141.553 293.996C141.935 293.722 142.235 293.351 142.423 292.921C142.607 292.506 142.702 292.056 142.701 291.602C142.721 291.093 142.598 290.588 142.345 290.145C142.113 289.785 141.797 289.487 141.423 289.278C141.023 289.053 140.588 288.898 140.136 288.818C139.657 288.729 139.171 288.682 138.683 288.68L135.335 288.68L135.335 285.714L138.692 285.714C139.485 285.753 140.266 285.507 140.892 285.02C141.177 284.752 141.398 284.423 141.538 284.058C141.678 283.693 141.734 283.302 141.701 282.912C141.716 282.401 141.57 281.897 141.284 281.473C141.004 281.074 140.638 280.742 140.214 280.501C139.776 280.243 139.301 280.053 138.805 279.938C138.343 279.829 137.871 279.77 137.396 279.764C136.827 279.756 136.258 279.811 135.701 279.929C135.222 280.027 134.757 280.184 134.318 280.397C133.893 280.603 133.494 280.856 133.126 281.152C132.723 281.479 132.337 281.826 131.97 282.192L130.074 279.972Z" fill="white"/>
<path d="M173.391 287.483C173.41 288.917 173.113 290.338 172.521 291.646C171.958 292.901 171.151 294.033 170.147 294.976C169.137 295.924 167.957 296.674 166.669 297.188C163.954 298.291 160.913 298.291 158.198 297.188C155.595 296.109 153.527 294.044 152.45 291.446C151.873 290.1 151.577 288.652 151.58 287.188C151.567 285.768 151.864 284.362 152.45 283.068C153.019 281.82 153.832 280.696 154.841 279.764C156.121 278.548 157.676 277.658 159.374 277.168C161.072 276.678 162.864 276.603 164.597 276.949C166.33 277.295 167.954 278.052 169.332 279.157C170.71 280.261 171.801 281.68 172.513 283.294C173.091 284.615 173.39 286.041 173.391 287.483ZM170.434 287.309C170.446 286.264 170.229 285.228 169.799 284.274C169.388 283.364 168.796 282.547 168.06 281.872C167.326 281.193 166.466 280.663 165.529 280.311C164.553 279.936 163.514 279.748 162.468 279.755C161.393 279.748 160.325 279.939 159.32 280.319C158.378 280.682 157.518 281.227 156.789 281.924C156.07 282.624 155.499 283.462 155.111 284.387C154.692 285.371 154.481 286.431 154.494 287.5C154.485 288.539 154.708 289.567 155.146 290.51C155.56 291.413 156.151 292.224 156.885 292.895C157.633 293.566 158.496 294.097 159.433 294.464C160.4 294.841 161.43 295.032 162.468 295.028C163.523 295.032 164.568 294.832 165.547 294.438C167.428 293.671 168.941 292.211 169.773 290.362C170.212 289.404 170.438 288.363 170.434 287.309Z" fill="white"/>
<path d="M183.635 297.543L180.67 297.543L180.67 277.379L183.626 277.379L183.626 285.644C184.03 285.453 184.457 285.313 184.896 285.228C185.326 285.149 185.763 285.108 186.201 285.107C186.488 285.107 186.905 285.107 187.462 285.202L189.253 285.401L191.158 285.61C191.792 285.67 192.332 285.705 192.784 285.705C193.238 285.699 193.691 285.661 194.14 285.592C194.619 285.524 195.085 285.387 195.523 285.185L195.523 277.379L198.48 277.379L198.48 297.543L195.523 297.543L195.523 288.159C195.087 288.36 194.624 288.497 194.149 288.567C193.7 288.633 193.247 288.668 192.793 288.671C192.34 288.671 191.801 288.671 191.166 288.584L189.262 288.376L187.479 288.177C186.931 288.116 186.505 288.081 186.218 288.081C185.783 288.083 185.35 288.124 184.922 288.203C184.482 288.283 184.055 288.423 183.653 288.619L183.635 297.543Z" fill="white"/>
<path d="M212.342 277.024L215.595 277.024L225.326 297.543L222.013 297.543L220.691 294.594L214.534 294.594C213.712 294.585 212.891 294.649 212.081 294.785C211.458 294.888 210.847 295.051 210.255 295.271C209.819 295.431 209.406 295.65 209.029 295.921C208.774 296.098 208.563 296.329 208.411 296.598L207.89 297.543L204.698 297.543L213.447 279.513L212.342 277.024ZM219.36 291.62L214.942 283.103L210.472 292.747C210.992 292.367 211.584 292.095 212.212 291.949C213.315 291.695 214.446 291.581 215.577 291.611L219.36 291.62Z" fill="white"/>
<path d="M207.237 218.266C207.042 217.806 206.745 217.395 206.368 217.065C205.992 216.734 205.546 216.493 205.063 216.358C204.324 216.194 203.553 216.232 202.834 216.468C202.114 216.705 201.472 217.131 200.976 217.702C199.854 218.847 199.602 220.391 199.419 221.908C199.176 223.981 199.115 226.071 199.054 228.162C199.053 229.055 198.875 229.939 198.532 230.763C198.315 231.24 197.967 231.301 197.489 231.232C197.01 231.162 196.949 230.789 196.906 230.425C196.899 230.199 196.913 229.972 196.949 229.749C197.228 227.554 197.819 225.412 198.21 223.253C198.582 221.482 198.656 219.662 198.428 217.867C198.302 216.906 197.833 216.022 197.106 215.378C196.673 215.021 196.173 214.755 195.635 214.594C195.098 214.433 194.533 214.381 193.975 214.441C192.47 214.572 190.972 214.78 189.488 215.066C187.253 215.43 185.009 215.76 182.774 216.089C180.774 216.384 178.783 216.722 176.774 216.956C174.33 217.234 171.886 217.494 169.425 217.676C165.294 217.971 161.172 218.162 157.076 217.295C156.023 217.106 155.029 216.675 154.172 216.037C153.406 215.413 152.711 214.259 153.476 213.244C153.795 212.829 154.202 212.488 154.667 212.247C156.029 211.629 157.522 211.352 159.016 211.441C160.74 211.489 162.458 211.669 164.155 211.978C166.521 212.325 168.889 212.637 171.26 212.915C174.313 213.279 177.391 213.47 180.461 213.635C184.809 213.869 189.114 213.86 193.445 213.826C195.229 213.833 196.999 213.506 198.663 212.863C199.472 212.592 200.196 212.115 200.764 211.479C201.331 210.844 201.722 210.071 201.898 209.238C202.353 207.204 202.251 205.086 201.602 203.106C201.424 202.533 201.126 202.005 200.727 201.556C200.328 201.107 199.838 200.749 199.289 200.504C198.333 200.077 197.301 199.844 196.254 199.819C196.897 199.694 197.558 199.694 198.202 199.819C198.545 199.885 198.898 199.869 199.234 199.772C199.569 199.676 199.877 199.502 200.132 199.264C200.467 199.006 200.776 198.715 201.054 198.397C201.343 198.134 201.605 197.843 201.837 197.53C201.919 197.419 201.995 197.303 202.063 197.183C202.065 197.094 202.044 197.006 202.001 196.929C201.958 196.851 201.895 196.786 201.819 196.74C201.797 196.726 201.771 196.717 201.744 196.714C201.717 196.711 201.69 196.714 201.665 196.723C201.64 196.732 201.617 196.747 201.598 196.767C201.58 196.786 201.566 196.81 201.558 196.836C201.354 197.307 201.058 197.735 200.689 198.093C200.384 198.336 200.071 198.666 199.993 198.726C199.647 199.018 199.219 199.197 198.767 199.238L193.914 198.995C193.035 198.969 192.16 198.85 191.305 198.64C191.812 198.226 192.374 197.885 192.975 197.625C194.261 196.831 195.741 196.405 197.254 196.393C197.891 196.399 198.52 196.254 199.089 195.968C200.289 195.382 201.256 194.411 201.837 193.211C202.65 191.78 202.933 190.11 202.637 188.493C202.478 188.107 202.359 187.706 202.28 187.296C202.48 187.367 202.662 187.482 202.812 187.632C202.963 187.782 203.078 187.963 203.15 188.163C203.439 188.764 203.577 189.426 203.553 190.092C203.529 190.759 203.343 191.409 203.011 191.988C202.44 192.823 201.921 193.692 201.454 194.589C201.15 195.249 201.219 195.509 201.854 195.873C201.932 195.925 201.993 195.942 201.993 196.046C201.993 196.489 202.167 196.341 202.324 196.107C202.48 195.873 202.515 195.899 202.602 195.786C202.802 195.509 202.689 195.335 202.385 195.257C202.234 195.247 202.083 195.247 201.932 195.257C202.14 194.69 202.433 194.158 202.802 193.679C203.672 192.369 204.489 191.077 204.202 189.342C203.95 187.894 203.454 186.914 202.167 186.602C201.816 186.59 201.469 186.519 201.141 186.394C200.63 186.119 200.049 186.001 199.471 186.056C198.468 186.1 197.486 186.36 196.593 186.819C193.33 188.286 189.985 189.566 186.575 190.652C185.389 191.04 184.152 191.253 182.905 191.285C182.539 191.285 182.392 191.224 182.574 190.799C182.97 189.941 183.24 189.029 183.374 188.094C183.492 187.523 183.439 186.931 183.221 186.391C183.002 185.851 182.629 185.388 182.148 185.058C181.631 184.74 181.097 184.451 180.548 184.191C180.292 184.096 180.068 183.929 179.905 183.711C179.741 183.492 179.644 183.231 179.626 182.959C179.617 182.827 179.579 182.699 179.516 182.582C179.453 182.465 179.366 182.363 179.261 182.283C178.261 181.516 177.043 181.085 175.782 181.051C174.102 180.944 172.432 181.385 171.025 182.309C170.014 182.858 169.144 183.634 168.486 184.577C167.828 185.519 167.399 186.601 167.234 187.738C167.17 188.35 167.211 188.969 167.355 189.568C167.406 189.888 167.565 190.181 167.805 190.398C168.046 190.616 168.353 190.745 168.677 190.765C166.938 191.233 166.312 191.198 165.129 190.704C163.32 189.941 161.651 188.97 159.842 188.102C158.45 187.452 157.033 186.871 155.589 186.368C153.511 185.605 151.241 185.448 149.215 184.633C148.857 184.501 148.466 184.49 148.102 184.601C147.737 184.712 147.419 184.94 147.197 185.249C146.876 185.69 146.647 186.19 146.521 186.72C146.396 187.25 146.377 187.799 146.467 188.336C146.611 189.98 147.18 191.557 148.119 192.916C148.16 192.958 148.19 193.01 148.208 193.066C148.227 193.122 148.232 193.182 148.223 193.24C148.215 193.299 148.193 193.354 148.16 193.403C148.127 193.452 148.083 193.493 148.032 193.523C147.973 193.564 147.924 193.617 147.887 193.678C147.849 193.739 147.825 193.807 147.815 193.877C147.805 193.948 147.81 194.02 147.83 194.089C147.849 194.158 147.882 194.222 147.928 194.277C149.154 196.099 150.389 197.911 151.606 199.732C151.702 199.88 151.789 200.001 151.971 199.975C152.154 199.949 152.224 199.776 152.285 199.602C152.408 199.217 152.454 198.811 152.42 198.407C152.386 198.004 152.272 197.611 152.084 197.252C151.46 196.126 150.701 195.081 149.823 194.138C149.719 194.008 149.502 193.878 149.589 193.714C149.676 193.549 149.928 193.635 150.11 193.653C150.179 193.64 150.25 193.64 150.319 193.653C151.396 194.053 152.557 194.173 153.693 194C155.208 193.751 156.761 194.083 158.042 194.928C159.676 196.116 160.65 197.833 161.694 199.507C161.868 199.784 161.798 200.027 161.416 200.14C160.903 200.261 160.376 200.305 159.85 200.27C156.824 200.176 153.794 200.277 150.78 200.574C149.709 200.665 148.691 201.076 147.858 201.753C146.71 202.785 146.554 204.181 146.623 205.612C146.812 207.847 147.244 210.054 147.91 212.195C148.362 213.808 148.884 215.404 149.371 217.008C150.241 219.879 151.206 222.715 152.145 225.568C152.624 227.025 153.102 228.482 153.554 229.905C153.648 230.209 153.624 230.537 153.485 230.823C153.346 231.11 153.104 231.333 152.806 231.448C152.52 231.568 152.2 231.582 151.905 231.486C151.61 231.391 151.359 231.193 151.197 230.928C151.056 230.687 150.928 230.438 150.815 230.182C149.962 228.611 149.744 226.774 150.206 225.048C150.468 224.1 150.562 223.114 150.484 222.134C150.479 221.423 150.327 220.72 150.038 220.07C149.749 219.42 149.33 218.835 148.806 218.353C148.486 218.061 148.104 217.844 147.688 217.718C147.273 217.591 146.835 217.56 146.406 217.624C146.399 217.591 146.385 217.559 146.365 217.531C146.345 217.503 146.32 217.479 146.29 217.461C146.261 217.444 146.228 217.432 146.194 217.427C146.16 217.422 146.126 217.424 146.093 217.433C144.89 217.739 143.788 218.35 142.893 219.207C141.998 220.065 141.342 221.139 140.988 222.325C140.927 222.507 140.883 222.698 140.84 222.88C140.765 223.032 140.707 223.192 140.666 223.357C140.381 224.697 140.325 226.075 140.501 227.433C140.805 229.935 141.735 232.321 143.205 234.371C145.119 237.094 147.902 238.482 150.98 239.349C153.528 240.039 156.169 240.332 158.807 240.217C161.199 240.137 163.582 239.888 165.938 239.471C167.825 239.15 169.695 238.794 171.547 238.3C172.817 237.97 174.078 237.606 175.321 237.198C177.174 236.621 178.991 235.937 180.765 235.152C182.252 234.467 183.644 233.582 185.114 232.931C186.328 232.32 187.689 232.055 189.044 232.168C190.558 232.368 190.923 233.036 190.436 234.25C190.002 235.251 189.242 236.076 188.279 236.591C185.352 238.132 182.195 239.192 178.93 239.731C176.052 240.286 173.13 240.555 170.234 240.893C168.386 241.069 166.55 241.359 164.738 241.76C163.765 241.918 162.833 242.269 161.998 242.792C161.224 243.356 161.259 244.05 162.111 244.527C163.091 244.962 164.145 245.209 165.216 245.255C167.77 245.547 170.344 245.631 172.912 245.507C173.182 245.507 173.286 245.585 173.33 245.836C173.335 245.865 173.335 245.894 173.33 245.923L173.426 245.923C173.486 246.227 173.539 246.539 173.591 246.843L173.747 247.823C173.628 248.016 173.565 248.238 173.565 248.464C173.565 249.878 173.565 251.292 173.565 252.705C173.565 253.139 173.565 253.573 173.626 254.024C173.637 254.084 173.634 254.147 173.617 254.206C173.599 254.265 173.568 254.319 173.526 254.364C173.483 254.409 173.431 254.443 173.373 254.464C173.314 254.484 173.252 254.491 173.191 254.483C173.008 254.483 172.817 254.483 172.634 254.483C170.544 254.822 168.501 255.405 166.547 256.218C165.061 256.801 163.609 257.467 162.198 258.212C161.149 258.713 160.165 259.339 159.268 260.077C159.033 260.285 158.781 260.519 158.929 260.832C159.076 261.144 159.424 261.109 159.729 261.1C160.23 261.026 160.705 260.829 161.111 260.528C163.035 259.55 165.058 258.783 167.147 258.238C169.152 257.637 171.211 257.227 173.295 257.016C174.3 256.882 175.321 256.941 176.304 257.189C176.495 257.225 176.674 257.307 176.825 257.428C176.977 257.549 177.096 257.705 177.174 257.883C177.519 258.923 177.775 259.991 177.939 261.074C177.939 261.074 177.939 261.178 177.939 261.196C177.722 260.571 177.53 259.947 177.287 259.34C177.151 258.855 176.91 258.405 176.582 258.022C176.037 257.599 175.36 257.38 174.669 257.406C173.834 257.374 172.997 257.43 172.173 257.571C169.218 258.039 166.32 258.818 163.529 259.895C162.808 260.162 162.117 260.505 161.468 260.918C160.99 261.248 160.981 261.413 161.398 261.786L161.459 261.864C161.638 262.081 161.769 262.332 161.845 262.602C161.921 262.873 161.94 263.156 161.901 263.434C161.862 263.712 161.765 263.978 161.617 264.217C161.469 264.456 161.273 264.662 161.042 264.821C160.973 264.891 160.887 264.942 160.793 264.969C160.698 264.997 160.598 264.999 160.503 264.977C161.711 263.936 161.694 262.948 160.99 262.08C160.845 261.879 160.659 261.711 160.444 261.587C160.229 261.463 159.99 261.387 159.743 261.363C159.495 261.339 159.246 261.369 159.011 261.449C158.776 261.529 158.561 261.659 158.381 261.829C158.105 262.013 157.88 262.264 157.728 262.558C157.575 262.852 157.501 263.18 157.511 263.511C157.519 263.719 157.569 263.923 157.659 264.11C157.636 264.105 157.612 264.105 157.589 264.11L157.902 264.517C157.494 263.962 157.963 264.578 158.12 264.734C158.276 264.89 158.389 264.96 158.494 265.047C158.848 265.171 159.182 265.346 159.485 265.567C159.751 265.601 160.02 265.601 160.285 265.567C160.318 265.564 160.35 265.554 160.377 265.535C160.405 265.517 160.427 265.492 160.442 265.463C160.568 265.445 160.69 265.41 160.807 265.359C160.964 265.311 161.113 265.241 161.251 265.151C161.792 264.794 162.172 264.24 162.307 263.607C162.442 262.974 162.322 262.314 161.972 261.768C161.877 261.603 161.581 261.491 161.703 261.274C161.824 261.057 162.033 261.04 162.207 260.927L162.303 260.927C163.237 260.481 164.202 260.101 165.19 259.791C166.121 259.47 167.06 259.175 167.999 258.924C169.461 258.531 170.949 258.241 172.452 258.056C173.335 257.923 174.232 257.903 175.121 257.996C175.468 258.018 175.8 258.146 176.071 258.364C176.342 258.581 176.538 258.877 176.635 259.21C176.73 259.487 176.861 259.739 176.956 260.016C177.13 260.528 177.295 261.04 177.443 261.56C177.487 261.725 177.591 261.959 177.287 262.046C177.06 262.117 176.858 262.251 176.704 262.432C176.55 262.613 176.45 262.834 176.417 263.069C176.247 263.7 176.247 264.364 176.417 264.994C176.489 265.414 176.713 265.792 177.047 266.058C177.38 266.323 177.8 266.457 178.226 266.434C178.839 266.38 179.444 266.252 180.026 266.053C180.312 265.975 180.563 265.806 180.741 265.57C180.919 265.335 181.013 265.047 181.009 264.752C181.026 264.139 180.923 263.529 180.704 262.956C180.357 261.959 179.965 260.97 179.609 259.973C179.367 259.407 179.266 258.791 179.313 258.178C179.325 258.01 179.393 257.851 179.506 257.726C179.62 257.602 179.773 257.52 179.939 257.493C180.361 257.414 180.789 257.371 181.218 257.363C183.039 257.412 184.847 257.686 186.601 258.178C187.819 258.487 189.014 258.884 190.175 259.366C190.872 259.64 191.535 259.995 192.149 260.424C192.262 260.511 192.453 260.597 192.262 260.797C191.934 261.113 191.72 261.529 191.653 261.978C191.585 262.428 191.668 262.888 191.888 263.286C191.993 263.532 192.149 263.752 192.347 263.933C192.544 264.113 192.778 264.249 193.033 264.331C193.288 264.413 193.558 264.44 193.824 264.409C194.09 264.379 194.346 264.291 194.575 264.153C194.973 263.913 195.27 263.537 195.412 263.096C195.554 262.655 195.532 262.177 195.349 261.751C194.978 261.012 194.547 260.305 194.062 259.635C193.96 259.494 193.822 259.384 193.662 259.314C192.589 258.778 191.457 258.37 190.288 258.1C188.262 257.536 186.235 256.964 184.2 256.556C183.191 256.344 182.162 256.231 181.131 256.218C180.629 256.221 180.133 256.309 179.661 256.478C179.159 256.641 178.741 256.994 178.497 257.461C178.254 257.928 178.203 258.472 178.356 258.976C178.623 260.086 178.987 261.172 179.443 262.219C179.559 262.543 179.658 262.873 179.739 263.208C179.766 263.288 179.762 263.374 179.728 263.451C179.695 263.528 179.633 263.59 179.557 263.624C179.443 263.676 179.304 263.754 179.2 263.624C179.013 263.454 178.862 263.247 178.756 263.017C178.562 262.402 178.413 261.773 178.313 261.135C178.149 260.109 177.929 259.093 177.652 258.091C177.58 257.794 177.43 257.521 177.217 257.3C177.005 257.079 176.738 256.918 176.443 256.833C176.012 256.697 175.565 256.615 175.113 256.591C174.08 256.567 173.047 256.631 172.025 256.781C170.526 256.999 169.042 257.309 167.582 257.709C166.529 257.987 165.494 258.308 164.468 258.672C163.161 259.088 161.9 259.634 160.703 260.303C160.39 260.542 160.01 260.678 159.616 260.693C159.537 260.693 159.442 260.693 159.398 260.632C159.355 260.571 159.485 260.511 159.511 260.441C159.537 260.372 159.598 260.372 159.642 260.329C160.826 259.435 162.11 258.681 163.468 258.082C165.644 257.008 167.915 256.137 170.251 255.481C171.142 255.227 172.052 255.05 172.973 254.951C173.843 254.873 174.043 254.717 174.026 253.824C174.026 253.633 174.026 253.434 174.026 253.234C173.913 251.795 173.956 250.346 173.947 248.898C173.946 248.702 173.972 248.506 174.026 248.317C174.324 248.567 174.697 248.713 175.087 248.733L175.174 248.733C175.284 248.795 175.405 248.837 175.53 248.855C176.332 248.989 177.143 249.059 177.956 249.063C178.513 249.063 178.739 249.271 178.748 249.835C178.756 250.398 178.748 251.153 178.696 251.812C178.651 252.343 178.636 252.875 178.652 253.408C178.634 253.555 178.646 253.705 178.686 253.849C178.727 253.992 178.796 254.125 178.889 254.242C178.982 254.358 179.098 254.455 179.229 254.526C179.36 254.597 179.504 254.642 179.652 254.657C179.791 254.665 179.931 254.665 180.07 254.657C181.24 254.703 182.404 254.851 183.548 255.099C185.463 255.572 187.35 256.151 189.201 256.833C190.357 257.241 191.514 257.64 192.679 258.004C193.502 258.235 194.287 258.582 195.01 259.036C195.436 259.331 195.428 259.453 195.01 259.747C194.749 259.938 194.758 260.034 195.054 260.19C195.18 260.248 195.302 260.314 195.419 260.389C195.652 260.562 195.833 260.797 195.939 261.066C196.045 261.336 196.073 261.631 196.019 261.916C196.009 262.407 195.865 262.887 195.603 263.304C195.341 263.721 194.971 264.059 194.532 264.283C194.453 264.329 194.385 264.391 194.331 264.464C194.278 264.537 194.239 264.62 194.219 264.708C194.424 264.657 194.634 264.622 194.845 264.604C194.149 264.665 194.454 264.604 194.845 264.604C194.988 264.532 195.125 264.448 195.254 264.353C195.822 263.839 196.204 263.153 196.341 262.401C196.475 261.986 196.479 261.54 196.351 261.123C196.224 260.706 195.971 260.338 195.628 260.068C195.558 260.016 195.541 259.956 195.628 259.843C195.723 259.697 195.758 259.52 195.726 259.348C195.693 259.177 195.596 259.025 195.454 258.924C195.259 258.761 195.046 258.621 194.819 258.507C193.892 258.069 192.933 257.704 191.949 257.415C189.853 256.729 187.801 255.932 185.688 255.316C184.251 254.87 182.774 254.565 181.278 254.405C180.709 254.408 180.14 254.35 179.583 254.232C179.47 254.208 179.368 254.149 179.291 254.063C179.214 253.977 179.167 253.869 179.156 253.755C179.091 253.251 179.091 252.741 179.156 252.237C179.222 251.406 179.239 250.572 179.209 249.739C179.2 249.523 179.128 249.313 179.002 249.138C178.875 248.962 178.699 248.827 178.496 248.751C178.548 248.751 178.6 248.69 178.591 248.62L178.591 247.692L178.704 246.296C178.713 246.253 178.713 246.209 178.704 246.166C178.626 245.299 178.8 245.247 179.835 245.299L180.104 245.299C183.263 245.533 186.44 245.264 189.514 244.501C192.401 243.78 195.137 242.552 197.593 240.876C199.668 239.367 201.619 237.697 203.428 235.88C206.312 233.249 208.162 229.679 208.646 225.811C208.975 223.211 208.483 220.574 207.237 218.266ZM159.876 264.994C159.876 265.038 159.937 265.073 159.955 265.107C159.972 265.142 159.955 265.229 159.955 265.272C159.438 265.195 158.938 265.03 158.476 264.786C158.4 264.668 158.316 264.555 158.224 264.448C158.022 264.248 157.89 263.987 157.849 263.705C157.808 263.424 157.861 263.136 157.998 262.887C158.168 262.548 158.444 262.274 158.785 262.106C159.126 261.939 159.512 261.887 159.885 261.959C160.101 262.038 160.296 262.165 160.456 262.33C160.615 262.496 160.734 262.695 160.804 262.914C160.873 263.133 160.892 263.364 160.858 263.591C160.824 263.818 160.738 264.034 160.607 264.223C160.433 264.535 160.059 264.674 159.876 264.994ZM177.913 261.586C178.061 262.15 178.174 262.662 178.322 263.147C178.449 263.522 178.693 263.847 179.017 264.075C179.417 264.37 180.13 263.945 180.174 263.416C180.18 263.16 180.133 262.906 180.035 262.67C179.983 262.547 179.965 262.412 179.983 262.28C179.757 262.089 179.748 261.786 179.643 261.543C179.298 260.753 179.022 259.934 178.817 259.097C178.513 257.761 179.113 256.964 180.487 256.773C181.223 256.673 181.969 256.673 182.705 256.773C184.646 257.069 186.564 257.5 188.444 258.065C189.87 258.447 191.297 258.82 192.679 259.34C192.982 259.411 193.266 259.549 193.509 259.742C193.753 259.936 193.951 260.18 194.088 260.459C194.297 260.953 194.784 261.326 194.958 261.846C195.106 262.163 195.144 262.519 195.067 262.86C194.99 263.2 194.801 263.506 194.532 263.728C194.364 263.846 194.173 263.928 193.971 263.968C193.77 264.007 193.562 264.004 193.362 263.958C193.162 263.913 192.973 263.825 192.809 263.702C192.645 263.578 192.509 263.422 192.41 263.243C192.2 262.928 192.1 262.553 192.123 262.176C192.147 261.798 192.293 261.439 192.54 261.152C192.561 261.125 192.585 261.098 192.61 261.074C192.732 260.936 193.001 260.918 192.966 260.658C192.932 260.398 192.732 260.303 192.566 260.164C191.737 259.545 190.816 259.059 189.836 258.724C188.815 258.326 187.769 257.995 186.705 257.735C184.912 257.213 183.059 256.922 181.191 256.868C180.742 256.878 180.293 256.927 179.852 257.016C179.532 257.107 179.257 257.314 179.08 257.596C178.903 257.877 178.838 258.215 178.896 258.542C179.059 259.507 179.333 260.45 179.713 261.352C179.809 261.629 180.017 261.881 179.991 262.219C180.236 262.663 180.407 263.143 180.496 263.642C180.548 263.784 180.583 263.933 180.6 264.084C180.731 265.125 180.435 265.524 179.374 265.74L178.504 265.905C178.323 265.947 178.135 265.95 177.953 265.914C177.77 265.879 177.597 265.806 177.445 265.699C177.292 265.593 177.164 265.456 177.068 265.297C176.972 265.139 176.91 264.962 176.887 264.778C176.748 264.237 176.748 263.67 176.887 263.13C177.008 262.653 177.243 262.341 177.678 262.358C177.895 262.358 177.956 262.237 177.956 262.046C177.956 261.855 177.913 261.812 177.913 261.595L177.913 261.586ZM191.358 197.712C191.181 197.817 191.012 197.936 190.853 198.067C190.627 198.275 190.418 198.51 190.531 198.839C190.644 199.169 190.923 199.238 191.227 199.299C192.453 199.539 193.7 199.649 194.949 199.628C195.057 199.626 195.162 199.663 195.245 199.732L187.244 199.993C187.734 198.932 188.548 198.053 189.57 197.483C190.592 196.913 191.769 196.68 192.932 196.818L191.358 197.712ZM194.784 195.916C194.129 196.052 193.461 196.119 192.792 196.116C191.562 196.021 190.331 196.294 189.256 196.899C188.181 197.505 187.311 198.415 186.757 199.516C186.531 199.897 186.34 200.045 185.888 199.793C185.62 199.656 185.318 199.596 185.018 199.62L183.009 199.62C181.957 199.62 181.687 199.403 181.365 198.449C181.365 198.353 181.313 198.275 181.409 198.223C182 197.85 182.426 197.165 183.226 197.183C183.825 197.147 184.414 197.01 184.966 196.775C188.012 195.812 191.18 195.284 194.375 195.205L196.428 195.11L196.48 195.231C195.957 195.555 195.384 195.789 194.784 195.925L194.784 195.916ZM190.497 189.932C192.879 189.065 195.219 188.024 197.567 187.036C198.183 186.71 198.886 186.589 199.576 186.689L198.045 187.235C196.054 187.929 194.149 188.857 192.201 189.655C190.174 190.522 188.069 191.196 185.914 191.667C185.352 191.846 184.755 191.885 184.174 191.78C186.338 191.38 188.457 190.764 190.497 189.941L190.497 189.932ZM167.886 188.996C167.77 187.971 167.925 186.935 168.337 185.989C168.75 185.044 169.404 184.224 170.234 183.61C171.664 182.323 173.526 181.618 175.452 181.632C176.542 181.625 177.613 181.926 178.539 182.5C178.639 182.553 178.726 182.628 178.792 182.72C178.859 182.811 178.903 182.917 178.922 183.029C178.968 183.416 179.121 183.783 179.364 184.089C179.606 184.395 179.929 184.629 180.296 184.763C181.056 185.029 181.737 185.479 182.279 186.073C182.521 186.482 182.666 186.94 182.704 187.414C182.742 187.887 182.67 188.363 182.496 188.805C182.313 189.533 182.044 190.238 181.696 190.904C181.426 191.433 181.496 191.589 182.087 191.823C181.501 191.846 180.914 191.779 180.348 191.623C179.693 191.5 179.048 191.329 178.417 191.112C178.245 191.039 178.064 190.989 177.878 190.964C178.243 191.103 178.548 191.242 178.548 191.32C178.235 191.32 178.296 191.771 178.035 191.745L178.487 191.858C179.628 192.17 180.79 192.397 181.965 192.534C183.598 192.67 185.241 192.529 186.827 192.118C189.787 191.338 192.669 190.287 195.436 188.978C196.975 188.229 198.59 187.647 200.254 187.244C201.193 187.062 201.672 187.391 201.88 188.388C202.128 189.627 202.013 190.911 201.551 192.087C201.088 193.263 200.297 194.282 199.271 195.023C198.66 195.473 197.908 195.695 197.149 195.648C197.48 195.335 198.019 195.223 197.819 194.78C197.619 194.338 197.21 194.433 196.854 194.442C194.093 194.448 191.338 194.688 188.618 195.162C187.033 195.441 185.476 195.862 183.966 196.419C183.539 196.584 183.096 196.419 182.609 196.61C182.32 196.673 182.05 196.801 181.818 196.983C180.708 197.949 179.385 198.638 177.956 198.995C177 199.325 176.026 199.611 175.052 199.914C174.834 199.984 174.652 200.097 174.669 200.339C174.687 200.582 174.93 200.678 175.13 200.686C177.052 200.773 178.878 200.522 180.348 199.125C180.757 198.744 180.8 198.752 180.974 199.264C181.252 200.053 181.939 200.131 182.635 200.235C183.331 200.339 183.931 200.235 184.583 200.235C184.809 200.198 185.04 200.251 185.227 200.383C181.273 201.196 177.205 201.293 173.217 200.669C173.947 199.29 172.591 199.065 171.973 198.353C172.218 198.326 172.466 198.343 172.704 198.405C173.848 198.647 175.013 198.783 176.182 198.813C176.356 198.835 176.531 198.835 176.704 198.813C177.069 198.718 177.495 198.692 177.574 198.171C177.602 197.953 177.559 197.731 177.451 197.539C177.343 197.346 177.176 197.194 176.974 197.105C176.282 196.794 175.532 196.637 174.773 196.645C173.582 196.558 172.382 196.523 171.182 196.471C170.849 196.466 170.52 196.392 170.217 196.255C170.086 196.194 169.886 196.151 169.938 195.934C169.99 195.717 170.156 195.708 170.312 195.691C170.75 195.653 171.191 195.668 171.625 195.734C172.912 195.916 174.234 196.133 175.487 196.272C176.569 196.439 177.677 196.304 178.687 195.882C178.831 195.84 178.958 195.752 179.048 195.631C179.137 195.511 179.185 195.364 179.183 195.214C179.183 194.858 178.913 194.685 178.591 194.563C177.319 194.21 175.994 194.084 174.678 194.191C173.513 194.211 172.349 194.13 171.199 193.948C170.975 193.895 170.763 193.801 170.573 193.67C170.99 193.393 171.499 193.291 171.991 193.384C172.958 193.573 173.944 193.654 174.93 193.627C175.423 193.604 175.909 193.495 176.365 193.306C176.695 193.167 177 192.942 176.922 192.525C176.843 192.109 176.53 192.04 176.156 192.04C174.873 191.989 173.593 191.873 172.321 191.693C172.321 191.693 172.321 191.615 172.321 191.606C173.052 191.198 173.06 191.094 172.399 190.557C172.399 190.557 172.304 190.505 172.269 190.47C172.234 190.435 171.93 190.149 172.017 189.932C172.104 189.715 172.365 189.811 172.53 189.845C173.262 190.021 173.978 190.259 174.669 190.557C174.991 190.669 176.408 191.129 177.278 191.424L177.13 191.337C177.224 191.198 177.355 191.089 177.51 191.022C177.664 190.956 177.834 190.936 178 190.964C177.487 190.773 176.852 190.591 176.782 190.565C175.53 190.123 174.286 189.698 173.025 189.238C172.771 189.167 172.507 189.135 172.243 189.143C171.486 189.143 171.138 189.637 171.417 190.349C171.417 190.453 171.608 190.522 171.512 190.721C171.451 190.791 171.356 190.721 171.278 190.643C170.651 190.183 169.879 189.965 169.103 190.028C168.164 190.045 167.964 189.872 167.86 189.004L167.886 188.996ZM151.667 198.536C150.518 197.065 149.486 195.508 148.58 193.878C149.728 195.327 151.363 196.48 151.641 198.553L151.667 198.536ZM207.942 226.384C207.49 229.232 206.211 231.885 204.263 234.016C202.644 235.788 200.901 237.443 199.045 238.968C196.304 241.229 193.106 242.877 189.67 243.798C186.833 244.529 183.9 244.821 180.974 244.666C180.287 244.666 179.6 244.614 178.913 244.666C178.226 244.718 178.148 244.9 178.113 245.481C178.113 245.715 178.113 245.949 178.113 246.175L178.061 246.175C178.031 246.414 178.031 246.656 178.061 246.895C178.068 247.476 178.117 248.055 178.209 248.629L178.209 248.672C178.136 248.663 178.063 248.663 177.991 248.672C177.375 248.678 176.759 248.64 176.148 248.56C175.952 248.549 175.757 248.526 175.565 248.49C175.566 248.459 175.557 248.428 175.54 248.402C175.523 248.376 175.498 248.355 175.469 248.343L175.304 248.265C175.343 248.236 175.383 248.21 175.426 248.187L174.878 248.031C174.642 247.919 174.398 247.827 174.147 247.753L174.06 247.753L174.06 247.649C173.991 247.172 173.965 246.617 173.852 246.114L173.956 246.114C173.954 245.851 173.922 245.589 173.86 245.333C173.756 244.848 173.53 244.7 172.991 244.735C170.41 244.906 167.82 244.842 165.251 244.544C164.408 244.475 163.574 244.319 162.764 244.076C162.494 243.989 162.111 243.902 162.068 243.616C162.025 243.33 162.381 243.217 162.633 243.087C163.535 242.666 164.493 242.374 165.477 242.22C166.973 241.916 168.486 241.708 170.008 241.509C172.304 241.197 174.617 241.032 176.913 240.642C178.652 240.338 180.391 240.034 182.131 239.583C184.114 239.074 186.04 238.365 187.879 237.467C189.253 236.839 190.359 235.745 191.001 234.38C191.239 233.966 191.309 233.476 191.198 233.012C191.086 232.548 190.801 232.144 190.401 231.882C189.974 231.63 189.495 231.478 189.001 231.44C187.312 231.353 185.633 231.734 184.148 232.541C182.409 233.408 180.783 234.397 178.974 235.082C177.035 235.828 175.078 236.531 173.078 237.112C170.617 237.815 168.117 238.371 165.59 238.777C163.407 239.153 161.203 239.39 158.989 239.488C155.967 239.659 152.938 239.283 150.05 238.378C148.409 237.926 146.887 237.125 145.588 236.028C141.814 232.498 140.214 228.222 141.318 223.079L141.553 222.689C141.548 222.649 141.548 222.608 141.553 222.568C141.769 221.917 142.061 221.294 142.423 220.712C142.423 220.634 142.518 220.564 142.562 220.495C142.318 220.798 142.101 221.093 141.849 221.362C141.797 221.423 141.649 221.362 141.579 221.258C141.51 221.154 141.579 221.067 141.657 220.998C141.875 220.772 142.258 220.634 141.988 220.2C141.936 220.113 142.101 220.009 142.197 220.018C142.423 220.018 142.466 220.252 142.597 220.417C143.026 219.661 143.655 219.038 144.414 218.613C145.078 218.252 145.836 218.101 146.588 218.179C147.135 218.198 147.666 218.369 148.121 218.672C148.575 218.976 148.936 219.4 149.162 219.896L149.249 220C149.573 220.497 149.732 221.083 149.702 221.674C149.84 222.857 149.751 224.055 149.441 225.204C149.254 225.902 149.184 226.626 149.232 227.346C149.394 228.737 149.853 230.077 150.58 231.275C150.831 231.661 151.211 231.947 151.652 232.082C152.093 232.217 152.568 232.193 152.993 232.014C153.418 231.835 153.767 231.513 153.977 231.103C154.188 230.694 154.248 230.223 154.146 229.775C153.815 228.639 153.432 227.511 153.067 226.384C152.198 223.825 151.406 221.267 150.563 218.717C149.403 215.407 148.421 212.037 147.623 208.622C147.266 207.206 147.137 205.742 147.241 204.286C147.269 203.616 147.521 202.976 147.955 202.465C148.39 201.955 148.983 201.603 149.641 201.467C150.606 201.206 151.598 201.054 152.598 201.016C154.833 200.834 157.068 200.912 159.303 200.895C159.868 200.895 160.433 200.895 160.99 200.895C162.285 200.799 162.668 200.097 162.042 198.978C161.449 197.933 160.769 196.941 160.007 196.012C159.132 194.826 157.892 193.958 156.476 193.54C155.332 193.303 154.157 193.253 152.998 193.393C152.209 193.473 151.413 193.39 150.658 193.15C150.193 192.938 149.673 192.877 149.171 192.976C149.071 193.007 148.962 193 148.866 192.957C148.77 192.914 148.693 192.838 148.649 192.742C148.172 192.016 147.789 191.232 147.51 190.409C147.069 189.221 146.931 187.943 147.11 186.689C147.119 186.428 147.193 186.174 147.325 185.949C147.458 185.724 147.644 185.536 147.867 185.401C148.091 185.266 148.345 185.188 148.606 185.175C148.867 185.162 149.127 185.215 149.363 185.327C150.039 185.612 150.741 185.833 151.458 185.986C153.808 186.379 156.091 187.097 158.242 188.12C160.224 189.039 162.172 190.01 164.138 190.964C165.3 191.644 166.68 191.849 167.99 191.537C168.792 191.322 169.645 191.405 170.39 191.771C171.135 192.081 171.92 192.285 172.721 192.378C173.744 192.532 174.775 192.633 175.808 192.681C175.747 192.829 175.652 192.82 175.565 192.838C174.51 193.039 173.424 193.009 172.382 192.751C171.708 192.597 171.001 192.67 170.373 192.959C170.232 193.01 170.108 193.101 170.019 193.221C169.929 193.342 169.877 193.486 169.869 193.635C169.87 193.777 169.912 193.914 169.991 194.032C170.07 194.149 170.182 194.24 170.312 194.295C170.858 194.551 171.449 194.698 172.051 194.728C173.678 194.954 175.321 194.728 176.956 194.876C177.498 194.885 178.031 195.019 178.513 195.266C177.601 195.61 176.619 195.727 175.652 195.604C174.365 195.448 173.043 195.24 171.791 195.075C171.173 194.932 170.53 194.932 169.912 195.075C169.74 195.116 169.586 195.213 169.475 195.352C169.365 195.49 169.304 195.661 169.303 195.838C169.29 196.022 169.337 196.205 169.435 196.361C169.534 196.517 169.679 196.638 169.851 196.706C170.25 196.891 170.681 196.998 171.121 197.018C172.295 197.061 173.478 197.096 174.652 197.2C175.355 197.164 176.055 197.307 176.687 197.616C176.8 197.686 176.93 197.712 176.913 197.868C176.895 198.024 176.73 198.059 176.6 198.076C176.127 198.109 175.652 198.095 175.182 198.033C173.869 197.92 172.573 197.616 171.269 197.469C171.034 197.469 170.738 197.391 170.617 197.668C170.495 197.946 170.686 198.154 170.904 198.319C171.486 198.744 172.06 199.186 172.643 199.602C172.756 199.689 172.921 199.81 172.791 199.993C172.745 200.059 172.677 200.108 172.6 200.13C172.522 200.152 172.439 200.146 172.365 200.114C172.06 199.997 171.769 199.849 171.495 199.672C170.521 199.004 169.703 198.163 168.773 197.46C168.529 197.278 168.225 197.148 168.095 196.836C167.691 195.992 167.122 195.239 166.419 194.62C165.717 194.002 164.897 193.531 164.007 193.237C161.294 192.269 158.444 191.733 155.563 191.649C155.146 191.649 154.876 191.745 154.789 192.161C154.702 192.577 154.998 192.751 155.328 192.864C157.022 193.455 158.769 193.879 160.546 194.13C163.099 194.576 165.495 195.669 167.503 197.304C167.86 197.573 167.842 197.764 167.442 197.937C167.267 198.002 167.118 198.121 167.016 198.278C166.914 198.434 166.865 198.618 166.877 198.804C166.886 199.015 166.852 199.226 166.779 199.423C166.706 199.621 166.595 199.803 166.451 199.958C166.312 200.131 166.155 200.287 166.268 200.513C166.381 200.738 166.625 200.704 166.834 200.712C167.955 200.773 169.086 200.712 170.208 200.851C172.286 201.094 174.365 201.337 176.443 201.536C178.27 201.662 180.104 201.662 181.931 201.536C183.739 201.441 185.453 200.79 187.253 200.669C187.983 200.617 188.705 200.444 189.453 200.444C190.679 200.444 191.914 200.444 193.14 200.365C194.704 200.277 196.273 200.358 197.819 200.608C198.659 200.708 199.446 201.068 200.07 201.638C200.694 202.207 201.123 202.957 201.298 203.783C201.671 205.336 201.733 206.949 201.48 208.526C201.388 209.346 201.063 210.123 200.544 210.765C200.025 211.407 199.333 211.888 198.55 212.152C196.887 212.795 195.115 213.113 193.332 213.088C185.404 213.289 177.473 212.956 169.59 212.091C167.547 211.839 165.512 211.579 163.503 211.224C162.016 210.954 160.509 210.8 158.998 210.764C157.237 210.609 155.472 211.013 153.954 211.918C152.563 212.863 152.111 213.938 152.876 215.447C153.355 216.291 154.119 216.937 155.033 217.269C156.336 217.791 157.706 218.13 159.103 218.275C161.831 218.58 164.582 218.638 167.321 218.448C169.634 218.335 171.947 218.136 174.278 217.884C176.113 217.694 177.939 217.459 179.765 217.199C181.591 216.939 183.487 216.635 185.34 216.332C187.609 215.976 189.888 215.629 192.158 215.265C193.035 215.082 193.933 215.015 194.827 215.066C195.329 215.091 195.816 215.238 196.247 215.495C196.678 215.752 197.038 216.111 197.297 216.54C197.866 217.656 198.09 218.914 197.941 220.157C197.757 222.48 197.376 224.784 196.802 227.043C196.504 228.177 196.335 229.34 196.297 230.512C196.297 231.379 196.662 231.726 197.567 231.917C197.89 231.991 198.23 231.943 198.52 231.783C198.811 231.623 199.032 231.362 199.141 231.05C199.542 230.112 199.749 229.103 199.75 228.083C199.758 225.559 199.968 223.039 200.376 220.547C200.464 219.779 200.761 219.051 201.235 218.439C201.709 217.828 202.341 217.357 203.063 217.078C203.644 216.803 204.306 216.752 204.922 216.935C205.539 217.117 206.066 217.52 206.402 218.066C207.949 220.552 208.49 223.532 207.916 226.401L207.942 226.384ZM171.051 200.365C169.851 200.218 168.642 200.287 167.442 200.175C167.277 200.175 167.19 200.071 167.26 199.88C167.338 199.764 167.383 199.629 167.39 199.49C167.303 198.839 167.634 198.622 168.199 198.388C168.303 198.331 168.423 198.31 168.541 198.327C168.659 198.344 168.768 198.399 168.851 198.484C169.556 199.082 170.234 199.741 171.025 200.348L171.051 200.365ZM166.486 195.847C166.023 195.687 165.589 195.456 165.199 195.162C163.308 194.158 161.241 193.528 159.111 193.306C158.155 193.13 157.211 192.896 156.285 192.603C158.929 192.005 165.355 194.06 166.46 195.83L166.486 195.847Z" fill="#231F20"/>
<rect x="0.499991" y="0.499999" width="468.25" height="239.171" transform="matrix(1 -1.99913e-06 -1.86676e-05 1 86.028 121.043)" stroke="#ECEBD8"/>
<path d="M363.075 82.3137L363.075 113.314M378.075 98.3137L347.075 98.3137" stroke="white" stroke-opacity="0.1"/>
<path d="M433.075 82.3127L433.075 113.313M448.075 98.3127L417.075 98.3127" stroke="white" stroke-opacity="0.1"/>
<path d="M503.075 82.3122L503.075 113.312M518.075 98.3122L487.075 98.3122" stroke="white" stroke-opacity="0.1"/>
<path d="M573.075 82.312L573.075 113.312M588.075 98.312L557.075 98.312" stroke="white" stroke-opacity="0.1"/>
<path d="M393.076 132.312L393.076 163.312M408.076 148.312L377.076 148.312" stroke="white" stroke-opacity="0.1"/>
<path d="M463.075 132.314L463.075 163.314M478.075 148.314L447.075 148.314" stroke="white" stroke-opacity="0.1"/>
<path d="M533.075 132.315L533.075 163.315M548.075 148.315L517.075 148.315" stroke="white" stroke-opacity="0.1"/>
<path d="M603.075 132.315L603.075 163.315M618.075 148.315L587.075 148.315" stroke="white" stroke-opacity="0.1"/>
<path d="M363.075 182.31L363.075 213.31M378.075 198.31L347.075 198.31" stroke="white" stroke-opacity="0.1"/>
<path d="M433.075 182.312L433.075 213.312M448.075 198.312L417.075 198.312" stroke="white" stroke-opacity="0.1"/>
<path d="M503.075 182.312L503.075 213.312M518.075 198.312L487.075 198.312" stroke="white" stroke-opacity="0.1"/>
<path d="M573.075 182.313L573.075 213.313M588.075 198.313L557.075 198.313" stroke="white" stroke-opacity="0.1"/>
<path d="M393.075 232.308L393.075 263.308M408.075 248.308L377.075 248.308" stroke="white" stroke-opacity="0.1"/>
<path d="M463.075 232.309L463.075 263.309M478.075 248.309L447.075 248.309" stroke="white" stroke-opacity="0.1"/>
<path d="M533.075 232.309L533.075 263.309M548.075 248.309L517.075 248.309" stroke="white" stroke-opacity="0.1"/>
<path d="M603.075 232.309L603.075 263.309M618.075 248.309L587.075 248.309" stroke="white" stroke-opacity="0.1"/>
<path d="M363.075 272.31L363.075 303.31M378.075 288.31L347.075 288.31" stroke="white" stroke-opacity="0.1"/>
<path d="M433.075 272.31L433.075 303.31M448.075 288.31L417.075 288.31" stroke="white" stroke-opacity="0.1"/>
<path d="M503.075 272.31L503.075 303.31M518.075 288.31L487.075 288.31" stroke="white" stroke-opacity="0.1"/>
<path d="M573.075 272.31L573.075 303.31M588.075 288.31L557.075 288.31" stroke="white" stroke-opacity="0.1"/>
<path d="M393.075 322.312L393.075 353.312M408.075 338.312L377.075 338.312" stroke="white" stroke-opacity="0.1"/>
<path d="M463.075 322.311L463.075 353.311M478.075 338.311L447.075 338.311" stroke="white" stroke-opacity="0.1"/>
<path d="M533.075 322.311L533.075 353.311M548.075 338.311L517.075 338.311" stroke="white" stroke-opacity="0.1"/>
<path d="M603.075 322.31L603.075 353.31M618.075 338.31L587.075 338.31" stroke="white" stroke-opacity="0.1"/>
</g>
<defs>
<filter id="filter0_d" x="36.0753" y="76.009" width="599.15" height="360.238" filterUnits="userSpaceOnUse" color-interpolation-filters="sRGB">
<feFlood flood-opacity="0" result="BackgroundImageFix"/>
<feColorMatrix in="SourceAlpha" type="matrix" values="0 0 0 0 0 0 0 0 0 0 0 0 0 0 0 0 0 0 127 0"/>
<feOffset dx="15" dy="15"/>
<feGaussianBlur stdDeviation="15"/>
<feColorMatrix type="matrix" values="0 0 0 0 0 0 0 0 0 0 0 0 0 0 0 0 0 0 0.1 0"/>
<feBlend mode="normal" in2="BackgroundImageFix" result="effect1_dropShadow"/>
<feBlend mode="normal" in="SourceGraphic" in2="effect1_dropShadow" result="shape"/>
</filter>
</defs>
</svg>
