<svg width="641" height="482" viewBox="0 0 641 482" fill="none" xmlns="http://www.w3.org/2000/svg">
<g filter="url(#filter0_d)">
<rect width="539.145" height="300.237" transform="matrix(1 -1.99913e-06 -1.86676e-05 1 51.0809 91.0101)" fill="#FBFBFB"/>
</g>
<mask id="mask0" mask-type="alpha" maskUnits="userSpaceOnUse" x="51" y="91" width="540" height="301">
<rect width="539.145" height="300.237" transform="matrix(1 -1.99913e-06 -1.86676e-05 1 51.0809 91.0101)" fill="#1C1D21"/>
</mask>
<g mask="url(#mask0)">
<rect x="0.499991" y="0.499999" width="468.25" height="239.171" transform="matrix(1 -1.99913e-06 -1.86631e-05 1 86.0278 121.043)" stroke="#ECEBD8"/>
<rect x="44.5792" y="85.3002" width="267" height="326" fill="#E4E3C2"/>
<rect x="506.576" y="85.3107" width="146" height="326" fill="#E4E3C2"/>
<mask id="mask1" mask-type="alpha" maskUnits="userSpaceOnUse" x="44" y="85" width="609" height="327">
<path d="M44.579 85.3002L311.579 85.3002L311.579 411.3L44.579 411.3L44.579 85.3002Z" fill="#E4E3C2"/>
<path d="M506.576 85.3107L652.576 85.3107L652.576 411.311L506.576 411.311L506.576 85.3107Z" fill="#E4E3C2"/>
</mask>
<g mask="url(#mask1)">
<rect opacity="0.22" x="0.499991" y="0.499999" width="468.25" height="239.171" transform="matrix(1 -1.99913e-06 -1.86631e-05 1 86.0319 121.029)" stroke="#1C1D21"/>
</g>
<path d="M216.635 219.163C216.936 220.818 217.525 222.409 218.375 223.863C218.748 224.531 218.963 225.276 219.002 226.04C219.041 226.804 218.904 227.566 218.601 228.269C217.731 230.376 216.835 232.484 216.157 234.652C215.318 237.097 214.006 239.354 212.296 241.295C210.748 243.169 209.122 244.973 207.6 246.863C206.852 247.8 205.991 248.598 205.208 249.465C204.069 250.688 202.912 251.937 201.878 253.29C199.923 255.695 197.57 257.748 194.92 259.361C193.632 260.082 192.418 260.928 191.294 261.884C191.185 261.985 191.062 262.07 190.929 262.136C186.276 264.651 181.493 266.654 176.032 266.385C172.119 266.282 168.216 265.943 164.344 265.371C160.478 264.697 156.759 263.359 153.351 261.416C150.702 259.947 148.225 258.187 145.968 256.169C142.939 253.575 140.342 250.519 138.272 247.115C136.967 244.886 135.576 242.709 134.358 240.437C133.051 237.903 131.889 235.297 130.88 232.631C130.073 230.501 129.453 228.304 129.028 226.066C128.301 223.273 128.301 220.342 129.028 217.549C128.915 217.419 128.84 217.261 128.811 217.091C128.782 216.921 128.799 216.747 128.862 216.587C128.788 216.468 128.738 216.335 128.715 216.196C128.603 216.06 128.528 215.898 128.498 215.725C128.467 215.552 128.482 215.374 128.541 215.208C128.436 214.939 128.332 214.687 128.219 214.427C128.232 214.228 128.232 214.028 128.219 213.829C128.143 213.718 128.097 213.59 128.088 213.456C128.037 213.362 128.017 213.254 128.031 213.148C128.045 213.042 128.092 212.943 128.167 212.866C127.654 210.975 128.045 209.094 128.262 207.22C128.422 206.361 128.646 205.514 128.932 204.688C128.903 204.248 129.022 203.811 129.271 203.448C129.202 202.563 129.775 201.86 130.002 201.063C130.04 200.52 130.26 200.007 130.628 199.606C130.697 199.415 130.741 199.207 130.81 199.007C130.781 198.908 130.781 198.802 130.812 198.703C130.843 198.604 130.903 198.517 130.984 198.452C131.077 198.351 131.179 198.258 131.289 198.175C131.376 197.982 131.446 197.782 131.497 197.576C131.538 197.383 131.596 197.195 131.671 197.012C131.756 196.912 131.852 196.822 131.958 196.744C132.063 196.556 132.139 196.355 132.184 196.145C132.228 195.946 132.289 195.755 132.35 195.555C132.314 195.459 132.311 195.353 132.341 195.255C132.371 195.156 132.432 195.07 132.515 195.009C132.608 194.903 132.713 194.807 132.828 194.723L133.037 194.15L133.532 193.283C133.593 193.092 133.567 192.997 133.724 192.702C133.88 192.407 134.141 192.026 134.211 191.835C134.28 191.644 134.341 191.445 134.419 191.254C134.402 191.076 134.441 190.897 134.53 190.742C134.618 190.587 134.753 190.463 134.915 190.386C134.962 190.193 135.026 190.005 135.106 189.823C135.199 189.724 135.301 189.634 135.411 189.554C135.496 189.365 135.569 189.171 135.628 188.973C135.724 188.877 135.819 188.773 135.924 188.687C136.18 187.536 136.766 186.484 137.611 185.66C139.54 182.961 141.699 180.434 144.064 178.106C145.299 176.961 146.664 175.955 147.96 174.88C149.759 173.481 151.747 172.342 153.865 171.497C156.482 170.344 159.152 169.268 162.074 169.156C162.202 169.088 162.336 169.033 162.474 168.991C162.608 168.883 162.772 168.816 162.943 168.801C163.115 168.786 163.288 168.821 163.439 168.904C163.697 168.782 163.969 168.692 164.248 168.635C165.822 168.505 167.396 168.384 168.97 168.314C169.324 168.348 169.672 168.426 170.005 168.549C171.24 168.193 172.492 168.549 173.736 168.549C176.609 168.69 179.443 169.275 182.137 170.283C182.568 170.396 182.963 170.617 183.285 170.925C183.432 171.092 183.614 171.225 183.819 171.315C184.023 171.405 184.244 171.449 184.467 171.445C185.355 171.496 186.22 171.745 186.998 172.174C188.078 172.645 189.199 173.016 190.346 173.284C190.92 173.425 191.47 173.647 191.981 173.943C192.877 174.468 193.813 174.92 194.781 175.296C197.668 176.363 199.886 178.453 202.443 180.031C202.504 180.075 202.608 180.109 202.608 180.17C203.452 182.13 205.556 183.058 206.6 184.793C206.853 185.158 207.144 185.495 207.469 185.799C208.235 186.604 208.827 187.557 209.209 188.6C209.607 189.708 210.102 190.778 210.687 191.8C210.792 191.951 210.864 192.123 210.898 192.304C210.933 192.484 210.929 192.67 210.887 192.85C211.026 193.951 211.957 194.749 212.418 195.529C212.879 196.31 213.574 197.021 213.47 198.044C213.305 198.756 213.835 199.129 214.218 199.562C214.496 199.97 214.633 200.457 214.609 200.95C214.591 201.176 214.639 201.403 214.747 201.603C214.855 201.803 215.018 201.968 215.218 202.077C215.344 202.203 215.429 202.365 215.46 202.54C215.491 202.715 215.467 202.896 215.392 203.057C215.961 203.993 216.332 205.036 216.481 206.12C216.631 207.204 216.556 208.308 216.261 209.362C216.148 209.933 216.125 210.519 216.192 211.097C216.334 212.76 216.276 214.434 216.018 216.084L216.122 216.517C216.178 216.613 216.199 216.725 216.182 216.834C216.165 216.943 216.11 217.043 216.027 217.116L215.948 217.784C216.241 218.209 216.472 218.673 216.635 219.163Z" stroke="#231F20" stroke-miterlimit="10"/>
<path d="M127.967 313.071L126.558 313.071L126.558 303.427L127.967 303.427L127.967 307.407L128.619 307.407C128.925 307.41 129.23 307.387 129.532 307.338C129.838 307.29 130.133 307.187 130.402 307.034L132.854 303.427L134.593 303.427L131.419 307.971L133.159 310.573C133.286 310.781 133.438 310.973 133.611 311.145C133.736 311.272 133.876 311.383 134.028 311.475C134.143 311.549 134.269 311.601 134.402 311.631L134.75 311.631L135.054 311.631L135.054 313.062L134.55 313.062C134.336 313.076 134.121 313.076 133.906 313.062C133.696 313.035 133.493 312.971 133.306 312.871C133.08 312.755 132.874 312.603 132.698 312.42C132.445 312.159 132.226 311.868 132.045 311.553L130.193 308.595C129.971 308.689 129.737 308.753 129.497 308.786C129.264 308.821 129.029 308.838 128.793 308.838L127.975 308.838L127.967 313.071Z" fill="#231F20" stroke="#231F20" stroke-width="0.7" stroke-miterlimit="10"/>
<path d="M147.795 308.266C147.802 308.951 147.657 309.63 147.369 310.252C147.098 310.851 146.714 311.393 146.238 311.848C145.765 312.291 145.217 312.65 144.62 312.906C143.32 313.426 141.868 313.426 140.568 312.906C139.94 312.665 139.367 312.302 138.881 311.839C138.398 311.355 138.016 310.779 137.758 310.147C137.5 309.514 137.37 308.836 137.376 308.153C137.37 307.474 137.512 306.803 137.794 306.184C138.065 305.588 138.452 305.052 138.933 304.606C139.421 304.16 139.987 303.808 140.603 303.565C141.234 303.316 141.907 303.189 142.585 303.192C143.28 303.187 143.969 303.319 144.612 303.583C145.228 303.833 145.789 304.201 146.264 304.667C146.738 305.131 147.119 305.682 147.386 306.289C147.655 306.913 147.794 307.586 147.795 308.266ZM146.377 308.179C146.385 307.68 146.281 307.185 146.073 306.731C145.863 306.292 145.567 305.9 145.203 305.577C144.85 305.252 144.436 304.999 143.986 304.832C143.519 304.655 143.024 304.567 142.525 304.571C142.011 304.567 141.5 304.658 141.02 304.84C140.57 305.012 140.159 305.271 139.811 305.603C139.47 305.941 139.199 306.342 139.011 306.783C138.808 307.254 138.708 307.762 138.716 308.275C138.712 308.769 138.819 309.258 139.029 309.706C139.238 310.142 139.534 310.532 139.898 310.85C140.252 311.175 140.665 311.429 141.116 311.596C141.577 311.781 142.071 311.876 142.568 311.874C143.072 311.876 143.572 311.779 144.038 311.588C144.484 311.406 144.892 311.141 145.238 310.807C145.586 310.475 145.864 310.077 146.055 309.636C146.264 309.179 146.368 308.681 146.36 308.179L146.377 308.179Z" fill="#231F20" stroke="#231F20" stroke-width="0.7" stroke-miterlimit="10"/>
<path d="M155.795 310.382L152.517 306.445L152.517 313.071L151.134 313.071L151.134 304.788L150.004 303.427L151.83 303.427L155.787 308.162L159.787 303.427L161.613 303.427L160.483 304.788L160.483 313.071L159.1 313.071L159.1 306.445L155.795 310.382Z" fill="#231F20" stroke="#231F20" stroke-width="0.7" stroke-miterlimit="10"/>
<path d="M173.197 311.137C172.824 311.133 172.452 311.159 172.084 311.215C171.762 311.275 171.451 311.383 171.162 311.536L171.162 313.071L169.779 313.071L169.779 311.536C169.475 311.349 169.134 311.231 168.779 311.189C168.435 311.153 168.09 311.136 167.744 311.137C167.222 311.138 166.704 311.035 166.222 310.833C165.759 310.639 165.335 310.363 164.97 310.018C164.604 309.677 164.309 309.267 164.101 308.812C163.885 308.348 163.775 307.841 163.779 307.329C163.774 306.814 163.884 306.305 164.101 305.838C164.306 305.379 164.602 304.966 164.97 304.623C165.335 304.278 165.759 304.002 166.222 303.808C166.704 303.606 167.222 303.503 167.744 303.505L169.779 303.505L169.779 303.045L171.162 303.045L171.162 303.505L173.197 303.505C173.708 303.502 174.215 303.605 174.684 303.808C175.142 303.998 175.558 304.275 175.91 304.623C176.621 305.346 177.02 306.317 177.023 307.329C177.025 307.839 176.921 308.344 176.719 308.812C176.53 309.266 176.252 309.678 175.903 310.025C175.554 310.372 175.14 310.646 174.684 310.833C174.215 311.036 173.708 311.139 173.197 311.137ZM167.744 309.714C168.119 309.709 168.494 309.729 168.866 309.775C169.189 309.824 169.5 309.936 169.779 310.105L169.779 304.901L167.744 304.901C167.422 304.9 167.102 304.965 166.805 305.092C166.518 305.21 166.258 305.384 166.04 305.603C165.821 305.824 165.644 306.083 165.518 306.367C165.394 306.663 165.332 306.982 165.335 307.303C165.335 307.622 165.397 307.937 165.518 308.231C165.639 308.518 165.817 308.777 166.04 308.994C166.261 309.209 166.52 309.379 166.805 309.497C167.099 309.637 167.419 309.711 167.744 309.714ZM173.197 309.714C173.52 309.719 173.841 309.654 174.136 309.523C174.42 309.403 174.679 309.233 174.901 309.02C175.122 308.801 175.299 308.542 175.423 308.257C175.545 307.963 175.607 307.648 175.606 307.329C175.609 307.008 175.547 306.689 175.423 306.393C175.294 306.11 175.118 305.852 174.901 305.629C174.682 305.412 174.422 305.238 174.136 305.118C173.839 304.991 173.52 304.926 173.197 304.927L171.162 304.927L171.162 310.131C171.458 309.949 171.791 309.837 172.136 309.801C172.487 309.75 172.842 309.721 173.197 309.714Z" fill="#231F20" stroke="#231F20" stroke-width="0.7" stroke-miterlimit="10"/>
<path d="M190.268 308.266C190.274 308.95 190.132 309.628 189.851 310.252C189.579 310.85 189.192 311.39 188.711 311.839C188.228 312.291 187.665 312.65 187.05 312.897C186.423 313.166 185.749 313.308 185.067 313.314C184.385 313.321 183.708 313.192 183.076 312.935C182.444 312.679 181.869 312.299 181.386 311.819C180.902 311.339 180.519 310.768 180.258 310.139C179.986 309.494 179.847 308.801 179.85 308.101C179.842 307.421 179.988 306.748 180.276 306.132C180.547 305.536 180.934 305 181.415 304.554C182.411 303.642 183.715 303.137 185.068 303.14C185.762 303.135 186.451 303.267 187.094 303.531C188.336 304.036 189.329 305.008 189.859 306.236C190.139 306.876 190.278 307.568 190.268 308.266ZM188.859 308.179C188.863 307.68 188.76 307.186 188.555 306.731C188.345 306.292 188.049 305.9 187.685 305.577C187.33 305.254 186.917 305.001 186.468 304.831C185.511 304.479 184.459 304.479 183.502 304.831C183.051 305.001 182.64 305.261 182.293 305.595C181.95 305.932 181.675 306.332 181.485 306.774C181.289 307.247 181.191 307.754 181.198 308.266C181.194 308.76 181.301 309.249 181.511 309.697C181.719 310.134 182.015 310.523 182.38 310.842C183.122 311.488 184.074 311.843 185.059 311.839C185.563 311.842 186.063 311.745 186.529 311.553C187.434 311.192 188.162 310.492 188.555 309.601C188.756 309.154 188.86 308.669 188.859 308.179Z" fill="#231F20" stroke="#231F20" stroke-width="0.7" stroke-miterlimit="10"/>
<path d="M193.529 313.071L193.529 303.427L198.538 303.427C198.935 303.425 199.328 303.489 199.704 303.617C200.028 303.738 200.324 303.924 200.573 304.164C200.825 304.407 201.018 304.703 201.138 305.031C201.402 305.777 201.402 306.591 201.138 307.338C201.012 307.663 200.819 307.958 200.573 308.205C200.326 308.45 200.03 308.639 199.704 308.76C199.33 308.895 198.935 308.963 198.538 308.96L196.799 308.96C196.484 308.96 196.17 308.986 195.86 309.038C195.557 309.096 195.264 309.198 194.99 309.341L194.99 313.053L193.529 313.071ZM198.495 307.555C198.684 307.584 198.878 307.569 199.061 307.512C199.244 307.454 199.411 307.355 199.549 307.222C199.687 307.09 199.792 306.927 199.857 306.747C199.921 306.567 199.943 306.374 199.921 306.184C199.942 305.996 199.92 305.805 199.857 305.627C199.794 305.448 199.691 305.286 199.556 305.152C199.248 304.931 198.873 304.824 198.495 304.849L194.947 304.849L194.947 307.945C195.212 307.78 195.508 307.668 195.816 307.615C196.127 307.573 196.441 307.553 196.755 307.555L198.495 307.555Z" fill="#231F20" stroke="#231F20" stroke-width="0.7" stroke-miterlimit="10"/>
<path d="M208.635 304.849L208.635 313.071L207.235 313.071L207.235 304.849L203.756 304.849L203.756 303.427L211.992 303.427L211.992 304.849L208.635 304.849Z" fill="#231F20" stroke="#231F20" stroke-width="0.7" stroke-miterlimit="10"/>
<path d="M216.366 303.262L217.923 303.262L222.575 313.071L220.992 313.071L220.358 311.666L217.418 311.666C217.025 311.66 216.632 311.689 216.244 311.752C215.947 311.801 215.656 311.879 215.374 311.987C215.166 312.061 214.97 312.167 214.792 312.299C214.668 312.382 214.564 312.492 214.487 312.62L214.244 313.071L212.713 313.071L216.896 304.45L216.366 303.262ZM219.723 310.2L217.609 306.124L215.479 310.738C215.74 310.554 216.036 310.424 216.348 310.356C216.876 310.238 217.417 310.186 217.957 310.2L219.723 310.2Z" fill="#231F20" stroke="#231F20" stroke-width="0.7" stroke-miterlimit="10"/>
<path d="M127.071 279.984C127.541 279.516 128.01 279.117 128.48 278.701C128.956 278.305 129.475 277.965 130.028 277.686C130.627 277.382 131.265 277.161 131.924 277.027C132.736 276.86 133.564 276.782 134.393 276.793C135.587 276.754 136.774 276.976 137.872 277.443C138.72 277.815 139.481 278.358 140.107 279.039C140.641 279.627 141.05 280.317 141.307 281.068C141.519 281.698 141.636 282.356 141.655 283.02C141.683 283.795 141.54 284.568 141.237 285.283C140.914 285.914 140.432 286.449 139.837 286.836C140.672 287.303 141.384 287.959 141.916 288.752C142.443 289.634 142.7 290.65 142.655 291.675C142.657 292.483 142.503 293.284 142.203 294.034C141.892 294.817 141.401 295.515 140.768 296.072C140.024 296.716 139.153 297.198 138.211 297.486C136.178 298.085 134.027 298.178 131.95 297.755C131.122 297.581 130.31 297.337 129.523 297.026C128.75 296.72 128.01 296.336 127.314 295.881C126.672 295.452 126.087 294.942 125.575 294.364L127.341 291.892C127.719 292.393 128.174 292.832 128.689 293.193C129.23 293.588 129.813 293.922 130.428 294.19C131.058 294.469 131.717 294.679 132.393 294.814C133.053 294.957 133.727 295.03 134.402 295.031C135.246 295.049 136.089 294.953 136.907 294.745C137.495 294.601 138.052 294.351 138.55 294.008C138.932 293.734 139.233 293.363 139.42 292.933C139.604 292.517 139.699 292.068 139.698 291.614C139.718 291.105 139.595 290.6 139.342 290.157C139.111 289.797 138.794 289.499 138.42 289.29C138.02 289.065 137.585 288.91 137.133 288.83C136.654 288.741 136.168 288.694 135.68 288.692L132.332 288.692L132.332 285.726L135.689 285.726C136.482 285.765 137.263 285.519 137.889 285.032C138.174 284.763 138.395 284.435 138.535 284.07C138.675 283.705 138.731 283.314 138.698 282.924C138.713 282.413 138.567 281.909 138.281 281.485C138.001 281.086 137.635 280.754 137.211 280.513C136.773 280.255 136.298 280.065 135.802 279.949C135.34 279.84 134.868 279.782 134.393 279.776C133.824 279.768 133.255 279.823 132.698 279.941C132.219 280.039 131.754 280.196 131.315 280.409C130.891 280.615 130.491 280.868 130.123 281.164C129.72 281.491 129.334 281.838 128.967 282.204L127.071 279.984Z" fill="#231F20"/>
<path d="M170.388 287.495C170.407 288.929 170.111 290.35 169.518 291.658C168.955 292.913 168.148 294.045 167.144 294.988C166.134 295.936 164.954 296.686 163.666 297.2C160.951 298.303 157.91 298.303 155.195 297.2C152.592 296.121 150.524 294.056 149.447 291.458C148.87 290.112 148.574 288.663 148.577 287.2C148.564 285.78 148.861 284.374 149.447 283.08C150.016 281.832 150.829 280.708 151.838 279.776C153.119 278.56 154.673 277.67 156.371 277.18C158.069 276.69 159.861 276.614 161.594 276.961C163.327 277.307 164.951 278.064 166.329 279.169C167.707 280.273 168.798 281.692 169.51 283.306C170.088 284.627 170.387 286.053 170.388 287.495ZM167.431 287.321C167.443 286.276 167.226 285.24 166.796 284.286C166.385 283.376 165.794 282.559 165.057 281.884C164.323 281.205 163.463 280.674 162.526 280.322C161.55 279.948 160.512 279.759 159.465 279.767C158.39 279.76 157.323 279.951 156.317 280.331C155.375 280.694 154.515 281.239 153.786 281.936C153.067 282.636 152.496 283.474 152.108 284.399C151.689 285.383 151.478 286.443 151.491 287.512C151.482 288.551 151.705 289.579 152.143 290.522C152.557 291.425 153.148 292.236 153.882 292.907C154.63 293.578 155.494 294.109 156.43 294.476C157.397 294.853 158.427 295.044 159.465 295.04C160.52 295.044 161.566 294.844 162.544 294.45C164.425 293.682 165.938 292.223 166.77 290.374C167.209 289.416 167.435 288.375 167.431 287.321Z" fill="#231F20"/>
<path d="M180.632 297.555L177.667 297.555L177.667 277.391L180.624 277.391L180.624 285.656C181.027 285.464 181.454 285.325 181.893 285.24C182.324 285.161 182.76 285.12 183.198 285.118C183.485 285.118 183.911 285.118 184.459 285.214L186.25 285.413L188.155 285.621C188.789 285.682 189.329 285.717 189.781 285.717C190.235 285.711 190.689 285.673 191.138 285.604C191.616 285.536 192.082 285.398 192.52 285.196L192.52 277.391L195.477 277.391L195.477 297.555L192.52 297.555L192.52 288.171C192.084 288.372 191.621 288.509 191.146 288.579C190.697 288.645 190.244 288.68 189.79 288.683C189.337 288.683 188.798 288.683 188.163 288.596L186.259 288.388L184.476 288.189C183.928 288.128 183.502 288.093 183.215 288.093C182.78 288.095 182.347 288.136 181.919 288.215C181.479 288.295 181.052 288.435 180.65 288.631L180.632 297.555Z" fill="#231F20"/>
<path d="M209.339 277.036L212.592 277.036L222.323 297.555L219.01 297.555L217.688 294.606L211.531 294.606C210.709 294.597 209.888 294.661 209.078 294.797C208.455 294.9 207.844 295.063 207.252 295.283C206.816 295.443 206.403 295.662 206.026 295.933C205.772 296.11 205.56 296.341 205.408 296.61L204.887 297.555L201.695 297.555L210.444 279.525L209.339 277.036ZM216.357 291.632L211.939 283.115L207.469 292.759C207.989 292.379 208.581 292.107 209.209 291.961C210.312 291.707 211.443 291.593 212.574 291.623L216.357 291.632Z" fill="#231F20"/>
<path d="M204.234 218.278C204.039 217.818 203.742 217.407 203.365 217.077C202.989 216.746 202.543 216.505 202.06 216.37C201.321 216.206 200.55 216.244 199.831 216.48C199.111 216.717 198.469 217.143 197.973 217.714C196.851 218.859 196.599 220.403 196.416 221.92C196.173 223.993 196.121 226.083 196.051 228.173C196.05 229.066 195.873 229.951 195.529 230.775C195.312 231.252 194.964 231.313 194.486 231.244C194.007 231.174 193.946 230.801 193.903 230.437C193.896 230.211 193.91 229.984 193.946 229.761C194.225 227.566 194.816 225.424 195.207 223.265C195.579 221.494 195.653 219.674 195.425 217.879C195.299 216.918 194.83 216.034 194.103 215.39C193.67 215.033 193.17 214.767 192.633 214.606C192.095 214.445 191.53 214.393 190.972 214.453C189.467 214.583 187.969 214.792 186.485 215.078C184.25 215.442 182.006 215.771 179.771 216.101C177.771 216.396 175.78 216.734 173.771 216.968C171.327 217.246 168.883 217.506 166.422 217.688C162.291 217.983 158.169 218.174 154.073 217.307C153.02 217.118 152.026 216.687 151.169 216.049C150.403 215.425 149.708 214.271 150.473 213.256C150.792 212.841 151.199 212.5 151.664 212.259C153.026 211.641 154.519 211.364 156.013 211.452C157.737 211.501 159.455 211.681 161.152 211.99C163.518 212.337 165.886 212.649 168.257 212.927C171.318 213.291 174.388 213.482 177.458 213.647C181.806 213.881 186.111 213.872 190.442 213.837C192.226 213.845 193.996 213.518 195.66 212.875C196.469 212.604 197.193 212.127 197.761 211.491C198.328 210.855 198.719 210.083 198.895 209.25C199.35 207.216 199.248 205.098 198.599 203.118C198.421 202.545 198.123 202.017 197.724 201.568C197.325 201.119 196.835 200.761 196.286 200.516C195.33 200.089 194.298 199.856 193.251 199.831C193.894 199.705 194.556 199.705 195.199 199.831C195.542 199.897 195.895 199.881 196.231 199.784C196.566 199.688 196.874 199.514 197.129 199.276C197.464 199.018 197.773 198.727 198.051 198.409C198.34 198.146 198.602 197.855 198.834 197.541C198.917 197.431 198.992 197.315 199.06 197.195C199.062 197.106 199.041 197.018 198.998 196.941C198.955 196.863 198.893 196.798 198.816 196.752C198.794 196.738 198.768 196.729 198.741 196.726C198.715 196.723 198.687 196.726 198.662 196.735C198.637 196.744 198.614 196.759 198.596 196.779C198.577 196.798 198.563 196.822 198.556 196.848C198.351 197.319 198.055 197.747 197.686 198.105C197.382 198.348 197.068 198.678 196.99 198.738C196.644 199.03 196.216 199.209 195.764 199.25L190.911 199.007C190.032 198.981 189.157 198.862 188.302 198.652C188.81 198.238 189.371 197.897 189.972 197.637C191.258 196.843 192.738 196.417 194.251 196.405C194.888 196.411 195.517 196.266 196.086 195.98C197.286 195.394 198.253 194.423 198.834 193.222C199.647 191.792 199.931 190.122 199.634 188.505C199.475 188.119 199.356 187.718 199.277 187.308C199.477 187.379 199.659 187.494 199.809 187.644C199.96 187.794 200.075 187.975 200.147 188.175C200.436 188.776 200.574 189.438 200.55 190.104C200.526 190.771 200.34 191.421 200.008 192C199.438 192.835 198.918 193.704 198.451 194.601C198.147 195.261 198.216 195.521 198.851 195.885C198.93 195.937 198.99 195.954 198.99 196.058C198.99 196.501 199.164 196.353 199.321 196.119C199.477 195.885 199.512 195.911 199.599 195.798C199.799 195.521 199.686 195.347 199.382 195.269C199.231 195.259 199.08 195.259 198.93 195.269C199.137 194.702 199.431 194.17 199.799 193.691C200.669 192.381 201.486 191.089 201.199 189.354C200.947 187.906 200.451 186.926 199.164 186.614C198.813 186.602 198.466 186.531 198.138 186.406C197.627 186.131 197.046 186.013 196.468 186.067C195.465 186.112 194.483 186.372 193.59 186.831C190.327 188.298 186.982 189.578 183.572 190.664C182.386 191.052 181.149 191.265 179.902 191.297C179.536 191.297 179.389 191.236 179.571 190.811C179.967 189.953 180.237 189.041 180.371 188.106C180.489 187.535 180.436 186.943 180.218 186.403C179.999 185.863 179.626 185.4 179.145 185.07C178.628 184.752 178.094 184.463 177.545 184.203C177.289 184.108 177.065 183.941 176.902 183.723C176.738 183.504 176.641 183.243 176.623 182.971C176.614 182.839 176.576 182.711 176.513 182.594C176.45 182.477 176.363 182.375 176.258 182.295C175.258 181.528 174.04 181.097 172.779 181.063C171.099 180.956 169.429 181.397 168.022 182.321C167.011 182.87 166.141 183.646 165.483 184.589C164.825 185.531 164.396 186.613 164.231 187.75C164.167 188.362 164.208 188.981 164.352 189.58C164.403 189.9 164.562 190.193 164.802 190.41C165.043 190.628 165.35 190.757 165.674 190.777C163.935 191.245 163.309 191.21 162.126 190.716C160.317 189.953 158.648 188.982 156.839 188.114C155.447 187.464 154.03 186.883 152.586 186.38C150.508 185.616 148.238 185.46 146.212 184.645C145.854 184.513 145.463 184.502 145.099 184.613C144.734 184.724 144.416 184.952 144.194 185.261C143.873 185.702 143.644 186.202 143.518 186.732C143.393 187.262 143.374 187.811 143.464 188.348C143.608 189.992 144.178 191.569 145.116 192.928C145.157 192.97 145.187 193.022 145.206 193.078C145.224 193.134 145.229 193.194 145.22 193.252C145.212 193.311 145.19 193.366 145.157 193.415C145.124 193.464 145.08 193.505 145.029 193.535C144.97 193.576 144.921 193.628 144.884 193.689C144.846 193.75 144.822 193.819 144.812 193.889C144.802 193.96 144.807 194.032 144.827 194.101C144.846 194.17 144.879 194.234 144.925 194.289C146.151 196.11 147.386 197.923 148.603 199.744C148.699 199.892 148.786 200.013 148.969 199.987C149.151 199.961 149.221 199.788 149.282 199.614C149.405 199.229 149.451 198.823 149.417 198.419C149.383 198.016 149.269 197.623 149.082 197.264C148.458 196.138 147.698 195.093 146.82 194.15C146.716 194.02 146.499 193.89 146.586 193.725C146.673 193.561 146.925 193.647 147.107 193.665C147.176 193.652 147.247 193.652 147.316 193.665C148.393 194.065 149.554 194.185 150.69 194.012C152.205 193.763 153.758 194.095 155.039 194.94C156.674 196.128 157.648 197.845 158.691 199.519C158.865 199.796 158.795 200.039 158.413 200.152C157.9 200.273 157.373 200.317 156.847 200.282C153.821 200.188 150.791 200.289 147.777 200.586C146.706 200.677 145.688 201.088 144.855 201.765C143.707 202.797 143.551 204.193 143.62 205.624C143.809 207.859 144.241 210.066 144.907 212.207C145.359 213.82 145.881 215.416 146.368 217.02C147.238 219.891 148.203 222.727 149.142 225.58C149.621 227.037 150.099 228.494 150.551 229.917C150.646 230.221 150.621 230.549 150.482 230.835C150.343 231.122 150.101 231.345 149.803 231.46C149.517 231.58 149.197 231.594 148.902 231.498C148.607 231.403 148.356 231.205 148.195 230.94C148.053 230.699 147.925 230.45 147.812 230.194C146.959 228.623 146.742 226.786 147.203 225.06C147.465 224.112 147.559 223.126 147.481 222.146C147.476 221.435 147.324 220.732 147.035 220.082C146.746 219.432 146.327 218.847 145.803 218.365C145.483 218.073 145.101 217.856 144.686 217.73C144.27 217.603 143.832 217.572 143.403 217.636C143.396 217.603 143.382 217.571 143.362 217.543C143.342 217.515 143.317 217.491 143.288 217.473C143.258 217.456 143.226 217.444 143.192 217.439C143.158 217.434 143.123 217.436 143.09 217.445C141.887 217.751 140.785 218.362 139.89 219.219C138.996 220.077 138.339 221.151 137.985 222.337C137.924 222.519 137.881 222.71 137.837 222.892C137.762 223.044 137.704 223.204 137.663 223.369C137.378 224.708 137.322 226.087 137.498 227.445C137.803 229.947 138.733 232.333 140.203 234.383C142.116 237.106 144.899 238.494 147.977 239.361C150.526 240.051 153.166 240.344 155.804 240.229C158.196 240.149 160.579 239.9 162.935 239.483C164.822 239.162 166.692 238.806 168.544 238.312C169.814 237.982 171.075 237.618 172.318 237.21C174.171 236.633 175.989 235.949 177.762 235.164C179.249 234.479 180.641 233.594 182.111 232.943C183.325 232.331 184.686 232.067 186.041 232.18C187.555 232.38 187.92 233.048 187.433 234.262C186.999 235.263 186.239 236.088 185.276 236.603C182.349 238.144 179.193 239.204 175.927 239.743C173.049 240.298 170.127 240.567 167.231 240.905C165.383 241.081 163.547 241.371 161.735 241.772C160.762 241.93 159.83 242.281 158.995 242.804C158.222 243.368 158.256 244.062 159.109 244.539C160.088 244.974 161.142 245.221 162.213 245.267C164.768 245.559 167.341 245.643 169.91 245.519C170.179 245.519 170.283 245.597 170.327 245.848C170.332 245.877 170.332 245.906 170.327 245.935L170.423 245.935C170.483 246.239 170.536 246.551 170.588 246.854L170.744 247.834C170.625 248.028 170.562 248.25 170.562 248.476C170.562 249.89 170.562 251.304 170.562 252.717C170.562 253.151 170.562 253.584 170.623 254.035C170.634 254.096 170.631 254.158 170.614 254.218C170.596 254.277 170.565 254.331 170.523 254.376C170.48 254.421 170.428 254.455 170.37 254.476C170.311 254.496 170.249 254.503 170.188 254.495C170.005 254.495 169.814 254.495 169.631 254.495C167.541 254.834 165.498 255.416 163.544 256.23C162.058 256.813 160.606 257.479 159.196 258.224C158.146 258.725 157.162 259.351 156.265 260.089C156.03 260.297 155.778 260.531 155.926 260.844C156.073 261.156 156.421 261.121 156.726 261.112C157.227 261.038 157.702 260.841 158.108 260.54C160.032 259.562 162.055 258.795 164.144 258.25C166.15 257.649 168.208 257.239 170.292 257.028C171.297 256.894 172.318 256.953 173.301 257.201C173.492 257.237 173.671 257.319 173.822 257.44C173.974 257.561 174.093 257.717 174.171 257.895C174.516 258.935 174.772 260.003 174.936 261.086C174.936 261.086 174.936 261.19 174.936 261.208C174.719 260.583 174.527 259.959 174.284 259.352C174.148 258.867 173.907 258.417 173.579 258.034C173.034 257.61 172.357 257.392 171.666 257.418C170.831 257.386 169.994 257.442 169.17 257.583C166.215 258.051 163.317 258.83 160.526 259.907C159.805 260.174 159.114 260.517 158.465 260.93C157.987 261.26 157.978 261.425 158.395 261.798L158.456 261.876C158.635 262.093 158.766 262.344 158.842 262.614C158.918 262.885 158.937 263.168 158.898 263.446C158.859 263.724 158.762 263.99 158.614 264.229C158.466 264.468 158.271 264.674 158.039 264.833C157.97 264.903 157.884 264.954 157.79 264.981C157.695 265.009 157.595 265.011 157.5 264.989C158.709 263.948 158.691 262.96 157.987 262.092C157.842 261.891 157.656 261.723 157.441 261.599C157.226 261.475 156.987 261.399 156.74 261.375C156.492 261.351 156.243 261.381 156.008 261.461C155.773 261.541 155.558 261.671 155.378 261.841C155.102 262.025 154.877 262.276 154.725 262.57C154.573 262.864 154.498 263.192 154.508 263.523C154.516 263.731 154.566 263.935 154.656 264.122C154.633 264.117 154.609 264.117 154.586 264.122L154.899 264.529C154.491 263.974 154.96 264.59 155.117 264.746C155.273 264.902 155.386 264.972 155.491 265.058C155.845 265.183 156.179 265.358 156.482 265.579C156.748 265.613 157.017 265.613 157.282 265.579C157.315 265.576 157.347 265.566 157.374 265.547C157.402 265.529 157.424 265.504 157.439 265.475C157.565 265.457 157.688 265.422 157.804 265.371C157.961 265.323 158.11 265.252 158.248 265.163C158.789 264.806 159.169 264.252 159.304 263.619C159.439 262.986 159.319 262.326 158.969 261.78C158.874 261.615 158.578 261.503 158.7 261.286C158.822 261.069 159.03 261.052 159.204 260.939L159.3 260.939C160.234 260.493 161.199 260.113 162.187 259.803C163.118 259.482 164.057 259.187 164.996 258.936C166.458 258.543 167.946 258.253 169.449 258.068C170.332 257.935 171.229 257.915 172.118 258.008C172.465 258.03 172.797 258.158 173.068 258.376C173.339 258.593 173.536 258.889 173.632 259.222C173.727 259.499 173.858 259.751 173.953 260.028C174.127 260.54 174.293 261.052 174.44 261.572C174.484 261.737 174.588 261.971 174.284 262.058C174.057 262.129 173.855 262.263 173.701 262.444C173.547 262.625 173.447 262.846 173.414 263.081C173.244 263.712 173.244 264.376 173.414 265.006C173.486 265.426 173.71 265.804 174.044 266.07C174.377 266.335 174.797 266.469 175.223 266.446C175.836 266.392 176.441 266.264 177.023 266.065C177.309 265.987 177.56 265.818 177.738 265.582C177.916 265.347 178.01 265.059 178.006 264.764C178.023 264.151 177.92 263.541 177.702 262.968C177.354 261.971 176.962 260.982 176.606 259.985C176.364 259.419 176.263 258.803 176.31 258.19C176.322 258.022 176.39 257.863 176.503 257.738C176.617 257.614 176.77 257.532 176.936 257.505C177.358 257.426 177.786 257.383 178.215 257.374C180.036 257.424 181.844 257.698 183.598 258.19C184.816 258.499 186.011 258.896 187.172 259.378C187.869 259.652 188.532 260.007 189.146 260.436C189.259 260.523 189.45 260.609 189.259 260.809C188.932 261.125 188.717 261.541 188.65 261.99C188.582 262.44 188.665 262.9 188.885 263.298C188.99 263.544 189.146 263.764 189.344 263.945C189.541 264.125 189.776 264.261 190.03 264.343C190.285 264.425 190.555 264.452 190.821 264.421C191.087 264.391 191.343 264.303 191.572 264.165C191.97 263.925 192.267 263.549 192.409 263.108C192.551 262.667 192.529 262.189 192.346 261.763C191.975 261.024 191.544 260.317 191.059 259.647C190.957 259.506 190.819 259.396 190.659 259.326C189.586 258.79 188.454 258.382 187.285 258.112C185.259 257.548 183.232 256.976 181.197 256.568C180.188 256.356 179.16 256.243 178.128 256.23C177.627 256.233 177.13 256.321 176.658 256.49C176.156 256.653 175.738 257.006 175.494 257.473C175.251 257.94 175.2 258.484 175.353 258.988C175.62 260.098 175.984 261.184 176.441 262.231C176.556 262.555 176.655 262.885 176.736 263.22C176.763 263.299 176.759 263.386 176.725 263.463C176.692 263.54 176.63 263.602 176.554 263.636C176.441 263.688 176.301 263.766 176.197 263.636C176.01 263.466 175.859 263.259 175.754 263.029C175.559 262.414 175.41 261.785 175.31 261.147C175.147 260.121 174.926 259.105 174.649 258.103C174.577 257.806 174.427 257.533 174.214 257.312C174.002 257.091 173.735 256.93 173.44 256.845C173.009 256.709 172.562 256.627 172.11 256.603C171.077 256.579 170.044 256.643 169.022 256.793C167.523 257.011 166.039 257.321 164.579 257.721C163.526 257.999 162.491 258.32 161.465 258.684C160.158 259.1 158.897 259.646 157.7 260.315C157.387 260.554 157.007 260.69 156.613 260.705C156.534 260.705 156.439 260.705 156.395 260.644C156.352 260.583 156.482 260.523 156.508 260.453C156.534 260.384 156.595 260.384 156.639 260.341C157.823 259.447 159.107 258.693 160.465 258.094C162.641 257.02 164.912 256.149 167.248 255.492C168.139 255.239 169.05 255.062 169.97 254.963C170.84 254.885 171.04 254.729 171.023 253.836C171.023 253.645 171.023 253.446 171.023 253.246C170.91 251.807 170.953 250.358 170.944 248.91C170.943 248.714 170.969 248.518 171.023 248.329C171.321 248.579 171.694 248.725 172.084 248.745L172.171 248.745C172.281 248.807 172.402 248.849 172.527 248.867C173.329 249.001 174.14 249.071 174.953 249.075C175.51 249.075 175.736 249.283 175.745 249.847C175.754 250.41 175.745 251.165 175.693 251.824C175.648 252.355 175.633 252.887 175.649 253.42C175.631 253.567 175.643 253.717 175.683 253.861C175.724 254.004 175.793 254.137 175.886 254.254C175.979 254.37 176.095 254.467 176.226 254.538C176.357 254.609 176.501 254.654 176.649 254.669C176.788 254.677 176.928 254.677 177.067 254.669C178.237 254.715 179.401 254.863 180.545 255.111C182.46 255.584 184.348 256.163 186.198 256.845C187.355 257.253 188.511 257.652 189.676 258.016C190.499 258.247 191.284 258.594 192.007 259.048C192.433 259.343 192.425 259.465 192.007 259.759C191.746 259.95 191.755 260.046 192.051 260.202C192.177 260.26 192.299 260.326 192.416 260.401C192.65 260.574 192.83 260.808 192.936 261.078C193.042 261.348 193.07 261.643 193.016 261.928C193.006 262.419 192.862 262.899 192.6 263.316C192.338 263.733 191.968 264.071 191.529 264.295C191.45 264.341 191.382 264.403 191.328 264.476C191.275 264.549 191.236 264.632 191.216 264.72C191.421 264.669 191.631 264.634 191.842 264.616C191.146 264.677 191.451 264.616 191.842 264.616C191.985 264.544 192.122 264.46 192.251 264.365C192.819 263.851 193.201 263.165 193.338 262.413C193.472 261.998 193.476 261.552 193.348 261.135C193.221 260.718 192.968 260.35 192.625 260.08C192.555 260.028 192.538 259.968 192.625 259.855C192.72 259.709 192.755 259.532 192.723 259.36C192.69 259.189 192.593 259.037 192.451 258.936C192.256 258.773 192.043 258.633 191.816 258.519C190.889 258.081 189.93 257.716 188.946 257.426C186.85 256.741 184.798 255.943 182.685 255.328C181.248 254.882 179.771 254.577 178.275 254.417C177.706 254.42 177.137 254.362 176.58 254.244C176.467 254.22 176.365 254.161 176.288 254.075C176.211 253.989 176.164 253.881 176.154 253.767C176.088 253.263 176.088 252.753 176.154 252.249C176.219 251.418 176.236 250.584 176.206 249.751C176.198 249.535 176.126 249.325 175.999 249.15C175.872 248.974 175.696 248.839 175.493 248.762C175.545 248.762 175.597 248.702 175.588 248.632L175.588 247.704L175.701 246.308C175.71 246.265 175.71 246.221 175.701 246.178C175.623 245.311 175.797 245.259 176.832 245.311L177.101 245.311C180.261 245.545 183.437 245.276 186.511 244.513C189.398 243.792 192.134 242.564 194.59 240.888C196.665 239.379 198.616 237.709 200.425 235.892C203.309 233.261 205.159 229.691 205.643 225.823C205.972 223.223 205.48 220.586 204.234 218.278ZM156.874 265.006C156.874 265.05 156.934 265.085 156.952 265.119C156.969 265.154 156.952 265.241 156.952 265.284C156.435 265.207 155.935 265.042 155.473 264.798C155.397 264.68 155.313 264.567 155.221 264.46C155.019 264.26 154.887 263.999 154.846 263.717C154.805 263.436 154.858 263.148 154.995 262.899C155.165 262.56 155.441 262.286 155.782 262.118C156.123 261.951 156.509 261.899 156.882 261.971C157.1 262.048 157.296 262.174 157.456 262.34C157.616 262.505 157.736 262.705 157.806 262.924C157.876 263.143 157.894 263.376 157.859 263.603C157.824 263.83 157.737 264.046 157.604 264.235C157.43 264.547 157.056 264.686 156.874 265.006ZM174.91 261.598C175.058 262.162 175.171 262.673 175.319 263.159C175.446 263.534 175.69 263.859 176.014 264.087C176.414 264.382 177.128 263.957 177.171 263.428C177.177 263.172 177.13 262.918 177.032 262.682C176.98 262.559 176.962 262.424 176.98 262.292C176.754 262.101 176.745 261.798 176.641 261.555C176.295 260.765 176.019 259.946 175.814 259.109C175.51 257.773 176.11 256.976 177.484 256.785C178.22 256.685 178.966 256.685 179.702 256.785C181.643 257.081 183.561 257.512 185.441 258.077C186.868 258.459 188.294 258.831 189.676 259.352C189.979 259.423 190.263 259.561 190.506 259.754C190.75 259.947 190.948 260.192 191.085 260.471C191.294 260.965 191.781 261.338 191.955 261.858C192.103 262.175 192.141 262.531 192.064 262.872C191.987 263.212 191.799 263.518 191.529 263.74C191.361 263.858 191.17 263.94 190.969 263.98C190.767 264.019 190.559 264.016 190.359 263.97C190.159 263.924 189.971 263.837 189.806 263.714C189.642 263.59 189.506 263.434 189.407 263.255C189.197 262.94 189.097 262.565 189.12 262.188C189.144 261.81 189.29 261.451 189.537 261.164C189.558 261.137 189.582 261.11 189.607 261.086C189.729 260.948 189.998 260.93 189.963 260.67C189.929 260.41 189.729 260.315 189.563 260.176C188.734 259.557 187.813 259.071 186.833 258.736C185.812 258.338 184.766 258.007 183.702 257.747C181.909 257.225 180.056 256.934 178.189 256.88C177.739 256.89 177.291 256.939 176.849 257.028C176.529 257.119 176.254 257.326 176.077 257.608C175.9 257.889 175.835 258.227 175.893 258.554C176.056 259.519 176.33 260.462 176.71 261.364C176.806 261.641 177.015 261.893 176.988 262.231C177.233 262.675 177.404 263.155 177.493 263.654C177.545 263.796 177.58 263.945 177.597 264.096C177.728 265.137 177.432 265.535 176.371 265.752L175.501 265.917C175.32 265.959 175.132 265.962 174.95 265.926C174.767 265.891 174.594 265.818 174.442 265.711C174.289 265.605 174.161 265.468 174.065 265.309C173.969 265.151 173.907 264.974 173.884 264.79C173.745 264.249 173.745 263.682 173.884 263.142C174.006 262.665 174.24 262.353 174.675 262.37C174.893 262.37 174.953 262.249 174.953 262.058C174.953 261.867 174.91 261.824 174.91 261.607L174.91 261.598ZM188.355 197.724C188.178 197.829 188.009 197.948 187.85 198.079C187.624 198.287 187.415 198.521 187.528 198.851C187.642 199.181 187.92 199.25 188.224 199.311C189.45 199.55 190.697 199.661 191.946 199.64C192.054 199.638 192.159 199.675 192.242 199.744L184.241 200.005C184.731 198.944 185.546 198.065 186.567 197.495C187.589 196.925 188.766 196.692 189.929 196.83L188.355 197.724ZM191.781 195.928C191.126 196.064 190.459 196.131 189.79 196.128C188.559 196.033 187.328 196.306 186.253 196.911C185.178 197.517 184.308 198.427 183.754 199.528C183.528 199.909 183.337 200.057 182.885 199.805C182.617 199.668 182.315 199.607 182.015 199.632L180.006 199.632C178.954 199.632 178.684 199.415 178.362 198.461C178.362 198.365 178.31 198.287 178.406 198.235C178.997 197.862 179.423 197.177 180.223 197.195C180.822 197.159 181.411 197.022 181.963 196.787C185.009 195.824 188.177 195.296 191.372 195.217L193.425 195.122L193.477 195.243C192.954 195.567 192.381 195.801 191.781 195.937L191.781 195.928ZM187.494 189.944C189.877 189.077 192.216 188.036 194.564 187.047C195.183 186.722 195.889 186.6 196.581 186.701L195.042 187.247C193.051 187.941 191.146 188.869 189.198 189.667C187.171 190.534 185.066 191.208 182.911 191.679C182.349 191.858 181.752 191.897 181.171 191.791C183.335 191.392 185.454 190.776 187.494 189.953L187.494 189.944ZM164.883 189.008C164.767 187.983 164.922 186.947 165.335 186.001C165.747 185.056 166.401 184.236 167.231 183.622C168.661 182.335 170.523 181.63 172.449 181.644C173.539 181.637 174.61 181.938 175.536 182.512C175.636 182.565 175.723 182.64 175.789 182.732C175.856 182.823 175.9 182.929 175.919 183.041C175.965 183.428 176.118 183.795 176.361 184.101C176.603 184.407 176.926 184.641 177.293 184.775C178.054 185.043 178.738 185.492 179.284 186.085C179.523 186.495 179.665 186.954 179.701 187.427C179.737 187.9 179.666 188.375 179.493 188.817C179.31 189.545 179.042 190.25 178.693 190.916C178.423 191.445 178.493 191.601 179.084 191.835C178.498 191.858 177.911 191.791 177.345 191.635C176.69 191.512 176.045 191.341 175.414 191.124C175.242 191.051 175.061 191.001 174.875 190.976C175.24 191.115 175.545 191.254 175.545 191.332C175.232 191.332 175.293 191.783 175.032 191.757L175.484 191.87C176.625 192.182 177.788 192.408 178.963 192.546C180.595 192.682 182.239 192.541 183.824 192.13C186.784 191.35 189.666 190.299 192.433 188.99C193.972 188.241 195.587 187.659 197.251 187.256C198.19 187.074 198.669 187.403 198.877 188.4C199.125 189.639 199.01 190.923 198.548 192.099C198.086 193.275 197.294 194.294 196.268 195.035C195.657 195.485 194.905 195.707 194.146 195.659C194.477 195.347 195.016 195.235 194.816 194.792C194.616 194.35 194.207 194.445 193.851 194.454C191.09 194.46 188.335 194.7 185.615 195.174C184.03 195.453 182.473 195.874 180.963 196.431C180.537 196.596 180.093 196.431 179.606 196.622C179.317 196.685 179.047 196.813 178.815 196.995C177.705 197.961 176.382 198.65 174.953 199.007C173.997 199.337 173.023 199.623 172.049 199.926C171.831 199.996 171.649 200.109 171.666 200.351C171.684 200.594 171.927 200.69 172.127 200.698C174.049 200.785 175.875 200.534 177.345 199.137C177.754 198.756 177.797 198.764 177.971 199.276C178.249 200.065 178.936 200.143 179.632 200.247C180.328 200.351 180.928 200.247 181.58 200.247C181.806 200.21 182.037 200.263 182.224 200.395C178.27 201.208 174.202 201.305 170.214 200.681C170.944 199.302 169.588 199.077 168.97 198.365C169.215 198.338 169.463 198.355 169.701 198.417C170.845 198.659 172.01 198.795 173.179 198.825C173.353 198.847 173.528 198.847 173.701 198.825C174.066 198.73 174.493 198.704 174.571 198.183C174.599 197.965 174.556 197.743 174.448 197.551C174.34 197.358 174.173 197.206 173.971 197.117C173.28 196.806 172.529 196.649 171.771 196.657C170.579 196.57 169.379 196.535 168.179 196.483C167.846 196.478 167.517 196.404 167.214 196.267C167.083 196.206 166.883 196.163 166.935 195.946C166.988 195.729 167.153 195.72 167.309 195.703C167.747 195.665 168.188 195.68 168.622 195.746C169.91 195.928 171.231 196.145 172.484 196.284C173.569 196.45 174.679 196.315 175.693 195.894C175.836 195.85 175.96 195.762 176.048 195.641C176.136 195.521 176.182 195.375 176.18 195.226C176.18 194.87 175.91 194.697 175.588 194.575C174.316 194.222 172.991 194.096 171.675 194.202C170.51 194.223 169.346 194.142 168.196 193.96C167.972 193.907 167.76 193.813 167.57 193.682C167.987 193.405 168.496 193.303 168.988 193.396C169.955 193.585 170.941 193.666 171.927 193.639C172.42 193.616 172.906 193.507 173.362 193.318C173.692 193.179 173.997 192.954 173.919 192.537C173.84 192.121 173.527 192.052 173.153 192.052C171.87 192.001 170.59 191.885 169.318 191.705C169.318 191.705 169.318 191.627 169.318 191.618C170.049 191.21 170.057 191.106 169.396 190.569C169.396 190.569 169.301 190.517 169.266 190.482C169.231 190.447 168.927 190.161 169.014 189.944C169.101 189.727 169.362 189.823 169.527 189.857C170.259 190.033 170.975 190.271 171.666 190.569C171.988 190.681 173.405 191.141 174.275 191.436L174.127 191.349C174.221 191.21 174.352 191.101 174.507 191.034C174.661 190.968 174.831 190.948 174.997 190.976C174.484 190.785 173.849 190.603 173.779 190.577C172.527 190.135 171.284 189.71 170.023 189.25C169.768 189.179 169.504 189.147 169.24 189.155C168.483 189.155 168.135 189.649 168.414 190.36C168.414 190.465 168.605 190.534 168.509 190.733C168.449 190.803 168.353 190.733 168.275 190.655C167.648 190.195 166.876 189.977 166.1 190.04C165.161 190.057 164.961 189.883 164.857 189.016L164.883 189.008ZM148.664 198.548C147.515 197.077 146.483 195.52 145.577 193.89C146.725 195.339 148.36 196.492 148.638 198.565L148.664 198.548ZM204.939 226.396C204.487 229.244 203.208 231.897 201.26 234.028C199.641 235.8 197.898 237.455 196.042 238.98C193.301 241.241 190.104 242.889 186.668 243.81C183.83 244.541 180.897 244.833 177.971 244.678C177.284 244.678 176.597 244.626 175.91 244.678C175.223 244.73 175.145 244.912 175.11 245.493C175.11 245.727 175.11 245.961 175.11 246.187L175.058 246.187C175.028 246.426 175.028 246.667 175.058 246.907C175.065 247.488 175.114 248.067 175.206 248.641L175.206 248.684C175.133 248.675 175.06 248.675 174.988 248.684C174.372 248.69 173.756 248.652 173.145 248.572C172.949 248.561 172.754 248.538 172.562 248.502C172.563 248.471 172.554 248.44 172.537 248.414C172.52 248.388 172.495 248.367 172.466 248.355L172.301 248.277C172.34 248.248 172.38 248.222 172.423 248.199L171.875 248.043C171.639 247.931 171.395 247.839 171.144 247.765L171.057 247.765L171.057 247.661C170.988 247.184 170.962 246.629 170.849 246.126L170.953 246.126C170.951 245.863 170.919 245.601 170.857 245.345C170.753 244.86 170.527 244.712 169.988 244.747C167.407 244.918 164.817 244.854 162.248 244.556C161.405 244.487 160.571 244.33 159.761 244.088C159.491 244.001 159.109 243.914 159.065 243.628C159.022 243.342 159.378 243.229 159.63 243.099C160.533 242.678 161.49 242.386 162.474 242.232C163.97 241.928 165.483 241.72 167.005 241.521C169.301 241.209 171.614 241.044 173.91 240.653C175.649 240.35 177.388 240.046 179.128 239.595C181.111 239.086 183.037 238.377 184.876 237.479C186.25 236.851 187.356 235.757 187.998 234.392C188.236 233.978 188.306 233.488 188.195 233.024C188.083 232.56 187.798 232.156 187.398 231.894C186.972 231.642 186.492 231.49 185.998 231.452C184.309 231.365 182.63 231.746 181.145 232.553C179.406 233.42 177.78 234.409 175.971 235.094C174.032 235.84 172.075 236.543 170.075 237.124C167.614 237.827 165.114 238.383 162.587 238.789C160.404 239.165 158.2 239.402 155.987 239.5C152.964 239.671 149.935 239.295 147.047 238.39C145.406 237.938 143.884 237.136 142.585 236.04C138.811 232.51 137.211 228.234 138.315 223.091L138.55 222.701C138.545 222.661 138.545 222.62 138.55 222.58C138.766 221.929 139.058 221.306 139.42 220.724C139.42 220.646 139.515 220.576 139.559 220.507C139.315 220.81 139.098 221.105 138.846 221.374C138.794 221.435 138.646 221.374 138.576 221.27C138.507 221.166 138.576 221.079 138.655 221.01C138.872 220.784 139.255 220.646 138.985 220.212C138.933 220.125 139.098 220.021 139.194 220.03C139.42 220.03 139.463 220.264 139.594 220.429C140.023 219.673 140.652 219.05 141.411 218.625C142.075 218.264 142.833 218.113 143.585 218.191C144.132 218.21 144.663 218.381 145.118 218.684C145.572 218.988 145.933 219.412 146.16 219.908L146.247 220.012C146.57 220.509 146.729 221.095 146.699 221.686C146.837 222.869 146.749 224.067 146.438 225.216C146.251 225.914 146.181 226.638 146.229 227.358C146.391 228.749 146.851 230.089 147.577 231.287C147.828 231.673 148.208 231.959 148.649 232.094C149.09 232.229 149.565 232.205 149.99 232.026C150.415 231.847 150.764 231.525 150.974 231.115C151.185 230.706 151.245 230.235 151.143 229.787C150.812 228.65 150.43 227.523 150.064 226.396C149.195 223.837 148.403 221.279 147.56 218.729C146.4 215.419 145.418 212.049 144.62 208.634C144.263 207.218 144.134 205.754 144.238 204.298C144.266 203.628 144.518 202.988 144.952 202.477C145.387 201.967 145.98 201.615 146.638 201.479C147.603 201.218 148.595 201.066 149.595 201.028C151.83 200.846 154.065 200.924 156.3 200.906C156.865 200.906 157.43 200.906 157.987 200.906C159.282 200.811 159.665 200.109 159.039 198.99C158.447 197.945 157.766 196.953 157.004 196.024C156.129 194.838 154.889 193.97 153.473 193.552C152.329 193.315 151.155 193.265 149.995 193.405C149.206 193.485 148.41 193.402 147.655 193.162C147.19 192.95 146.67 192.889 146.168 192.988C146.068 193.019 145.959 193.012 145.863 192.969C145.767 192.926 145.69 192.85 145.646 192.754C145.169 192.028 144.786 191.244 144.507 190.421C144.066 189.233 143.929 187.955 144.107 186.701C144.116 186.44 144.19 186.186 144.322 185.961C144.455 185.736 144.641 185.548 144.864 185.413C145.088 185.278 145.342 185.2 145.603 185.187C145.864 185.174 146.124 185.226 146.36 185.339C147.036 185.624 147.738 185.844 148.455 185.998C150.805 186.391 153.088 187.109 155.239 188.132C157.221 189.051 159.169 190.022 161.135 190.976C162.297 191.656 163.677 191.861 164.987 191.549C165.789 191.334 166.642 191.417 167.388 191.783C168.132 192.093 168.917 192.297 169.718 192.39C170.741 192.544 171.772 192.645 172.805 192.693C172.745 192.841 172.649 192.832 172.562 192.85C171.507 193.051 170.421 193.021 169.379 192.763C168.705 192.609 167.998 192.682 167.37 192.971C167.229 193.022 167.106 193.113 167.016 193.233C166.926 193.354 166.874 193.498 166.866 193.647C166.867 193.789 166.909 193.926 166.988 194.043C167.067 194.161 167.179 194.252 167.309 194.307C167.855 194.563 168.446 194.71 169.049 194.74C170.675 194.966 172.318 194.74 173.953 194.888C174.495 194.897 175.028 195.031 175.51 195.278C174.598 195.622 173.616 195.739 172.649 195.616C171.362 195.46 170.04 195.252 168.788 195.087C168.17 194.944 167.527 194.944 166.909 195.087C166.737 195.128 166.583 195.225 166.473 195.364C166.362 195.502 166.302 195.673 166.3 195.85C166.288 196.034 166.334 196.217 166.432 196.373C166.531 196.529 166.676 196.65 166.848 196.718C167.247 196.903 167.678 197.009 168.118 197.03C169.292 197.073 170.475 197.108 171.649 197.212C172.352 197.176 173.052 197.319 173.684 197.628C173.797 197.698 173.927 197.724 173.91 197.88C173.892 198.036 173.727 198.071 173.597 198.088C173.124 198.121 172.649 198.107 172.179 198.044C170.866 197.932 169.57 197.628 168.266 197.481C168.031 197.481 167.735 197.403 167.614 197.68C167.492 197.958 167.683 198.166 167.901 198.331C168.483 198.756 169.057 199.198 169.64 199.614C169.753 199.701 169.918 199.822 169.788 200.005C169.742 200.071 169.674 200.119 169.597 200.142C169.519 200.164 169.436 200.158 169.362 200.126C169.057 200.009 168.766 199.861 168.492 199.684C167.518 199.016 166.701 198.175 165.77 197.472C165.527 197.29 165.222 197.16 165.092 196.848C164.689 196.004 164.119 195.251 163.416 194.632C162.714 194.014 161.894 193.543 161.004 193.248C158.291 192.281 155.441 191.745 152.56 191.661C152.143 191.661 151.873 191.757 151.786 192.173C151.699 192.589 151.995 192.763 152.325 192.876C154.019 193.467 155.767 193.891 157.543 194.142C160.096 194.588 162.492 195.681 164.5 197.316C164.857 197.585 164.839 197.776 164.439 197.949C164.264 198.014 164.115 198.133 164.013 198.289C163.911 198.446 163.863 198.63 163.874 198.816C163.883 199.027 163.849 199.237 163.776 199.435C163.703 199.633 163.592 199.815 163.448 199.97C163.309 200.143 163.152 200.299 163.265 200.525C163.378 200.75 163.622 200.716 163.831 200.724C164.953 200.785 166.083 200.724 167.205 200.863C169.283 201.106 171.362 201.349 173.44 201.548C175.267 201.674 177.101 201.674 178.928 201.548C180.737 201.453 182.45 200.802 184.25 200.681C184.98 200.629 185.702 200.455 186.45 200.455C187.676 200.455 188.911 200.456 190.137 200.377C191.701 200.289 193.27 200.37 194.816 200.62C195.656 200.72 196.443 201.08 197.067 201.649C197.691 202.219 198.121 202.969 198.295 203.794C198.668 205.348 198.73 206.961 198.477 208.538C198.385 209.358 198.06 210.135 197.541 210.777C197.022 211.419 196.33 211.9 195.547 212.164C193.884 212.806 192.112 213.124 190.329 213.1C182.401 213.301 174.47 212.968 166.587 212.103C164.544 211.851 162.509 211.591 160.5 211.236C159.013 210.966 157.507 210.812 155.995 210.776C154.234 210.621 152.469 211.025 150.951 211.929C149.56 212.875 149.108 213.95 149.873 215.459C150.352 216.303 151.116 216.949 152.03 217.281C153.333 217.803 154.703 218.142 156.1 218.287C158.828 218.592 161.579 218.65 164.318 218.46C166.631 218.347 168.944 218.148 171.275 217.896C173.11 217.706 174.936 217.471 176.762 217.211C178.589 216.951 180.484 216.647 182.337 216.344C184.606 215.988 186.885 215.641 189.155 215.277C190.032 215.094 190.93 215.027 191.825 215.078C192.326 215.103 192.813 215.25 193.244 215.507C193.675 215.764 194.035 216.123 194.294 216.552C194.863 217.667 195.087 218.926 194.938 220.169C194.754 222.492 194.373 224.796 193.799 227.055C193.501 228.189 193.332 229.352 193.294 230.524C193.294 231.391 193.659 231.738 194.564 231.929C194.887 232.003 195.227 231.955 195.517 231.795C195.808 231.635 196.029 231.374 196.138 231.061C196.539 230.124 196.746 229.115 196.747 228.095C196.755 225.571 196.965 223.051 197.373 220.559C197.461 219.791 197.759 219.063 198.232 218.451C198.706 217.84 199.338 217.369 200.06 217.09C200.641 216.815 201.303 216.764 201.919 216.947C202.536 217.129 203.063 217.532 203.399 218.078C204.946 220.564 205.487 223.544 204.913 226.413L204.939 226.396ZM168.048 200.377C166.848 200.23 165.64 200.299 164.439 200.187C164.274 200.187 164.187 200.083 164.257 199.892C164.335 199.776 164.38 199.641 164.387 199.502C164.3 198.851 164.631 198.634 165.196 198.4C165.3 198.343 165.421 198.322 165.538 198.339C165.656 198.356 165.765 198.411 165.848 198.495C166.553 199.094 167.231 199.753 168.022 200.36L168.048 200.377ZM163.483 195.859C163.02 195.699 162.586 195.468 162.196 195.174C160.305 194.17 158.238 193.54 156.108 193.318C155.152 193.142 154.209 192.908 153.282 192.615C155.926 192.017 162.352 194.072 163.457 195.842L163.483 195.859Z" fill="#231F20"/>
<path opacity="0.7" d="M363.403 222.978L367.176 228.283L365.74 228.283L361.707 223.101L361.707 222.841L365.741 217.66L367.176 217.66L363.403 222.978ZM367.627 222.978L371.401 228.283L369.965 228.283L365.932 223.101L365.932 222.841L369.965 217.66L371.401 217.66L367.627 222.978ZM374.203 228.884L376.432 228.706L376.432 211.576L374.204 211.398L374.204 210.181L393.248 210.181L393.248 211.398L391.02 211.575L391.02 228.706L393.248 228.884L393.248 230.087L387.164 230.087L387.164 228.884L389.393 228.706L389.393 211.575L378.059 211.576L378.059 228.706L380.287 228.884L380.287 230.087L374.203 230.087L374.203 228.884ZM395.832 222.472C395.832 220.293 396.429 218.507 397.623 217.112C398.817 215.718 400.399 215.021 402.368 215.021C404.345 215.021 405.931 215.718 407.125 217.112C408.319 218.507 408.916 220.293 408.916 222.472L408.916 222.923C408.916 225.11 408.319 226.901 407.125 228.296C405.94 229.681 404.363 230.374 402.395 230.374C400.408 230.374 398.817 229.681 397.623 228.296C396.429 226.902 395.832 225.111 395.832 222.923L395.832 222.472ZM397.473 222.923C397.473 224.637 397.906 226.077 398.772 227.243C399.638 228.41 400.845 228.993 402.395 228.993C403.917 228.993 405.111 228.41 405.977 227.243C406.843 226.077 407.276 224.636 407.276 222.923L407.276 222.472C407.276 220.786 406.838 219.355 405.963 218.179C405.097 217.003 403.899 216.415 402.368 216.415C400.836 216.415 399.638 217.003 398.772 218.179C397.906 219.355 397.473 220.786 397.473 222.472L397.473 222.923ZM416.012 216.702L416.012 221.829C416.012 224.728 415.67 226.828 414.987 228.132C414.312 229.435 413.173 230.087 411.569 230.087L410.981 230.087L410.994 228.624L411.514 228.61C412.516 228.61 413.241 228.109 413.688 227.106C414.143 226.095 414.371 224.336 414.371 221.829L414.371 216.688L412.143 216.511L412.143 215.294L426.143 215.294L426.143 216.511L423.914 216.688L423.914 228.706L426.143 228.884L426.143 230.087L420.045 230.087L420.045 228.884L422.274 228.706L422.274 216.702L416.012 216.702ZM429.055 216.511L429.055 215.294L435.139 215.294L435.139 216.511L432.91 216.688L432.91 221.925L440.881 221.925L440.881 216.688L438.653 216.51L438.653 215.294L440.881 215.294L442.522 215.294L444.75 215.294L444.75 216.51L442.522 216.688L442.522 228.706L444.75 228.883L444.75 230.087L438.653 230.087L438.653 228.884L440.881 228.706L440.881 223.305L432.91 223.305L432.91 228.706L435.139 228.884L435.139 230.087L429.055 230.087L429.055 228.884L431.283 228.706L431.284 216.688L429.055 216.511ZM451.668 215.294L451.668 220.667L455.907 220.667C457.602 220.667 458.928 221.104 459.885 221.979C460.842 222.845 461.321 223.971 461.321 225.356C461.321 226.75 460.842 227.89 459.885 228.774C458.928 229.649 457.602 230.086 455.906 230.086L447.813 230.087L447.813 228.883L450.041 228.706L450.041 216.688L447.813 216.51L447.813 215.294L450.041 215.294L451.668 215.294ZM451.668 222.061L451.668 228.706L455.906 228.706C457.173 228.706 458.117 228.391 458.737 227.762C459.365 227.124 459.68 226.331 459.68 225.383C459.68 224.472 459.365 223.693 458.737 223.045C458.108 222.389 457.164 222.061 455.907 222.061L451.668 222.061ZM462.059 228.883L464.287 228.706L464.287 216.688L462.059 216.51L462.059 215.293L465.914 215.293L465.914 228.706L468.143 228.883L468.143 230.086L462.059 230.086L462.059 228.883ZM453.897 215.294L453.897 216.51L451.668 216.688L451.668 215.294L453.897 215.294ZM476.127 215.293L476.127 216.51L473.899 216.688L473.899 227.352L473.981 227.366L481.883 215.293L483.524 215.293L485.752 215.293L485.752 216.51L483.524 216.688L483.524 228.705L485.752 228.883L485.752 230.086L479.654 230.086L479.654 228.883L481.883 228.705L481.883 218.014L481.801 217.987L473.899 230.086L470.043 230.086L470.043 228.883L472.272 228.705L472.272 216.688L470.043 216.51L470.043 215.293L473.899 215.293L476.127 215.293ZM481.938 209.578L481.965 209.66C482.002 210.672 481.669 211.502 480.967 212.149C480.265 212.787 479.313 213.106 478.11 213.106C476.888 213.106 475.927 212.787 475.225 212.149C474.523 211.511 474.195 210.681 474.241 209.661L474.268 209.578L475.553 209.578C475.553 210.28 475.758 210.845 476.168 211.274C476.579 211.702 477.226 211.916 478.11 211.916C478.967 211.916 479.605 211.698 480.024 211.26C480.443 210.823 480.653 210.262 480.653 209.578L481.938 209.578ZM361.898 265.884L364.127 265.707L364.127 253.689L361.898 253.511L361.898 252.294L377.607 252.294L377.607 253.511L375.379 253.689L375.379 265.706L377.607 265.884L377.607 267.087L371.51 267.087L371.51 265.884L373.738 265.706L373.738 253.703L365.754 253.703L365.754 265.707L367.982 265.884L367.982 267.087L361.898 267.087L361.898 265.884ZM380.656 259.472C380.656 257.294 381.253 255.507 382.447 254.113C383.641 252.718 385.223 252.021 387.191 252.021C389.169 252.021 390.755 252.718 391.949 254.113C393.143 255.507 393.74 257.294 393.74 259.472L393.74 259.923C393.74 262.111 393.143 263.902 391.949 265.296C390.764 266.682 389.187 267.374 387.219 267.374C385.232 267.374 383.641 266.682 382.447 265.296C381.253 263.902 380.656 262.111 380.656 259.923L380.656 259.472ZM382.297 259.923C382.297 261.637 382.73 263.077 383.596 264.243C384.461 265.41 385.669 265.993 387.219 265.993C388.741 265.993 389.935 265.41 390.801 264.243C391.667 263.077 392.099 261.637 392.099 259.923L392.099 259.472C392.1 257.786 391.662 256.355 390.787 255.179C389.921 254.003 388.723 253.415 387.191 253.415C385.66 253.415 384.462 254.003 383.596 255.179C382.73 256.355 382.297 257.786 382.297 259.472L382.297 259.923ZM395.969 253.511L395.969 252.294L399.564 252.294L399.769 254.591C400.271 253.771 400.909 253.137 401.684 252.691C402.467 252.244 403.383 252.021 404.432 252.021C406.209 252.021 407.599 252.732 408.602 254.153C409.604 255.566 410.105 257.453 410.105 259.814L410.105 260.101C410.105 262.315 409.604 264.084 408.601 265.405C407.599 266.718 406.218 267.374 404.459 267.374C403.42 267.374 402.508 267.178 401.724 266.786C400.95 266.385 400.316 265.82 399.824 265.091L399.824 271.38L402.052 271.558L402.052 272.775L395.968 272.775L395.969 271.558L398.197 271.38L398.197 253.689L395.969 253.511ZM408.465 259.814C408.465 257.936 408.091 256.405 407.344 255.22C406.596 254.035 405.503 253.442 404.062 253.442C402.96 253.443 402.062 253.707 401.369 254.235C400.685 254.755 400.17 255.434 399.824 256.273L399.824 263.382C400.198 264.193 400.736 264.831 401.437 265.296C402.148 265.761 403.032 265.993 404.09 265.993C405.521 265.993 406.605 265.455 407.344 264.38C408.091 263.304 408.465 261.878 408.465 260.101L408.465 259.814ZM418.732 261.126L415.123 267.087L412.347 267.087L412.347 265.884L414.125 265.747L417.051 260.935C416.03 260.661 415.241 260.151 414.685 259.403C414.129 258.656 413.851 257.758 413.851 256.71C413.851 255.416 414.316 254.358 415.246 253.538C416.185 252.709 417.488 252.294 419.156 252.294L427.209 252.294L427.209 253.511L424.98 253.688L424.98 265.706L427.209 265.884L427.209 267.087L421.111 267.087L421.111 265.884L423.34 265.706L423.34 261.126L418.732 261.126ZM415.492 256.737C415.492 257.576 415.756 258.287 416.285 258.87C416.823 259.444 417.629 259.731 418.705 259.731L423.34 259.731L423.34 253.688L419.156 253.688C417.935 253.688 417.019 253.985 416.408 254.577C415.797 255.16 415.492 255.881 415.492 256.737ZM430.873 265.706C431.657 264.722 432.281 263.692 432.746 262.616C433.211 261.531 433.493 259.873 433.594 257.639L433.771 253.688L431.611 253.511L431.611 252.294L444.805 252.294L444.805 253.51L442.576 253.688L442.576 265.706L444.107 265.706L443.984 271.434L442.48 271.434L442.48 267.087L431.365 267.087L431.365 271.434L429.916 271.434L429.806 265.706L430.873 265.706ZM435.221 257.639C435.139 259.572 434.879 261.19 434.441 262.493C434.004 263.796 433.443 264.867 432.76 265.706L440.935 265.706L440.935 253.825L435.398 253.825L435.221 257.639ZM447.703 259.471C447.703 257.293 448.3 255.506 449.494 254.112C450.688 252.717 452.269 252.02 454.238 252.02C456.216 252.02 457.802 252.717 458.996 254.112C460.19 255.506 460.787 257.293 460.787 259.471L460.787 259.922C460.787 262.11 460.19 263.901 458.996 265.295C457.811 266.681 456.234 267.374 454.265 267.374C452.278 267.374 450.688 266.681 449.494 265.296C448.3 263.901 447.703 262.11 447.703 259.923L447.703 259.471ZM449.344 259.922C449.344 261.636 449.777 263.076 450.642 264.243C451.508 265.409 452.716 265.993 454.265 265.993C455.788 265.993 456.982 265.409 457.847 264.243C458.713 263.076 459.146 261.636 459.146 259.922L459.146 259.471C459.146 257.785 458.709 256.354 457.834 255.178C456.968 254.002 455.769 253.415 454.238 253.415C452.707 253.415 451.508 254.003 450.643 255.178C449.777 256.354 449.344 257.785 449.344 259.471L449.344 259.922ZM463.453 253.51L463.453 252.293L469.551 252.293L469.551 253.51L467.322 253.688L467.322 258.856L469.51 258.856L473.133 254.248C473.743 253.465 474.29 252.909 474.773 252.58C475.266 252.252 475.803 252.088 476.387 252.088C476.678 252.088 476.943 252.134 477.18 252.225C477.426 252.307 477.676 252.425 477.932 252.58L477.576 253.784C477.412 253.729 477.257 253.683 477.111 253.647C476.975 253.61 476.815 253.592 476.633 253.592C476.232 253.592 475.867 253.706 475.539 253.934C475.211 254.162 474.833 254.545 474.404 255.082L470.959 259.444L476.523 265.719L478.465 265.883L478.465 267.086L475.58 267.086L469.592 260.305L467.322 260.305L467.322 265.706L469.551 265.883L469.551 267.086L463.453 267.086L463.453 265.883L465.681 265.706L465.682 253.688L463.453 253.51ZM482.033 254.18L486.066 259.43L486.066 259.69L482.033 264.871L480.597 264.871L484.371 259.567L480.598 254.18L482.033 254.18ZM486.34 254.18L490.373 259.43L490.373 259.69L486.34 264.871L484.904 264.871L488.678 259.567L484.904 254.18L486.34 254.18Z" fill="#1C1D21"/>
<rect width="84.4736" height="84.4736" transform="matrix(1 -1.03334e-05 -1.03334e-05 1 259.522 197.836)" fill="#1C1D21"/>
<path d="M269.519 263.293L269.519 259.207L283.959 243.162C286.543 240.275 288.289 237.985 289.197 236.289C290.125 234.594 290.589 232.858 290.59 231.082C290.59 228.882 289.944 227.036 288.652 225.542C287.36 224.029 285.655 223.272 283.536 223.272C280.488 223.272 278.248 224.049 276.815 225.603C275.382 227.157 274.666 229.357 274.666 232.203L268.944 232.203L268.883 232.021C268.783 228.227 270.034 225.038 272.637 222.455C275.261 219.871 278.894 218.58 283.536 218.579C287.512 218.579 290.67 219.74 293.011 222.061C295.373 224.362 296.553 227.298 296.553 230.87C296.553 233.272 295.837 235.674 294.404 238.075C292.991 240.477 290.993 243.071 288.41 245.856L276.815 258.48L276.875 258.631L292.527 258.631L293.011 253.575L298.067 253.575L298.067 263.293L269.519 263.293ZM332.579 246.491C332.579 252.122 331.327 256.441 328.825 259.448C326.322 262.435 322.901 263.929 318.562 263.929C314.243 263.929 310.822 262.425 308.299 259.418C305.776 256.411 304.515 252.102 304.515 246.491L304.515 236.047C304.515 230.436 305.767 226.127 308.269 223.12C310.772 220.093 314.183 218.579 318.502 218.579C322.841 218.579 326.272 220.093 328.795 223.12C331.317 226.127 332.579 230.436 332.579 236.047L332.579 246.491ZM326.615 234.775C326.615 230.961 325.919 228.095 324.526 226.178C323.154 224.24 321.146 223.271 318.502 223.272C315.898 223.272 313.91 224.24 312.538 226.178C311.165 228.095 310.479 230.961 310.479 234.775L310.479 247.702C310.479 251.517 311.175 254.403 312.568 256.36C313.96 258.298 315.958 259.267 318.562 259.267C321.206 259.267 323.204 258.298 324.556 256.36C325.928 254.423 326.615 251.537 326.615 247.702L326.615 234.775Z" fill="white"/>
</g>
<defs>
<filter id="filter0_d" x="36.0753" y="76.009" width="599.15" height="360.238" filterUnits="userSpaceOnUse" color-interpolation-filters="sRGB">
<feFlood flood-opacity="0" result="BackgroundImageFix"/>
<feColorMatrix in="SourceAlpha" type="matrix" values="0 0 0 0 0 0 0 0 0 0 0 0 0 0 0 0 0 0 127 0"/>
<feOffset dx="15" dy="15"/>
<feGaussianBlur stdDeviation="15"/>
<feColorMatrix type="matrix" values="0 0 0 0 0 0 0 0 0 0 0 0 0 0 0 0 0 0 0.1 0"/>
<feBlend mode="normal" in2="BackgroundImageFix" result="effect1_dropShadow"/>
<feBlend mode="normal" in="SourceGraphic" in2="effect1_dropShadow" result="shape"/>
</filter>
</defs>
</svg>
