<svg id="ecpayx50pnwu1" xmlns="http://www.w3.org/2000/svg" xmlns:xlink="http://www.w3.org/1999/xlink" viewBox="0 0 1152 293" shape-rendering="geometricPrecision" text-rendering="geometricPrecision" width="1152" height="293"><style><![CDATA[#ecpayx50pnwu6_to {animation: ecpayx50pnwu6_to__to 30000ms linear infinite normal forwards}@keyframes ecpayx50pnwu6_to__to { 0% {transform: translate(20px,0px)} 50% {transform: translate(-60px,0px)} 100% {transform: translate(20px,0px)} }#ecpayx50pnwu7_to {animation: ecpayx50pnwu7_to__to 30000ms linear infinite normal forwards}@keyframes ecpayx50pnwu7_to__to { 0% {transform: translate(0px,0px)} 50% {transform: translate(-130px,0px)} 100% {transform: translate(0px,0px)} }#ecpayx50pnwu8_to {animation: ecpayx50pnwu8_to__to 30000ms linear infinite normal forwards}@keyframes ecpayx50pnwu8_to__to { 0% {transform: translate(0px,0px)} 50% {transform: translate(160px,0px)} 100% {transform: translate(0px,0px)} }#ecpayx50pnwu9_to {animation: ecpayx50pnwu9_to__to 30000ms linear infinite normal forwards}@keyframes ecpayx50pnwu9_to__to { 0% {transform: translate(0px,0px)} 50% {transform: translate(-160px,0px)} 100% {transform: translate(0px,0px)} }#ecpayx50pnwu10_to {animation: ecpayx50pnwu10_to__to 30000ms linear infinite normal forwards}@keyframes ecpayx50pnwu10_to__to { 0% {transform: translate(0px,0px)} 50% {transform: translate(90px,0px)} 100% {transform: translate(0px,0px)} }#ecpayx50pnwu11_to {animation: ecpayx50pnwu11_to__to 30000ms linear infinite normal forwards}@keyframes ecpayx50pnwu11_to__to { 0% {transform: translate(0px,0px)} 50% {transform: translate(110px,0px)} 100% {transform: translate(0px,0px)} }]]></style><path id="ecpayx50pnwu2" d="M886.057000,72.090700C886.920000,70.636400,889.080000,70.636400,889.943000,72.090700L892.697000,76.732000C893.559000,78.184900,892.480000,80,890.754000,80L885.246000,80C883.520000,80,882.441000,78.184900,883.303000,76.732000L886.057000,72.090700Z" fill="rgb(32,125,255)" stroke="none" stroke-width="1"/><path id="ecpayx50pnwu3" d="M1146.630000,152.914000C1148.120000,155.575000,1146.170000,158.951000,1143.120000,158.987000L1133.380000,159.103000C1130.330000,159.140000,1128.470000,155.815000,1130.030000,153.118000L1135,144.510000C1136.550000,141.813000,1140.360000,141.764000,1141.860000,144.423000L1146.630000,152.914000Z" fill="rgb(32,125,255)" stroke="none" stroke-width="1"/><path id="ecpayx50pnwu4" d="M425.626000,78.914400C427.120000,81.575300,425.171000,84.950700,422.120000,84.987100L412.381000,85.103300C409.333000,85.139700,407.470000,81.815500,409.027000,79.118200L413.997000,70.510200C415.554000,67.812900,419.364000,67.764300,420.857000,70.422600L425.626000,78.914400Z" fill="rgb(32,125,255)" stroke="none" stroke-width="1"/><path id="ecpayx50pnwu5" d="M156.057000,268.091000C156.920000,266.636000,159.080000,266.636000,159.943000,268.091000L162.697000,272.732000C163.559000,274.185000,162.480000,276,160.754000,276L155.246000,276C153.520000,276,152.441000,274.185000,153.303000,272.732000L156.057000,268.091000Z" fill="rgb(32,125,255)" stroke="none" stroke-width="1"/><g id="ecpayx50pnwu6_to" transform="translate(20,0)"><path id="ecpayx50pnwu6" d="M159.926000,28C159.977000,27.339800,160,26.672900,160,26C160,11.640600,148.359000,0,134,0C119.641000,0,108,11.640600,108,26C108,26.672900,108.023000,27.339800,108.074000,28L102,28C93.714800,28,87,34.715800,87,43C87,51.284200,93.714800,58,102,58L165,58C173.285000,58,180,51.284200,180,43C180,34.715800,173.285000,28,165,28L159.926000,28Z" transform="translate(0,0)" clip-rule="evenodd" fill="rgb(65,137,255)" fill-rule="evenodd" stroke="none" stroke-width="1"/></g><g id="ecpayx50pnwu7_to" transform="translate(0,0)"><path id="ecpayx50pnwu7" d="M786.049000,38.645100C786.081000,38.219200,786.098000,37.788900,786.098000,37.354800C786.098000,28.090600,778.588000,20.580600,769.323000,20.580600C760.059000,20.580600,752.549000,28.090600,752.549000,37.354800C752.549000,37.788900,752.566000,38.219200,752.598000,38.645100L748.677000,38.645100C743.333000,38.645100,739,42.977800,739,48.322500C739,53.667200,743.333000,58,748.677000,58L789.323000,58C794.667000,58,799,53.667200,799,48.322500C799,42.977800,794.667000,38.645100,789.323000,38.645100L786.049000,38.645100Z" transform="translate(0,0)" clip-rule="evenodd" fill="rgb(65,137,255)" fill-rule="evenodd" stroke="none" stroke-width="1"/></g><g id="ecpayx50pnwu8_to" transform="translate(0,0)"><path id="ecpayx50pnwu8" d="M16.136700,190C17.378900,178.750000,26.918000,170,38.500000,170C50.082000,170,59.621100,178.750000,60.863300,190L63.500000,190C70.402300,190,76,195.596000,76,202.500000C76,209.404000,70.402300,215,63.500000,215L38.500000,215L12.500000,215C5.597660,215,0,209.404000,0,202.500000C0,195.596000,5.597660,190,12.500000,190L16.136700,190Z" transform="translate(0,0)" clip-rule="evenodd" fill="rgb(235,243,249)" fill-rule="evenodd" stroke="none" stroke-width="1"/></g><g id="ecpayx50pnwu9_to" transform="translate(0,0)"><path id="ecpayx50pnwu9" d="M968.959000,261.737000C970.497000,247.823000,982.294000,237,996.618000,237C1010.940000,237,1022.740000,247.823000,1024.280000,261.737000L1027.540000,261.737000C1036.080000,261.737000,1043,268.659000,1043,277.197000C1043,285.736000,1036.080000,292.658000,1027.540000,292.658000L996.618000,292.658000L964.461000,292.658000C955.922000,292.658000,949,285.736000,949,277.197000C949,268.659000,955.922000,261.737000,964.461000,261.737000L968.959000,261.737000Z" transform="translate(0,0)" clip-rule="evenodd" fill="rgb(235,243,249)" fill-rule="evenodd" stroke="none" stroke-width="1"/></g><g id="ecpayx50pnwu10_to" transform="translate(0,0)"><path id="ecpayx50pnwu10" d="M330.992000,47L336,47C339.867000,47,343,50.134000,343,54C343,57.866000,339.867000,61,336,61L317.500000,61L305.500000,61L290,61C286.133000,61,283,57.866000,283,54C283,50.134000,286.133000,47,290,47L295.598000,47C297.039000,42.921900,300.926000,40,305.500000,40C305.750000,40,306.004000,40.019300,306.250000,40.036400C308.668000,36.397900,312.805000,34,317.500000,34C324.789000,34,330.730000,39.775900,330.992000,47Z" transform="translate(0,0)" clip-rule="evenodd" fill="rgb(235,243,249)" fill-rule="evenodd" stroke="none" stroke-width="1"/></g><g id="ecpayx50pnwu11_to" transform="translate(0,0)"><path id="ecpayx50pnwu11" d="M971.116000,4.917390C972.689000,2.555970,975.375000,1,978.425000,1C983.162000,1,987.023000,4.754270,987.194000,9.450000L990.450000,9.450000C992.963000,9.450000,995,11.487100,995,14C995,16.512900,992.963000,18.550000,990.450000,18.550000L978.425000,18.550000L970.625000,18.550000L960.550000,18.550000C958.037000,18.550000,956,16.512900,956,14C956,11.487100,958.037000,9.450000,960.550000,9.450000L964.188000,9.450000C965.125000,6.799190,967.653000,4.900000,970.625000,4.900000C970.790000,4.900000,970.954000,4.905860,971.116000,4.917390Z" transform="translate(0,0)" clip-rule="evenodd" fill="rgb(235,243,249)" fill-rule="evenodd" stroke="none" stroke-width="1"/></g></svg>